Oswald-Regular-FF-400-Pole.ufo
<glyph name="exclam" format="1">
  <advance width="428"/>
  <unicode hex="0021"/>
  <outline>
    <contour>
      <point x="96.0" y="0.0" type="line"/>
      <point x="332.0" y="0.0" type="line"/>
      <point x="332.0" y="237.0" type="line"/>
      <point x="96.0" y="237.0" type="line"/>
    </contour>
    <contour>
      <point x="172.0" y="355.0" type="line"/>
      <point x="255.0" y="355.0" type="line"/>
      <point x="332.0" y="1658.0" type="line"/>
      <point x="96.0" y="1658.0" type="line"/>
    </contour>
  </outline>
</glyph>
<glyph name="quotedbl" format="1">
  <advance width="790"/>
  <unicode hex="0022"/>
  <outline>
    <contour>
      <point x="488.0" y="1144.0" type="line"/>
      <point x="615.0" y="1144.0" type="line"/>
      <point x="698.0" y="1658.0" type="line"/>
      <point x="488.0" y="1658.0" type="line"/>
    </contour>
    <contour>
      <point x="177.0" y="1144.0" type="line"/>
      <point x="304.0" y="1144.0" type="line"/>
      <point x="387.0" y="1658.0" type="line"/>
      <point x="177.0" y="1658.0" type="line"/>
    </contour>
  </outline>
</glyph>
<glyph name="dollar" format="1">
  <advance width="1018"/>
  <unicode hex="0024"/>
  <outline>
    <contour>
      <point x="509.0" y="-151.0" type="line"/>
      <point x="581.0" y="-151.0" type="line"/>
      <point x="581.0" y="76.0" type="line"/>
      <point x="509.0" y="76.0" type="line"/>
    </contour>
    <contour>
      <point x="462.0" y="1584.0" type="line"/>
      <point x="534.0" y="1584.0" type="line"/>
      <point x="534.0" y="1800.0" type="line"/>
      <point x="462.0" y="1800.0" type="line"/>
    </contour>
    <component base="S"/>
  </outline>
</glyph>
<glyph name="percent" format="1">
  <advance width="1848"/>
  <unicode hex="0025"/>
  <outline>
    <contour>
      <point x="411.0" y="945.0" type="curve" smooth="yes"/>
      <point x="306.0" y="945.0"/>
      <point x="288.0" y="1050.0"/>
      <point x="288.0" y="1159.0" type="curve" smooth="yes"/>
      <point x="288.0" y="1281.0" type="line" smooth="yes"/>
      <point x="288.0" y="1392.0"/>
      <point x="300.0" y="1488.0"/>
      <point x="411.0" y="1488.0" type="curve" smooth="yes"/>
      <point x="521.0" y="1488.0"/>
      <point x="535.0" y="1396.0"/>
      <point x="535.0" y="1283.0" type="curve" smooth="yes"/>
      <point x="535.0" y="1161.0" type="line" smooth="yes"/>
      <point x="535.0" y="1052.0"/>
      <point x="519.0" y="945.0"/>
    </contour>
    <contour>
      <point x="411.0" y="767.0" type="curve" smooth="yes"/>
      <point x="651.0" y="767.0"/>
      <point x="750.0" y="911.0"/>
      <point x="750.0" y="1161.0" type="curve" smooth="yes"/>
      <point x="750.0" y="1283.0" type="line" smooth="yes"/>
      <point x="750.0" y="1534.0"/>
      <point x="655.0" y="1668.0"/>
      <point x="411.0" y="1668.0" type="curve" smooth="yes"/>
      <point x="165.0" y="1668.0"/>
      <point x="72.0" y="1525.0"/>
      <point x="72.0" y="1271.0" type="curve" smooth="yes"/>
      <point x="72.0" y="1168.0" type="line" smooth="yes"/>
      <point x="72.0" y="920.0"/>
      <point x="172.0" y="767.0"/>
    </contour>
    <contour>
      <point x="1496.0" y="168.0" type="curve" smooth="yes"/>
      <point x="1391.0" y="168.0"/>
      <point x="1373.0" y="273.0"/>
      <point x="1373.0" y="382.0" type="curve" smooth="yes"/>
      <point x="1373.0" y="504.0" type="line" smooth="yes"/>
      <point x="1373.0" y="615.0"/>
      <point x="1385.0" y="711.0"/>
      <point x="1496.0" y="711.0" type="curve" smooth="yes"/>
      <point x="1606.0" y="711.0"/>
      <point x="1620.0" y="619.0"/>
      <point x="1620.0" y="506.0" type="curve" smooth="yes"/>
      <point x="1620.0" y="384.0" type="line" smooth="yes"/>
      <point x="1620.0" y="275.0"/>
      <point x="1604.0" y="168.0"/>
    </contour>
    <contour>
      <point x="1496.0" y="-10.0" type="curve" smooth="yes"/>
      <point x="1736.0" y="-10.0"/>
      <point x="1835.0" y="134.0"/>
      <point x="1835.0" y="384.0" type="curve" smooth="yes"/>
      <point x="1835.0" y="506.0" type="line" smooth="yes"/>
      <point x="1835.0" y="757.0"/>
      <point x="1740.0" y="891.0"/>
      <point x="1496.0" y="891.0" type="curve" smooth="yes"/>
      <point x="1250.0" y="891.0"/>
      <point x="1157.0" y="748.0"/>
      <point x="1157.0" y="494.0" type="curve" smooth="yes"/>
      <point x="1157.0" y="391.0" type="line" smooth="yes"/>
      <point x="1157.0" y="143.0"/>
      <point x="1257.0" y="-10.0"/>
    </contour>
    <contour>
      <point x="634.0" y="0.0" type="line"/>
      <point x="838.0" y="0.0" type="line"/>
      <point x="1276.0" y="1660.0" type="line"/>
      <point x="1073.0" y="1660.0" type="line"/>
    </contour>
  </outline>
</glyph>
<glyph name="ampersand" format="1">
  <advance width="1242"/>
  <unicode hex="0026"/>
  <outline>
    <contour>
      <point x="1098.0" y="-18.0" type="curve" smooth="yes"/>
      <point x="1107.0" y="-18.0"/>
      <point x="1116.0" y="-18.0"/>
      <point x="1125.0" y="-17.0" type="curve"/>
      <point x="1125.0" y="227.0" type="line"/>
      <point x="1061.0" y="227.0"/>
      <point x="999.0" y="269.0"/>
      <point x="970.0" y="306.0" type="curve"/>
      <point x="1040.0" y="411.0"/>
      <point x="1125.0" y="605.0"/>
      <point x="1125.0" y="769.0" type="curve"/>
      <point x="888.0" y="769.0" type="line"/>
      <point x="874.0" y="653.0"/>
      <point x="854.0" y="533.0"/>
      <point x="819.0" y="454.0" type="curve"/>
      <point x="587.0" y="820.0" type="line"/>
      <point x="705.0" y="938.0"/>
      <point x="888.0" y="1137.0"/>
      <point x="888.0" y="1362.0" type="curve" smooth="yes"/>
      <point x="888.0" y="1558.0"/>
      <point x="730.0" y="1674.0"/>
      <point x="533.0" y="1674.0" type="curve" smooth="yes"/>
      <point x="314.0" y="1674.0"/>
      <point x="178.0" y="1521.0"/>
      <point x="178.0" y="1302.0" type="curve" smooth="yes"/>
      <point x="178.0" y="1117.0"/>
      <point x="289.0" y="963.0"/>
      <point x="355.0" y="829.0" type="curve"/>
      <point x="235.0" y="723.0"/>
      <point x="118.0" y="572.0"/>
      <point x="118.0" y="355.0" type="curve" smooth="yes"/>
      <point x="118.0" y="134.0"/>
      <point x="250.0" y="-17.0"/>
      <point x="473.0" y="-17.0" type="curve" smooth="yes"/>
      <point x="636.0" y="-17.0"/>
      <point x="756.0" y="51.0"/>
      <point x="829.0" y="145.0" type="curve"/>
      <point x="898.0" y="78.0"/>
      <point x="974.0" y="-18.0"/>
    </contour>
    <contour>
      <point x="473.0" y="178.0" type="curve" smooth="yes"/>
      <point x="382.0" y="178.0"/>
      <point x="355.0" y="263.0"/>
      <point x="355.0" y="355.0" type="curve" smooth="yes"/>
      <point x="355.0" y="472.0"/>
      <point x="397.0" y="592.0"/>
      <point x="448.0" y="661.0" type="curve"/>
      <point x="684.0" y="298.0" type="line"/>
      <point x="640.0" y="242.0"/>
      <point x="572.0" y="178.0"/>
    </contour>
    <contour>
      <point x="504.0" y="947.0" type="curve"/>
      <point x="465.0" y="1045.0"/>
      <point x="414.0" y="1173.0"/>
      <point x="414.0" y="1302.0" type="curve" smooth="yes"/>
      <point x="414.0" y="1389.0"/>
      <point x="447.0" y="1480.0"/>
      <point x="533.0" y="1480.0" type="curve" smooth="yes"/>
      <point x="605.0" y="1480.0"/>
      <point x="651.0" y="1434.0"/>
      <point x="651.0" y="1362.0" type="curve" smooth="yes"/>
      <point x="651.0" y="1210.0"/>
      <point x="577.0" y="1039.0"/>
    </contour>
  </outline>
</glyph>
<glyph name="quotesingle" format="1">
  <advance width="354"/>
  <unicode hex="0027"/>
  <outline>
    <contour>
      <point x="115" y="1026" type="line"/>
      <point x="234" y="1026" type="line"/>
      <point x="294" y="1658" type="line"/>
      <point x="58" y="1658" type="line"/>
    </contour>
  </outline>
</glyph>
<glyph name="parenleft" format="1">
  <advance width="620"/>
  <unicode hex="0028"/>
  <outline>
    <contour>
      <point x="560.0" y="1674.0" type="line"/>
      <point x="154.0" y="1674.0"/>
      <point x="147.0" y="1124.0"/>
      <point x="147.0" y="629.0" type="curve" smooth="yes"/>
      <point x="147.0" y="135.0"/>
      <point x="154.0" y="-412.0"/>
      <point x="560.0" y="-412.0" type="curve"/>
      <point x="560.0" y="-255.0" type="line"/>
      <point x="369.0" y="-255.0"/>
      <point x="373.0" y="215.0"/>
      <point x="373.0" y="629.0" type="curve" smooth="yes"/>
      <point x="373.0" y="1038.0"/>
      <point x="370.0" y="1516.0"/>
      <point x="560.0" y="1516.0" type="curve"/>
    </contour>
  </outline>
</glyph>
<glyph name="parenright" format="1">
  <advance width="533"/>
  <unicode hex="0029"/>
  <outline>
    <contour>
      <point x="60.0" y="-412.0" type="line"/>
      <point x="466.0" y="-412.0"/>
      <point x="473.0" y="138.0"/>
      <point x="473.0" y="633.0" type="curve" smooth="yes"/>
      <point x="473.0" y="1127.0"/>
      <point x="466.0" y="1674.0"/>
      <point x="60.0" y="1674.0" type="curve"/>
      <point x="60.0" y="1517.0" type="line"/>
      <point x="251.0" y="1517.0"/>
      <point x="247.0" y="1047.0"/>
      <point x="247.0" y="633.0" type="curve" smooth="yes"/>
      <point x="247.0" y="224.0"/>
      <point x="250.0" y="-254.0"/>
      <point x="60.0" y="-254.0" type="curve"/>
    </contour>
  </outline>
</glyph>
<glyph name="asterisk" format="1">
  <advance width="828"/>
  <unicode hex="002A"/>
  <outline>
    <contour>
      <point x="317.0" y="952.0" type="line"/>
      <point x="444.0" y="1208.0" type="line"/>
      <point x="570.0" y="952.0" type="line"/>
      <point x="712.0" y="1036.0" type="line"/>
      <point x="552.0" y="1259.0" type="line"/>
      <point x="790.0" y="1351.0" type="line"/>
      <point x="734.0" y="1500.0" type="line"/>
      <point x="506.0" y="1378.0" type="line"/>
      <point x="533.0" y="1656.0" type="line"/>
      <point x="355.0" y="1656.0" type="line"/>
      <point x="381.0" y="1378.0" type="line"/>
      <point x="154.0" y="1500.0" type="line"/>
      <point x="98.0" y="1351.0" type="line"/>
      <point x="336.0" y="1260.0" type="line"/>
      <point x="177.0" y="1036.0" type="line"/>
    </contour>
  </outline>
</glyph>
<glyph name="plus" format="1">
  <advance width="651"/>
  <unicode hex="002B"/>
  <outline>
    <contour>
      <point x="237.0" y="355.0" type="line"/>
      <point x="414.0" y="355.0" type="line"/>
      <point x="414.0" y="533.0" type="line"/>
      <point x="592.0" y="533.0" type="line"/>
      <point x="592.0" y="711.0" type="line"/>
      <point x="414.0" y="711.0" type="line"/>
      <point x="414.0" y="888.0" type="line"/>
      <point x="237.0" y="888.0" type="line"/>
      <point x="237.0" y="711.0" type="line"/>
      <point x="60.0" y="711.0" type="line"/>
      <point x="60.0" y="533.0" type="line"/>
      <point x="237.0" y="533.0" type="line"/>
    </contour>
  </outline>
</glyph>
<glyph name="comma" format="1">
  <advance width="385"/>
  <unicode hex="002C"/>
  <outline>
    <contour>
      <point x="113.0" y="-237.0" type="line"/>
      <point x="262.0" y="-237.0"/>
      <point x="318.0" y="-147.0"/>
      <point x="318.0" y="2.0" type="curve" smooth="yes"/>
      <point x="318.0" y="238.0" type="line"/>
      <point x="76.0" y="238.0" type="line"/>
      <point x="76.0" y="0.0" type="line"/>
      <point x="200.0" y="0.0" type="line"/>
      <point x="200.0" y="-83.0"/>
      <point x="162.0" y="-134.0"/>
      <point x="76.0" y="-134.0" type="curve"/>
    </contour>
  </outline>
</glyph>
<glyph name="hyphen" format="1">
  <advance width="512"/>
  <unicode hex="002D"/>
  <outline>
    <contour>
      <point x="24.0" y="516.0" type="line"/>
      <point x="488.0" y="516.0" type="line"/>
      <point x="488.0" y="694.0" type="line"/>
      <point x="24.0" y="694.0" type="line"/>
    </contour>
  </outline>
</glyph>
<glyph name="period" format="1">
  <advance width="390"/>
  <unicode hex="002E"/>
  <outline>
    <contour>
      <point x="94.0" y="0.0" type="line"/>
      <point x="330.0" y="0.0" type="line"/>
      <point x="330.0" y="248.0" type="line"/>
      <point x="94.0" y="248.0" type="line"/>
    </contour>
  </outline>
</glyph>
<glyph name="slash" format="1">
  <advance width="769"/>
  <unicode hex="002F"/>
  <outline>
    <contour>
      <point x="0.0" y="0.0" type="line"/>
      <point x="237.0" y="0.0" type="line"/>
      <point x="769.0" y="1658.0" type="line"/>
      <point x="532.0" y="1658.0" type="line"/>
    </contour>
  </outline>
</glyph>
<glyph name="zero" format="1">
  <advance width="1005"/>
  <unicode hex="0030"/>
  <outline>
    <contour>
      <point x="503" y="178" type="curve" smooth="yes"/>
      <point x="360" y="178"/>
      <point x="326" y="330"/>
      <point x="326" y="473" type="curve" smooth="yes"/>
      <point x="326" y="1184" type="line" smooth="yes"/>
      <point x="326" y="1334"/>
      <point x="352" y="1480"/>
      <point x="503" y="1480" type="curve" smooth="yes"/>
      <point x="654" y="1480"/>
      <point x="680" y="1334"/>
      <point x="680" y="1184" type="curve" smooth="yes"/>
      <point x="680" y="473" type="line" smooth="yes"/>
      <point x="680" y="330"/>
      <point x="648" y="178"/>
    </contour>
    <contour>
      <point x="503" y="-17" type="curve" smooth="yes"/>
      <point x="783" y="-17"/>
      <point x="918" y="186"/>
      <point x="918" y="473" type="curve" smooth="yes"/>
      <point x="918" y="1184" type="line" smooth="yes"/>
      <point x="918" y="1477"/>
      <point x="787" y="1674"/>
      <point x="503" y="1674" type="curve" smooth="yes"/>
      <point x="217" y="1674"/>
      <point x="89" y="1477"/>
      <point x="89" y="1184" type="curve" smooth="yes"/>
      <point x="89" y="473" type="line" smooth="yes"/>
      <point x="89" y="188"/>
      <point x="225" y="-17"/>
    </contour>
  </outline>
</glyph>
<glyph name="one" format="1">
  <advance width="977"/>
  <unicode hex="0031"/>
  <outline>
    <contour>
      <point x="459.0" y="0.0" type="line"/>
      <point x="695.0" y="0.0" type="line"/>
      <point x="695.0" y="1658.0" type="line"/>
      <point x="518.0" y="1658.0" type="line"/>
      <point x="432.0" y="1547.0"/>
      <point x="260.0" y="1505.0"/>
      <point x="162.0" y="1480.0" type="curve"/>
      <point x="162.0" y="1302.0" type="line"/>
      <point x="459.0" y="1352.0" type="line"/>
    </contour>
  </outline>
</glyph>
<glyph name="three" format="1">
  <advance width="950"/>
  <unicode hex="0033"/>
  <outline>
    <contour>
      <point x="487.0" y="-17.0" type="curve" smooth="yes"/>
      <point x="784.0" y="-17.0"/>
      <point x="901.0" y="176.0"/>
      <point x="901.0" y="473.0" type="curve" smooth="yes"/>
      <point x="901.0" y="688.0"/>
      <point x="819.0" y="837.0"/>
      <point x="664.0" y="888.0" type="curve"/>
      <point x="807.0" y="932.0"/>
      <point x="901.0" y="1050.0"/>
      <point x="901.0" y="1243.0" type="curve" smooth="yes"/>
      <point x="901.0" y="1513.0"/>
      <point x="760.0" y="1674.0"/>
      <point x="487.0" y="1674.0" type="curve" smooth="yes"/>
      <point x="216.0" y="1674.0"/>
      <point x="72.0" y="1512.0"/>
      <point x="72.0" y="1243.0" type="curve" smooth="yes"/>
      <point x="72.0" y="1184.0" type="line"/>
      <point x="309.0" y="1184.0" type="line"/>
      <point x="309.0" y="1204.46253581"/>
      <point x="309.276836609" y="1224.40215802"/>
      <point x="310.067019121" y="1243.63385533" type="curve" smooth="yes"/>
      <point x="315.648486518" y="1379.47727123"/>
      <point x="346.842458963" y="1480.0"/>
      <point x="487.0" y="1480.0" type="curve" smooth="yes"/>
      <point x="628.0" y="1480.0"/>
      <point x="664.0" y="1387.0"/>
      <point x="664.0" y="1243.0" type="curve" smooth="yes"/>
      <point x="664.0" y="1087.65769982"/>
      <point x="612.989340258" y="1021.5840542"/>
      <point x="478.947089129" y="1009.20025018" type="curve" smooth="yes"/>
      <point x="462.847674595" y="1007.71286845"/>
      <point x="445.550471663" y="1007.0"/>
      <point x="427.0" y="1007.0" type="curve"/>
      <point x="427.0" y="769.0" type="line"/>
      <point x="448.339198023" y="769.0"/>
      <point x="467.968132086" y="767.304108006"/>
      <point x="485.990179571" y="764.012255487" type="curve" smooth="yes"/>
      <point x="618.298263929" y="739.845262186"/>
      <point x="664.0" y="629.660801977"/>
      <point x="664.0" y="473.0" type="curve" smooth="yes"/>
      <point x="664.0" y="308.0"/>
      <point x="647.0" y="178.0"/>
      <point x="487.0" y="178.0" type="curve" smooth="yes"/>
      <point x="346.801139832" y="178.0"/>
      <point x="315.630103715" y="277.814205118"/>
      <point x="310.062089465" y="413.528452389" type="curve" smooth="yes"/>
      <point x="309.275684863" y="432.696202998"/>
      <point x="309.0" y="452.580074549"/>
      <point x="309.0" y="473.0" type="curve"/>
      <point x="72.0" y="473.0" type="line"/>
      <point x="72.0" y="414.0" type="line" smooth="yes"/>
      <point x="72.0" y="144.0"/>
      <point x="214.0" y="-17.0"/>
    </contour>
  </outline>
</glyph>
<glyph name="four" format="1">
  <advance width="1005"/>
  <unicode hex="0034"/>
  <outline>
    <contour>
      <point x="550.0" y="0.0" type="line"/>
      <point x="787.0" y="0.0" type="line"/>
      <point x="787.0" y="425.0" type="line"/>
      <point x="970.0" y="425.0" type="line"/>
      <point x="970.0" y="649.0" type="line"/>
      <point x="787.0" y="649.0" type="line"/>
      <point x="787.0" y="1659.0" type="line"/>
      <point x="492.0" y="1659.0" type="line"/>
      <point x="77.0" y="690.0" type="line"/>
      <point x="77.0" y="425.0" type="line"/>
      <point x="550.0" y="425.0" type="line"/>
    </contour>
    <contour>
      <point x="314.0" y="649.0" type="line"/>
      <point x="550.0" y="1362.0" type="line"/>
      <point x="550.0" y="649.0" type="line"/>
    </contour>
  </outline>
</glyph>
<glyph name="five" format="1">
  <advance width="971"/>
  <unicode hex="0035"/>
  <outline>
    <contour>
      <point x="495.0" y="-17.0" type="curve" smooth="yes"/>
      <point x="832.0" y="-17.0"/>
      <point x="914.0" y="257.0"/>
      <point x="914.0" y="592.0" type="curve" smooth="yes"/>
      <point x="914.0" y="867.0"/>
      <point x="832.0" y="1078.0"/>
      <point x="558.0" y="1078.0" type="curve" smooth="yes"/>
      <point x="457.0" y="1078.0"/>
      <point x="383.0" y="1056.0"/>
      <point x="322.0" y="1020.0" type="curve"/>
      <point x="337.0" y="1421.0" type="line"/>
      <point x="855.0" y="1421.0" type="line"/>
      <point x="855.0" y="1658.0" type="line"/>
      <point x="122.0" y="1658.0" type="line"/>
      <point x="122.0" y="764.0" type="line"/>
      <point x="324.0" y="764.0" type="line"/>
      <point x="349.0" y="829.0"/>
      <point x="410.0" y="901.0"/>
      <point x="501.0" y="901.0" type="curve" smooth="yes"/>
      <point x="666.0" y="901.0"/>
      <point x="677.0" y="773.0"/>
      <point x="677.0" y="609.0" type="curve" smooth="yes"/>
      <point x="677.0" y="398.0"/>
      <point x="688.0" y="172.0"/>
      <point x="482.0" y="172.0" type="curve" smooth="yes"/>
      <point x="342.0" y="172.0"/>
      <point x="322.0" y="297.0"/>
      <point x="322.0" y="436.0" type="curve" smooth="yes"/>
      <point x="322.0" y="473.0" type="line"/>
      <point x="85.0" y="473.0" type="line"/>
      <point x="85.0" y="169.0"/>
      <point x="187.0" y="-17.0"/>
    </contour>
  </outline>
</glyph>
<glyph name="six" format="1">
  <advance width="1001"/>
  <unicode hex="0036"/>
  <outline>
    <contour>
      <point x="518.0" y="-17.0" type="curve" smooth="yes"/>
      <point x="818.0" y="-17.0"/>
      <point x="933.0" y="232.0"/>
      <point x="933.0" y="533.0" type="curve" smooth="yes"/>
      <point x="933.0" y="805.0"/>
      <point x="852.0" y="1007.0"/>
      <point x="577.0" y="1007.0" type="curve" smooth="yes"/>
      <point x="460.0" y="1007.0"/>
      <point x="381.0" y="960.0"/>
      <point x="340.0" y="888.0" type="curve"/>
      <point x="340.0" y="1125.0" type="line" smooth="yes"/>
      <point x="340.0" y="1362.0"/>
      <point x="400.0" y="1480.0"/>
      <point x="518.0" y="1480.0" type="curve" smooth="yes"/>
      <point x="660.0" y="1480.0"/>
      <point x="696.0" y="1388.0"/>
      <point x="696.0" y="1243.0" type="curve"/>
      <point x="933.0" y="1243.0" type="line"/>
      <point x="933.0" y="1256.36365275"/>
      <point x="932.644970339" y="1269.45738568"/>
      <point x="931.937669024" y="1282.27532305" type="curve" smooth="yes"/>
      <point x="918.301687115" y="1529.39088536"/>
      <point x="773.734971996" y="1674.0"/>
      <point x="518.0" y="1674.0" type="curve" smooth="yes"/>
      <point x="197.0" y="1674.0"/>
      <point x="104.0" y="1391.0"/>
      <point x="104.0" y="1066.0" type="curve" smooth="yes"/>
      <point x="104.0" y="533.0" type="line" smooth="yes"/>
      <point x="104.0" y="235.0"/>
      <point x="227.0" y="-17.0"/>
    </contour>
    <contour>
      <point x="518.0" y="178.0" type="curve" smooth="yes"/>
      <point x="378.0" y="178.0"/>
      <point x="340.0" y="328.0"/>
      <point x="340.0" y="473.0" type="curve" smooth="yes"/>
      <point x="340.0" y="711.0" type="line"/>
      <point x="371.0" y="771.0"/>
      <point x="427.0" y="829.0"/>
      <point x="518.0" y="829.0" type="curve" smooth="yes"/>
      <point x="696.0" y="829.0"/>
      <point x="696.0" y="651.0"/>
      <point x="696.0" y="473.0" type="curve" smooth="yes"/>
      <point x="696.0" y="329.0"/>
      <point x="659.0" y="178.0"/>
    </contour>
  </outline>
</glyph>
<glyph name="seven" format="1">
  <advance width="763"/>
  <unicode hex="0037"/>
  <outline>
    <contour>
      <point x="176.0" y="0.0" type="line"/>
      <point x="403.0" y="0.0" type="line"/>
      <point x="705.0" y="1544.0" type="line"/>
      <point x="705.0" y="1658.0" type="line"/>
      <point x="41.0" y="1658.0" type="line"/>
      <point x="41.0" y="1461.0" type="line"/>
      <point x="480.0" y="1461.0" type="line"/>
    </contour>
  </outline>
</glyph>
<glyph name="nine" format="1">
  <advance width="1001"/>
  <unicode hex="0039"/>
  <outline>
    <contour>
      <point x="500.0" y="-17.0" type="curve" smooth="yes"/>
      <point x="821.0" y="-17.0"/>
      <point x="914.0" y="267.0"/>
      <point x="914.0" y="592.0" type="curve" smooth="yes"/>
      <point x="914.0" y="1125.0" type="line" smooth="yes"/>
      <point x="914.0" y="1423.0"/>
      <point x="791.0" y="1674.0"/>
      <point x="500.0" y="1674.0" type="curve" smooth="yes"/>
      <point x="200.0" y="1674.0"/>
      <point x="85.0" y="1426.0"/>
      <point x="85.0" y="1125.0" type="curve" smooth="yes"/>
      <point x="85.0" y="853.0"/>
      <point x="165.0" y="651.0"/>
      <point x="440.0" y="651.0" type="curve" smooth="yes"/>
      <point x="557.0" y="651.0"/>
      <point x="635.0" y="697.0"/>
      <point x="677.0" y="769.0" type="curve"/>
      <point x="677.0" y="533.0" type="line" smooth="yes"/>
      <point x="677.0" y="296.0"/>
      <point x="618.0" y="178.0"/>
      <point x="500.0" y="178.0" type="curve" smooth="yes"/>
      <point x="358.0" y="178.0"/>
      <point x="322.0" y="269.0"/>
      <point x="322.0" y="414.0" type="curve"/>
      <point x="85.0" y="414.0" type="line"/>
      <point x="85.0" y="143.0"/>
      <point x="231.0" y="-17.0"/>
    </contour>
    <contour>
      <point x="500.0" y="829.0" type="curve" smooth="yes"/>
      <point x="322.0" y="829.0"/>
      <point x="322.0" y="1006.0"/>
      <point x="322.0" y="1184.0" type="curve" smooth="yes"/>
      <point x="322.0" y="1328.0"/>
      <point x="359.0" y="1480.0"/>
      <point x="500.0" y="1480.0" type="curve" smooth="yes"/>
      <point x="640.0" y="1480.0"/>
      <point x="677.0" y="1329.0"/>
      <point x="677.0" y="1184.0" type="curve" smooth="yes"/>
      <point x="677.0" y="947.0" type="line"/>
      <point x="645.0" y="887.0"/>
      <point x="592.0" y="829.0"/>
    </contour>
  </outline>
</glyph>
<glyph name="colon" format="1">
  <advance width="405"/>
  <unicode hex="003A"/>
  <outline>
    <contour>
      <point x="118.0" y="204.0" type="line"/>
      <point x="355.0" y="204.0" type="line"/>
      <point x="355.0" y="440.0" type="line"/>
      <point x="118.0" y="440.0" type="line"/>
    </contour>
    <contour>
      <point x="118.0" y="844.0" type="line"/>
      <point x="355.0" y="844.0" type="line"/>
      <point x="355.0" y="1082.0" type="line"/>
      <point x="118.0" y="1082.0" type="line"/>
    </contour>
  </outline>
</glyph>
<glyph name="semicolon" format="1">
  <advance width="445"/>
  <unicode hex="003B"/>
  <outline>
    <contour>
      <point x="153.0" y="-16.0" type="line"/>
      <point x="302.0" y="-16.0"/>
      <point x="358.0" y="74.0"/>
      <point x="358.0" y="223.0" type="curve" smooth="yes"/>
      <point x="358.0" y="459.0" type="line"/>
      <point x="116.0" y="459.0" type="line"/>
      <point x="116.0" y="221.0" type="line"/>
      <point x="240.0" y="221.0" type="line"/>
      <point x="240.0" y="138.0"/>
      <point x="202.0" y="87.0"/>
      <point x="116.0" y="87.0" type="curve"/>
    </contour>
    <contour>
      <point x="116.0" y="876.0" type="line"/>
      <point x="352.0" y="876.0" type="line"/>
      <point x="352.0" y="1124.0" type="line"/>
      <point x="116.0" y="1124.0" type="line"/>
    </contour>
  </outline>
</glyph>
<glyph name="less" format="1">
  <advance width="769"/>
  <unicode hex="003C"/>
  <outline>
    <contour>
      <point x="651.0" y="60.0" type="line"/>
      <point x="651.0" y="296.0" type="line"/>
      <point x="237.0" y="593.0" type="line"/>
      <point x="651.0" y="888.0" type="line"/>
      <point x="651.0" y="1125.0" type="line"/>
      <point x="60.0" y="711.0" type="line"/>
      <point x="60.0" y="473.0" type="line"/>
    </contour>
  </outline>
</glyph>
<glyph name="equal" format="1">
  <advance width="651"/>
  <unicode hex="003D"/>
  <outline>
    <contour>
      <point x="60" y="236" type="line"/>
      <point x="592" y="236" type="line"/>
      <point x="592" y="414" type="line"/>
      <point x="60" y="414" type="line"/>
    </contour>
    <contour>
      <point x="60" y="533" type="line"/>
      <point x="592" y="533" type="line"/>
      <point x="592" y="711" type="line"/>
      <point x="60" y="711" type="line"/>
    </contour>
  </outline>
</glyph>
<glyph name="greater" format="1">
  <advance width="769"/>
  <unicode hex="003E"/>
  <outline>
    <contour>
      <point x="118" y="60" type="line"/>
      <point x="711" y="473" type="line"/>
      <point x="711" y="711" type="line"/>
      <point x="118" y="1125" type="line"/>
      <point x="118" y="888" type="line"/>
      <point x="533" y="593" type="line"/>
      <point x="118" y="296" type="line"/>
    </contour>
  </outline>
</glyph>
<glyph name="question" format="1">
  <advance width="1065"/>
  <unicode hex="003F"/>
  <outline>
    <contour>
      <point x="355" y="416" type="line"/>
      <point x="592" y="416" type="line"/>
      <point x="592" y="592" type="line"/>
      <point x="798" y="691"/>
      <point x="948" y="847"/>
      <point x="948" y="1125" type="curve" smooth="yes"/>
      <point x="948" y="1393"/>
      <point x="804" y="1540"/>
      <point x="533" y="1540" type="curve" smooth="yes"/>
      <point x="265" y="1540"/>
      <point x="118" y="1372"/>
      <point x="118" y="1095" type="curve" smooth="yes"/>
      <point x="118" y="1066" type="line"/>
      <point x="355" y="1066" type="line"/>
      <point x="355" y="1101" type="line" smooth="yes"/>
      <point x="355" y="1214"/>
      <point x="410.617" y="1302"/>
      <point x="533" y="1302" type="curve" smooth="yes"/>
      <point x="651" y="1302"/>
      <point x="711" y="1243"/>
      <point x="711" y="1125" type="curve" smooth="yes"/>
      <point x="711" y="885"/>
      <point x="521" y="750"/>
      <point x="355" y="651" type="curve"/>
    </contour>
    <contour>
      <point x="355" y="0" type="line"/>
      <point x="592" y="0" type="line"/>
      <point x="592" y="237" type="line"/>
      <point x="355" y="237" type="line"/>
    </contour>
  </outline>
</glyph>
<glyph name="at" format="1">
  <advance width="1647"/>
  <unicode hex="0040"/>
  <outline>
    <contour>
      <point x="886" y="-118" type="curve" smooth="yes"/>
      <point x="1017" y="-118"/>
      <point x="1138" y="-97"/>
      <point x="1247" y="-72" type="curve"/>
      <point x="1160" y="110" type="line"/>
      <point x="1085" y="86"/>
      <point x="981" y="60"/>
      <point x="886" y="60" type="curve" smooth="yes"/>
      <point x="483" y="60"/>
      <point x="355" y="302"/>
      <point x="355" y="711" type="curve" smooth="yes"/>
      <point x="355" y="1042"/>
      <point x="503" y="1276"/>
      <point x="829" y="1276" type="curve" smooth="yes"/>
      <point x="1176" y="1276"/>
      <point x="1293" y="1064"/>
      <point x="1293" y="711" type="curve" smooth="yes"/>
      <point x="1293" y="610"/>
      <point x="1280" y="464"/>
      <point x="1186" y="464" type="curve" smooth="yes"/>
      <point x="1126" y="464"/>
      <point x="1123" y="514"/>
      <point x="1123" y="573" type="curve" smooth="yes"/>
      <point x="1123" y="1099" type="line"/>
      <point x="886" y="1099" type="line"/>
      <point x="886" y="981" type="line"/>
      <point x="882" y="1057"/>
      <point x="838" y="1108"/>
      <point x="755" y="1108" type="curve" smooth="yes"/>
      <point x="541" y="1108"/>
      <point x="473" y="867"/>
      <point x="473" y="641" type="curve" smooth="yes"/>
      <point x="473" y="441"/>
      <point x="574" y="271"/>
      <point x="777" y="271" type="curve" smooth="yes"/>
      <point x="861" y="271"/>
      <point x="909" y="330"/>
      <point x="935" y="389" type="curve"/>
      <point x="978" y="316"/>
      <point x="1069" y="271"/>
      <point x="1189" y="271" type="curve" smooth="yes"/>
      <point x="1425" y="271"/>
      <point x="1530" y="466"/>
      <point x="1530" y="711" type="curve" smooth="yes"/>
      <point x="1530" y="1174"/>
      <point x="1292" y="1454"/>
      <point x="829" y="1454" type="curve" smooth="yes"/>
      <point x="379" y="1454"/>
      <point x="118" y="1165"/>
      <point x="118" y="711" type="curve" smooth="yes"/>
      <point x="118" y="163"/>
      <point x="342" y="-118"/>
    </contour>
    <contour>
      <point x="818" y="464" type="curve" smooth="yes"/>
      <point x="733" y="464"/>
      <point x="711" y="550"/>
      <point x="711" y="641" type="curve" smooth="yes"/>
      <point x="711" y="770"/>
      <point x="709" y="922"/>
      <point x="836" y="922" type="curve" smooth="yes"/>
      <point x="869" y="922"/>
      <point x="882" y="900"/>
      <point x="886" y="874" type="curve"/>
      <point x="886" y="502" type="line"/>
      <point x="882" y="474"/>
      <point x="857" y="464"/>
    </contour>
  </outline>
</glyph>
<glyph name="A" format="1">
  <advance width="1015"/>
  <unicode hex="0041"/>
  <outline>
    <contour>
      <point x="34.0" y="0.0" type="line"/>
      <point x="270.0" y="0.0" type="line"/>
      <point x="346.612" y="412.0" type="line"/>
      <point x="670.095" y="412.0" type="line"/>
      <point x="744.0" y="0.0" type="line"/>
      <point x="981.0" y="0.0" type="line"/>
      <point x="626.0" y="1658.0" type="line"/>
      <point x="389.0" y="1658.0" type="line"/>
    </contour>
    <contour>
      <point x="637.851" y="590.0" type="line"/>
      <point x="379.178" y="590.0" type="line"/>
      <point x="508.0" y="1302.0" type="line"/>
    </contour>
  </outline>
</glyph>
<glyph name="B" format="1">
  <advance width="1084"/>
  <unicode hex="0042"/>
  <outline>
    <contour>
      <point x="261.0" y="0.0" type="line"/>
      <point x="575.0" y="0.0" type="line" smooth="yes"/>
      <point x="868.0" y="0.0"/>
      <point x="1010.0" y="180.0"/>
      <point x="1010.0" y="473.0" type="curve" smooth="yes"/>
      <point x="1010.0" y="720.0"/>
      <point x="918.0" y="846.0"/>
      <point x="720.0" y="893.0" type="curve"/>
      <point x="881.0" y="912.0"/>
      <point x="964.0" y="1028.0"/>
      <point x="964.0" y="1243.0" type="curve" smooth="yes"/>
      <point x="964.0" y="1536.0"/>
      <point x="810.0" y="1658.0"/>
      <point x="511.0" y="1658.0" type="curve" smooth="yes"/>
      <point x="257.0" y="1658.0" type="line"/>
      <point x="257.0" y="1474.0" type="line"/>
      <point x="406.0" y="1474.0" type="line" smooth="yes"/>
      <point x="639.0" y="1474.0"/>
      <point x="747.0" y="1477.0"/>
      <point x="747.0" y="1243.0" type="curve" smooth="yes"/>
      <point x="747.0" y="1043.0"/>
      <point x="686.0" y="971.0"/>
      <point x="490.0" y="971.0" type="curve" smooth="yes"/>
      <point x="261.0" y="971.0" type="line"/>
      <point x="261.0" y="782.0" type="line"/>
      <point x="490.0" y="782.0" type="line" smooth="yes"/>
      <point x="694.0" y="782.0"/>
      <point x="772.0" y="680.0"/>
      <point x="772.0" y="473.0" type="curve" smooth="yes"/>
      <point x="772.0" y="266.0"/>
      <point x="719.0" y="178.0"/>
      <point x="515.0" y="178.0" type="curve" smooth="yes"/>
      <point x="261.0" y="178.0" type="line"/>
    </contour>
    <component base="uc_main_stem" xOffset="8"/>
  </outline>
</glyph>
<glyph name="D" format="1">
  <advance width="1082"/>
  <unicode hex="0044"/>
  <outline>
    <component base="uc_main_stem" xOffset="8"/>
    <contour>
      <point x="252" y="0" type="line"/>
      <point x="504" y="0" type="line" smooth="yes"/>
      <point x="857" y="0"/>
      <point x="986" y="187"/>
      <point x="986" y="549" type="curve" smooth="yes"/>
      <point x="986" y="1147" type="line" smooth="yes"/>
      <point x="986" y="1495"/>
      <point x="861" y="1658"/>
      <point x="486" y="1658" type="curve" smooth="yes"/>
      <point x="252" y="1658" type="line"/>
      <point x="252" y="1474" type="line"/>
      <point x="481" y="1474" type="line" smooth="yes"/>
      <point x="716" y="1474"/>
      <point x="734" y="1374"/>
      <point x="734" y="1118" type="curve" smooth="yes"/>
      <point x="734" y="598" type="line" smooth="yes"/>
      <point x="734" y="324"/>
      <point x="736" y="178"/>
      <point x="486" y="178" type="curve" smooth="yes"/>
      <point x="252" y="178" type="line"/>
    </contour>
  </outline>
</glyph>
<glyph name="E" format="1">
  <advance width="839"/>
  <unicode hex="0045"/>
  <outline>
    <component base="uc_main_stem" xOffset="8"/>
    <contour>
      <point x="252" y="0" type="line"/>
      <point x="784" y="0" type="line"/>
      <point x="784" y="178" type="line"/>
      <point x="252" y="178" type="line"/>
    </contour>
    <contour>
      <point x="252" y="767" type="line"/>
      <point x="703" y="767" type="line"/>
      <point x="703" y="945" type="line"/>
      <point x="252" y="945" type="line"/>
    </contour>
    <contour>
      <point x="252" y="1474" type="line"/>
      <point x="779" y="1474" type="line"/>
      <point x="779" y="1658" type="line"/>
      <point x="252" y="1658" type="line"/>
    </contour>
  </outline>
</glyph>
<glyph name="F" format="1">
  <advance width="802"/>
  <unicode hex="0046"/>
  <outline>
    <contour>
      <point x="251.0" y="769.0" type="line"/>
      <point x="680.0" y="769.0" type="line"/>
      <point x="680.0" y="947.0" type="line"/>
      <point x="251.0" y="947.0" type="line"/>
    </contour>
    <contour>
      <point x="251.0" y="1480.0" type="line"/>
      <point x="777.0" y="1480.0" type="line"/>
      <point x="777.0" y="1658.0" type="line"/>
      <point x="251.0" y="1658.0" type="line"/>
    </contour>
    <component base="uc_main_stem" xOffset="8"/>
  </outline>
</glyph>
<glyph name="G" format="1">
  <advance width="1104"/>
  <unicode hex="0047"/>
  <outline>
    <contour>
      <point x="526" y="-20" type="curve" smooth="yes"/>
      <point x="838" y="-20"/>
      <point x="865" y="308"/>
      <point x="865" y="565" type="curve" smooth="yes"/>
      <point x="865" y="651" type="line"/>
      <point x="774" y="651" type="line"/>
      <point x="774" y="555" type="line" smooth="yes"/>
      <point x="774" y="303"/>
      <point x="731" y="178"/>
      <point x="556" y="178" type="curve" smooth="yes"/>
      <point x="383" y="178"/>
      <point x="346" y="289"/>
      <point x="346" y="528" type="curve" smooth="yes"/>
      <point x="346" y="1125" type="line" smooth="yes"/>
      <point x="346" y="1327"/>
      <point x="352" y="1480"/>
      <point x="550" y="1480" type="curve" smooth="yes"/>
      <point x="732" y="1480"/>
      <point x="752" y="1384"/>
      <point x="752" y="1175" type="curve" smooth="yes"/>
      <point x="752" y="1125" type="line"/>
      <point x="986" y="1125" type="line"/>
      <point x="986" y="1187" type="line" smooth="yes"/>
      <point x="986" y="1522"/>
      <point x="861" y="1674"/>
      <point x="546" y="1674" type="curve" smooth="yes"/>
      <point x="190" y="1674"/>
      <point x="96" y="1461"/>
      <point x="96" y="1085" type="curve" smooth="yes"/>
      <point x="96" y="554" type="line" smooth="yes"/>
      <point x="96" y="185"/>
      <point x="215" y="-20"/>
    </contour>
    <contour>
      <point x="842" y="0" type="line"/>
      <point x="1000" y="0" type="line"/>
      <point x="1000" y="827" type="line"/>
      <point x="572" y="827" type="line"/>
      <point x="572" y="651" type="line"/>
      <point x="774" y="651" type="line"/>
      <point x="774" y="555" type="line"/>
    </contour>
  </outline>
</glyph>
<glyph name="H" format="1">
  <advance width="1154"/>
  <unicode hex="0048"/>
  <outline>
    <contour>
      <point x="246.0" y="769.0" type="line"/>
      <point x="904.0" y="769.0" type="line"/>
      <point x="904.0" y="947.0" type="line"/>
      <point x="246.0" y="947.0" type="line"/>
    </contour>
    <component base="uc_main_stem" xOffset="660"/>
    <component base="uc_main_stem" xOffset="8"/>
  </outline>
</glyph>
<glyph name="I" format="1">
  <advance width="520"/>
  <unicode hex="0049"/>
  <outline>
    <component base="uc_main_stem" xScale="0.980777" xOffset="23.2683"/>
    <contour>
      <point x="254.0" y="0.0" type="move" name="ogonek"/>
    </contour>
  </outline>
</glyph>
<glyph name="J" format="1">
  <advance width="629"/>
  <unicode hex="004A"/>
  <outline>
    <component base="uc_part_stem" yScale="1.02715" xOffset="122" yOffset="-45"/>
    <contour>
      <point x="14" y="-31" type="line"/>
      <point x="132" y="-31" type="line" smooth="yes"/>
      <point x="421" y="-31"/>
      <point x="501" y="102"/>
      <point x="501" y="389" type="curve"/>
      <point x="251" y="389" type="line"/>
      <point x="251" y="190"/>
      <point x="208" y="147"/>
      <point x="14" y="147" type="curve"/>
    </contour>
  </outline>
</glyph>
<glyph name="K" format="1">
  <advance width="1053"/>
  <unicode hex="004B"/>
  <outline>
    <contour>
      <point x="777.0" y="0.0" type="line"/>
      <point x="1020.0" y="0.0" type="line"/>
      <point x="647.0" y="922.0" type="line"/>
      <point x="972.0" y="1658.0" type="line"/>
      <point x="740.0" y="1658.0" type="line"/>
      <point x="247.0" y="632.0" type="line"/>
      <point x="247.0" y="420.0" type="line"/>
      <point x="455.0" y="811.0" type="line"/>
    </contour>
    <component base="uc_main_stem" xOffset="8"/>
  </outline>
</glyph>
<glyph name="L" format="1">
  <advance width="821"/>
  <unicode hex="004C"/>
  <outline>
    <component base="uc_main_stem" xOffset="8"/>
    <contour>
      <point x="249" y="0" type="line"/>
      <point x="787" y="0" type="line"/>
      <point x="787" y="178" type="line"/>
      <point x="249" y="178" type="line"/>
    </contour>
  </outline>
</glyph>
<glyph name="M" format="1">
  <advance width="1361"/>
  <unicode hex="004D"/>
  <outline>
    <contour>
      <point x="124.0" y="0.0" type="line"/>
      <point x="333.0" y="0.0" type="line"/>
      <point x="347.0" y="1178.0" type="line"/>
      <point x="612.0" y="0.0" type="line"/>
      <point x="749.0" y="0.0" type="line"/>
      <point x="1015.0" y="1178.0" type="line"/>
      <point x="1029.0" y="0.0" type="line"/>
      <point x="1237.0" y="0.0" type="line"/>
      <point x="1209.0" y="1658.0" type="line"/>
      <point x="946.0" y="1658.0" type="line"/>
      <point x="680.0" y="421.0" type="line"/>
      <point x="416.0" y="1658.0" type="line"/>
      <point x="152.0" y="1658.0" type="line"/>
    </contour>
  </outline>
</glyph>
<glyph name="N" format="1">
  <advance width="1085"/>
  <unicode hex="004E"/>
  <outline>
    <contour>
      <point x="126.0" y="0.0" type="line"/>
      <point x="336.0" y="0.0" type="line"/>
      <point x="336.0" y="1091.0" type="line"/>
      <point x="801.0" y="0.0" type="line"/>
      <point x="959.0" y="0.0" type="line"/>
      <point x="959.0" y="1658.0" type="line"/>
      <point x="751.0" y="1658.0" type="line"/>
      <point x="751.0" y="604.0" type="line"/>
      <point x="294.0" y="1658.0" type="line"/>
      <point x="126.0" y="1658.0" type="line"/>
    </contour>
  </outline>
</glyph>
<glyph name="O" format="1">
  <advance width="1112"/>
  <unicode hex="004F"/>
  <outline>
    <contour>
      <point x="556.0" y="178.0" type="curve" smooth="yes"/>
      <point x="378.0" y="178.0"/>
      <point x="348.0" y="295.0"/>
      <point x="348.0" y="473.0" type="curve" smooth="yes"/>
      <point x="348.0" y="1193.0" type="line" smooth="yes"/>
      <point x="348.0" y="1371.0"/>
      <point x="378.0" y="1480.0"/>
      <point x="556.0" y="1480.0" type="curve" smooth="yes"/>
      <point x="734.0" y="1480.0"/>
      <point x="764.0" y="1371.0"/>
      <point x="764.0" y="1193.0" type="curve" smooth="yes"/>
      <point x="764.0" y="473.0" type="line" smooth="yes"/>
      <point x="764.0" y="295.0"/>
      <point x="734.0" y="178.0"/>
    </contour>
    <contour>
      <point x="556.0" y="-17.0" type="curve" smooth="yes"/>
      <point x="893.0" y="-17.0"/>
      <point x="1016.0" y="194.0"/>
      <point x="1016.0" y="527.0" type="curve" smooth="yes"/>
      <point x="1016.0" y="1140.0" type="line" smooth="yes"/>
      <point x="1016.0" y="1473.0"/>
      <point x="893.0" y="1674.0"/>
      <point x="556.0" y="1674.0" type="curve" smooth="yes"/>
      <point x="217.0" y="1674.0"/>
      <point x="96.0" y="1477.0"/>
      <point x="96.0" y="1140.0" type="curve" smooth="yes"/>
      <point x="96.0" y="527.0" type="line" smooth="yes"/>
      <point x="96.0" y="190.0"/>
      <point x="217.0" y="-17.0"/>
    </contour>
  </outline>
</glyph>
<glyph name="P" format="1">
  <advance width="981"/>
  <unicode hex="0050"/>
  <outline>
    <contour>
      <point x="249.0" y="769.0" type="line"/>
      <point x="541.0" y="769.0" type="line" smooth="yes"/>
      <point x="809.0" y="769.0"/>
      <point x="955.0" y="924.0"/>
      <point x="955.0" y="1195.0" type="curve" smooth="yes"/>
      <point x="955.0" y="1491.0"/>
      <point x="837.0" y="1658.0"/>
      <point x="541.0" y="1658.0" type="curve" smooth="yes"/>
      <point x="249.0" y="1658.0" type="line"/>
      <point x="249.0" y="1480.0" type="line"/>
      <point x="461.0" y="1480.0" type="line" smooth="yes"/>
      <point x="696.0" y="1480.0"/>
      <point x="719.0" y="1424.0"/>
      <point x="719.0" y="1194.0" type="curve" smooth="yes"/>
      <point x="719.0" y="996.0"/>
      <point x="657.0" y="947.0"/>
      <point x="457.0" y="947.0" type="curve" smooth="yes"/>
      <point x="249.0" y="947.0" type="line"/>
    </contour>
    <component base="uc_main_stem" xOffset="8"/>
  </outline>
</glyph>
<glyph name="Q" format="1">
  <advance width="1098"/>
  <unicode hex="0051"/>
  <outline>
    <component base="O"/>
    <contour>
      <point x="893" y="-337" type="curve"/>
      <point x="933" y="-142" type="line"/>
      <point x="859" y="-92"/>
      <point x="772" y="31"/>
      <point x="714" y="107" type="curve"/>
      <point x="548" y="52" type="line"/>
      <point x="614" y="-54"/>
      <point x="752" y="-267"/>
    </contour>
  </outline>
</glyph>
<glyph name="R" format="1">
  <advance width="1045"/>
  <unicode hex="0052"/>
  <outline>
    <contour>
      <point x="746.0" y="0.0" type="line"/>
      <point x="988.0" y="0.0" type="line"/>
      <point x="756.0" y="828.0" type="line"/>
      <point x="894.0" y="878.0"/>
      <point x="955.0" y="1019.0"/>
      <point x="955.0" y="1214.0" type="curve" smooth="yes"/>
      <point x="955.0" y="1543.0"/>
      <point x="786.0" y="1658.0"/>
      <point x="449.0" y="1658.0" type="curve" smooth="yes"/>
      <point x="245.0" y="1658.0" type="line"/>
      <point x="245.0" y="1480.0" type="line"/>
      <point x="449.0" y="1480.0" type="line" smooth="yes"/>
      <point x="661.0" y="1480.0"/>
      <point x="715.0" y="1407.0"/>
      <point x="715.0" y="1214.0" type="curve" smooth="yes"/>
      <point x="715.0" y="998.0"/>
      <point x="626.0" y="947.0"/>
      <point x="432.0" y="947.0" type="curve" smooth="yes"/>
      <point x="245.0" y="947.0" type="line"/>
      <point x="245.0" y="769.0" type="line"/>
      <point x="535.0" y="769.0" type="line"/>
    </contour>
    <component base="uc_main_stem" xOffset="8"/>
  </outline>
</glyph>
<glyph name="T" format="1">
  <advance width="826"/>
  <unicode hex="0054"/>
  <outline>
    <contour>
      <point x="-1.0" y="1474.0" type="line"/>
      <point x="828.0" y="1474.0" type="line"/>
      <point x="828.0" y="1658.0" type="line"/>
      <point x="-1.0" y="1658.0" type="line"/>
    </contour>
    <component base="uc_main_stem" xOffset="176"/>
  </outline>
</glyph>
<glyph name="U" format="1">
  <advance width="1116"/>
  <unicode hex="0055"/>
  <outline>
    <contour>
      <point x="559.0" y="-17.0" type="curve" smooth="yes"/>
      <point x="927.0" y="-17.0"/>
      <point x="1004.0" y="220.0"/>
      <point x="1004.0" y="585.0" type="curve" smooth="yes"/>
      <point x="1004.0" y="1658.0" type="line"/>
      <point x="767.0" y="1658.0" type="line"/>
      <point x="767.0" y="573.0" type="line" smooth="yes"/>
      <point x="767.0" y="354.0"/>
      <point x="748.0" y="178.0"/>
      <point x="559.0" y="178.0" type="curve" smooth="yes"/>
      <point x="370.0" y="178.0"/>
      <point x="349.0" y="354.0"/>
      <point x="349.0" y="573.0" type="curve" smooth="yes"/>
      <point x="349.0" y="1658.0" type="line"/>
      <point x="112.0" y="1658.0" type="line"/>
      <point x="112.0" y="585.0" type="line" smooth="yes"/>
      <point x="112.0" y="220.0"/>
      <point x="191.0" y="-17.0"/>
    </contour>
  </outline>
</glyph>
<glyph name="W" format="1">
  <advance width="1460"/>
  <unicode hex="0057"/>
  <outline>
    <contour>
      <point x="312.0" y="0.0" type="line"/>
      <point x="536.0" y="0.0" type="line"/>
      <point x="652.0" y="800.0" type="line"/>
      <point x="737.0" y="1313.0" type="line"/>
      <point x="810.0" y="769.0" type="line"/>
      <point x="928.0" y="0.0" type="line"/>
      <point x="1150.0" y="0.0" type="line"/>
      <point x="1412.0" y="1658.0" type="line"/>
      <point x="1202.0" y="1658.0" type="line"/>
      <point x="1102.0" y="888.0" type="line"/>
      <point x="1037.0" y="409.0" type="line"/>
      <point x="971.0" y="888.0" type="line"/>
      <point x="853.0" y="1658.0" type="line"/>
      <point x="616.0" y="1658.0" type="line"/>
      <point x="492.0" y="888.0" type="line"/>
      <point x="429.0" y="414.0" type="line"/>
      <point x="370.0" y="888.0" type="line"/>
      <point x="263.0" y="1658.0" type="line"/>
      <point x="48.0" y="1658.0" type="line"/>
    </contour>
  </outline>
</glyph>
<glyph name="X" format="1">
  <advance width="997"/>
  <unicode hex="0058"/>
  <outline>
    <contour>
      <point x="740.0" y="0.0" type="line"/>
      <point x="971.0" y="0.0" type="line"/>
      <point x="602.0" y="937.0" type="line"/>
      <point x="518.0" y="1024.0" type="line"/>
      <point x="276.0" y="1658.0" type="line"/>
      <point x="44.0" y="1658.0" type="line"/>
      <point x="415.0" y="787.0" type="line"/>
      <point x="479.0" y="708.0" type="line"/>
    </contour>
    <contour>
      <point x="26.0" y="0.0" type="line"/>
      <point x="259.0" y="0.0" type="line"/>
      <point x="965.0" y="1658.0" type="line"/>
      <point x="733.0" y="1658.0" type="line"/>
    </contour>
  </outline>
</glyph>
<glyph name="Y" format="1">
  <advance width="992"/>
  <unicode hex="0059"/>
  <outline>
    <contour>
      <point x="377.0" y="0.0" type="line"/>
      <point x="615.0" y="0.0" type="line"/>
      <point x="615.0" y="594.0" type="line"/>
      <point x="970.0" y="1658.0" type="line"/>
      <point x="735.0" y="1658.0" type="line"/>
      <point x="495.0" y="890.0" type="line"/>
      <point x="253.0" y="1658.0" type="line"/>
      <point x="22.0" y="1658.0" type="line"/>
      <point x="377.0" y="594.0" type="line"/>
    </contour>
  </outline>
</glyph>
<glyph name="Z" format="1">
  <advance width="858"/>
  <unicode hex="005A"/>
  <outline>
    <contour>
      <point x="80" y="0" type="line"/>
      <point x="816" y="0" type="line"/>
      <point x="816" y="178" type="line"/>
      <point x="316" y="178" type="line"/>
      <point x="816" y="1553" type="line"/>
      <point x="816" y="1658" type="line"/>
      <point x="106" y="1658" type="line"/>
      <point x="106" y="1480" type="line"/>
      <point x="550" y="1480" type="line"/>
      <point x="80" y="178" type="line"/>
    </contour>
  </outline>
</glyph>
<glyph name="bracketleft" format="1">
  <advance width="717"/>
  <unicode hex="005B"/>
  <outline>
    <contour>
      <point x="126.0" y="-390.0" type="line"/>
      <point x="600.0" y="-390.0" type="line"/>
      <point x="600.0" y="-270.0" type="line"/>
      <point x="363.0" y="-270.0" type="line"/>
      <point x="363.0" y="1539.0" type="line"/>
      <point x="600.0" y="1539.0" type="line"/>
      <point x="600.0" y="1658.0" type="line"/>
      <point x="126.0" y="1658.0" type="line"/>
    </contour>
  </outline>
</glyph>
<glyph name="backslash" format="1">
  <advance width="532"/>
  <unicode hex="005C"/>
  <outline>
    <contour>
      <point x="237.0" y="0.0" type="line"/>
      <point x="473.0" y="0.0" type="line"/>
      <point x="296.0" y="1658.0" type="line"/>
      <point x="60.0" y="1658.0" type="line"/>
    </contour>
  </outline>
</glyph>
<glyph name="bracketright" format="1">
  <advance width="647"/>
  <unicode hex="005D"/>
  <outline>
    <contour>
      <point x="47.0" y="-390.0" type="line"/>
      <point x="521.0" y="-390.0" type="line"/>
      <point x="521.0" y="1658.0" type="line"/>
      <point x="47.0" y="1658.0" type="line"/>
      <point x="47.0" y="1538.0" type="line"/>
      <point x="284.0" y="1538.0" type="line"/>
      <point x="284.0" y="-271.0" type="line"/>
      <point x="47.0" y="-271.0" type="line"/>
    </contour>
  </outline>
</glyph>
<glyph name="asciicircum" format="1">
  <advance width="828"/>
  <unicode hex="005E"/>
  <outline>
    <contour>
      <point x="60.0" y="829.0" type="line"/>
      <point x="296.0" y="829.0" type="line"/>
      <point x="414.0" y="1243.0" type="line"/>
      <point x="533.0" y="829.0" type="line"/>
      <point x="769.0" y="829.0" type="line"/>
      <point x="533.0" y="1421.0" type="line"/>
      <point x="296.0" y="1421.0" type="line"/>
    </contour>
  </outline>
</glyph>
<glyph name="underscore" format="1">
  <advance width="709"/>
  <unicode hex="005F"/>
  <outline>
    <contour>
      <point x="0" y="0" type="line"/>
      <point x="711" y="0" type="line"/>
      <point x="711" y="178" type="line"/>
      <point x="0" y="178" type="line"/>
    </contour>
  </outline>
</glyph>
<glyph name="grave" format="1">
  <advance width="591"/>
  <unicode hex="0060"/>
  <outline>
    <contour>
      <point x="355" y="1302" type="line"/>
      <point x="473" y="1302" type="line"/>
      <point x="355" y="1658" type="line"/>
      <point x="118" y="1658" type="line"/>
    </contour>
  </outline>
</glyph>
<glyph name="c" format="1">
  <advance width="837"/>
  <unicode hex="0063"/>
  <outline>
    <contour>
      <point x="440.0" y="-17.0" type="curve" smooth="yes"/>
      <point x="693.0" y="-17.0"/>
      <point x="769.0" y="118.0"/>
      <point x="769.0" y="360.0" type="curve" smooth="yes"/>
      <point x="769.0" y="447.0" type="line"/>
      <point x="556.0" y="447.0" type="line"/>
      <point x="556.0" y="344.0" type="line" smooth="yes"/>
      <point x="556.0" y="240.0"/>
      <point x="546.0" y="158.0"/>
      <point x="445.0" y="158.0" type="curve" smooth="yes"/>
      <point x="354.0" y="158.0"/>
      <point x="324.0" y="201.0"/>
      <point x="324.0" y="395.0" type="curve" smooth="yes"/>
      <point x="324.0" y="779.0" type="line" smooth="yes"/>
      <point x="324.0" y="965.0"/>
      <point x="342.0" y="1026.0"/>
      <point x="444.0" y="1026.0" type="curve" smooth="yes"/>
      <point x="533.0" y="1026.0"/>
      <point x="556.0" y="971.0"/>
      <point x="556.0" y="830.0" type="curve" smooth="yes"/>
      <point x="556.0" y="755.0" type="line"/>
      <point x="769.0" y="755.0" type="line"/>
      <point x="769.0" y="829.0" type="line" smooth="yes"/>
      <point x="769.0" y="1078.0"/>
      <point x="700.0" y="1200.0"/>
      <point x="440.0" y="1200.0" type="curve" smooth="yes"/>
      <point x="146.0" y="1200.0"/>
      <point x="88.0" y="1017.0"/>
      <point x="88.0" y="729.0" type="curve" smooth="yes"/>
      <point x="88.0" y="455.0" type="line" smooth="yes"/>
      <point x="88.0" y="167.0"/>
      <point x="145.0" y="-17.0"/>
    </contour>
  </outline>
</glyph>
<glyph name="f" format="1">
  <advance width="598"/>
  <unicode hex="0066"/>
  <outline>
    <contour>
      <point x="179" y="0" type="line"/>
      <point x="414" y="0" type="line"/>
      <point x="414" y="1007" type="line"/>
      <point x="592" y="1007" type="line"/>
      <point x="592" y="1184" type="line"/>
      <point x="414" y="1184" type="line"/>
      <point x="414" y="1273" type="line" smooth="yes"/>
      <point x="414" y="1358"/>
      <point x="427" y="1421"/>
      <point x="512" y="1421" type="curve" smooth="yes"/>
      <point x="535" y="1421"/>
      <point x="568" y="1413"/>
      <point x="592" y="1411" type="curve"/>
      <point x="592" y="1587" type="line"/>
      <point x="532" y="1594"/>
      <point x="503" y="1598"/>
      <point x="445" y="1598" type="curve" smooth="yes"/>
      <point x="215" y="1598"/>
      <point x="179" y="1459"/>
      <point x="179" y="1230" type="curve" smooth="yes"/>
      <point x="179" y="1184" type="line"/>
      <point x="39" y="1184" type="line"/>
      <point x="39" y="1007" type="line"/>
      <point x="179" y="1007" type="line"/>
    </contour>
  </outline>
</glyph>
<glyph name="g" format="1">
  <advance width="889"/>
  <unicode hex="0067"/>
  <outline>
    <contour>
      <point x="499.0" y="-362.0" type="curve" smooth="yes"/>
      <point x="741.0" y="-362.0"/>
      <point x="845.0" y="-281.0"/>
      <point x="845.0" y="-60.0" type="curve" smooth="yes"/>
      <point x="845.0" y="121.0"/>
      <point x="752.0" y="218.0"/>
      <point x="576.0" y="231.0" type="curve" smooth="yes"/>
      <point x="394.0" y="245.0" type="line" smooth="yes"/>
      <point x="323.0" y="250.0"/>
      <point x="294.0" y="265.0"/>
      <point x="294.0" y="299.0" type="curve" smooth="yes"/>
      <point x="294.0" y="327.0"/>
      <point x="312.0" y="354.0"/>
      <point x="323.0" y="374.0" type="curve"/>
      <point x="323.0" y="374.0"/>
      <point x="410.0" y="360.0"/>
      <point x="433.0" y="360.0" type="curve" smooth="yes"/>
      <point x="684.0" y="360.0"/>
      <point x="761.0" y="527.0"/>
      <point x="761.0" y="769.0" type="curve" smooth="yes"/>
      <point x="761.0" y="839.0"/>
      <point x="744.0" y="942.0"/>
      <point x="724.0" y="989.0" type="curve"/>
      <point x="754.0" y="1022.0"/>
      <point x="807.0" y="1007.0"/>
      <point x="870.0" y="1007.0" type="curve"/>
      <point x="870.0" y="1199.0" type="line"/>
      <point x="864.0" y="1199.0"/>
      <point x="856.0" y="1200.0"/>
      <point x="852.0" y="1199.0" type="curve" smooth="yes"/>
      <point x="759.0" y="1193.0"/>
      <point x="708.0" y="1143.0"/>
      <point x="675.0" y="1074.0" type="curve"/>
      <point x="634.0" y="1160.0"/>
      <point x="558.0" y="1200.0"/>
      <point x="433.0" y="1200.0" type="curve" smooth="yes"/>
      <point x="217.0" y="1200.0"/>
      <point x="101.0" y="1065.0"/>
      <point x="101.0" y="776.0" type="curve" smooth="yes"/>
      <point x="101.0" y="581.0"/>
      <point x="149.0" y="491.0"/>
      <point x="235.0" y="424.0" type="curve"/>
      <point x="149.0" y="351.0"/>
      <point x="106.0" y="306.0"/>
      <point x="106.0" y="217.0" type="curve" smooth="yes"/>
      <point x="106.0" y="161.0"/>
      <point x="136.0" y="108.0"/>
      <point x="216.0" y="83.0" type="curve"/>
      <point x="130.0" y="37.0"/>
      <point x="51.0" y="-48.0"/>
      <point x="51.0" y="-181.0" type="curve" smooth="yes"/>
      <point x="51.0" y="-353.0"/>
      <point x="275.0" y="-362.0"/>
    </contour>
    <contour>
      <point x="496.0" y="-175.0" type="curve" smooth="yes"/>
      <point x="276.0" y="-175.0"/>
      <point x="252.0" y="-145.0"/>
      <point x="252.0" y="-84.0" type="curve" smooth="yes"/>
      <point x="252.0" y="-18.0"/>
      <point x="305.0" y="41.0"/>
      <point x="323.0" y="58.0" type="curve"/>
      <point x="519.0" y="44.0" type="line" smooth="yes"/>
      <point x="633.0" y="36.0"/>
      <point x="665.0" y="2.0"/>
      <point x="665.0" y="-67.0" type="curve" smooth="yes"/>
      <point x="665.0" y="-143.0"/>
      <point x="616.0" y="-175.0"/>
    </contour>
    <contour>
      <point x="433.0" y="527.0" type="curve" smooth="yes"/>
      <point x="323.0" y="527.0"/>
      <point x="305.0" y="625.0"/>
      <point x="305.0" y="776.0" type="curve" smooth="yes"/>
      <point x="305.0" y="958.0"/>
      <point x="325.0" y="1036.0"/>
      <point x="437.0" y="1036.0" type="curve" smooth="yes"/>
      <point x="549.0" y="1036.0"/>
      <point x="562.0" y="948.0"/>
      <point x="562.0" y="776.0" type="curve" smooth="yes"/>
      <point x="562.0" y="605.0"/>
      <point x="546.0" y="527.0"/>
    </contour>
  </outline>
</glyph>
<glyph name="i" format="1">
  <advance width="480"/>
  <unicode hex="0069"/>
  <outline>
    <component base="lc_xheight_stem" xOffset="6"/>
    <contour>
      <point x="124" y="1362" type="line"/>
      <point x="361" y="1362" type="line"/>
      <point x="361" y="1598" type="line"/>
      <point x="124" y="1598" type="line"/>
    </contour>
  </outline>
</glyph>
<glyph name="j" format="1">
  <advance width="480"/>
  <unicode hex="006A"/>
  <outline>
    <contour>
      <point x="-39.0" y="-281.0" type="line"/>
      <point x="-8.0" y="-293.0"/>
      <point x="40.0" y="-296.0"/>
      <point x="80.0" y="-296.0" type="curve" smooth="yes"/>
      <point x="262.0" y="-296.0"/>
      <point x="374.0" y="-190.0"/>
      <point x="374.0" y="-6.0" type="curve" smooth="yes"/>
      <point x="374.0" y="54.0" type="line"/>
      <point x="138.0" y="54.0" type="line"/>
      <point x="138.0" y="19.0" type="line" smooth="yes"/>
      <point x="138.0" y="-64.0"/>
      <point x="106.0" y="-118.0"/>
      <point x="20.0" y="-118.0" type="curve" smooth="yes"/>
      <point x="3.0" y="-118.0"/>
      <point x="-25.0" y="-115.0"/>
      <point x="-39.0" y="-112.0" type="curve"/>
    </contour>
    <contour>
      <point x="138.0" y="1362.0" type="line"/>
      <point x="376.0" y="1362.0" type="line"/>
      <point x="376.0" y="1598.0" type="line"/>
      <point x="138.0" y="1598.0" type="line"/>
    </contour>
    <component base="lc_xheight_stem" xOffset="20"/>
  </outline>
</glyph>
<glyph name="k" format="1">
  <advance width="892"/>
  <unicode hex="006B"/>
  <outline>
    <component base="lc_ascender_stem" xOffset="6" yOffset="3"/>
    <contour>
      <point x="650" y="0" type="line"/>
      <point x="891" y="0" type="line"/>
      <point x="627" y="719" type="line"/>
      <point x="898" y="1184" type="line"/>
      <point x="654" y="1184" type="line"/>
      <point x="225" y="483" type="line"/>
      <point x="225" y="263" type="line"/>
      <point x="446" y="578" type="line"/>
    </contour>
  </outline>
</glyph>
<glyph name="l" format="1">
  <advance width="483"/>
  <unicode hex="006C"/>
  <outline>
    <contour>
      <point x="130.0" y="0.0" type="line"/>
      <point x="367.0" y="0.0" type="line"/>
      <point x="367.0" y="1658.0" type="line"/>
      <point x="130.0" y="1658.0" type="line"/>
    </contour>
  </outline>
</glyph>
<glyph name="r" format="1">
  <advance width="656"/>
  <unicode hex="0072"/>
  <outline>
    <component base="lc_xheight_stem" xOffset="-4"/>
    <contour>
      <point x="241" y="620" type="line"/>
      <point x="354" y="915"/>
      <point x="418" y="961"/>
      <point x="516" y="961" type="curve" smooth="yes"/>
      <point x="562" y="961"/>
      <point x="612" y="949"/>
      <point x="647" y="935" type="curve"/>
      <point x="647" y="1197" type="line"/>
      <point x="630" y="1199"/>
      <point x="621" y="1200"/>
      <point x="609" y="1200" type="curve" smooth="yes"/>
      <point x="487" y="1200"/>
      <point x="378" y="1129"/>
      <point x="241" y="786" type="curve"/>
    </contour>
  </outline>
</glyph>
<glyph name="s" format="1">
  <advance width="738"/>
  <unicode hex="0073"/>
  <outline>
    <contour>
      <point x="380" y="-17" type="curve" smooth="yes"/>
      <point x="568" y="-17"/>
      <point x="708" y="83"/>
      <point x="708" y="290" type="curve" smooth="yes"/>
      <point x="708" y="439"/>
      <point x="632" y="531"/>
      <point x="549" y="605" type="curve" smooth="yes"/>
      <point x="323" y="807" type="line" smooth="yes"/>
      <point x="289.217" y="837.07"/>
      <point x="273.627" y="874.996"/>
      <point x="273.005" y="910.801" type="curve" smooth="yes"/>
      <point x="271.951" y="971.443"/>
      <point x="313.836" y="1026"/>
      <point x="383" y="1026" type="curve" smooth="yes"/>
      <point x="473" y="1026"/>
      <point x="510" y="942"/>
      <point x="528" y="829" type="curve"/>
      <point x="686" y="888" type="line"/>
      <point x="670" y="1057"/>
      <point x="569" y="1200"/>
      <point x="380" y="1200" type="curve" smooth="yes"/>
      <point x="192" y="1200"/>
      <point x="75" y="1092"/>
      <point x="69" y="902" type="curve" smooth="yes"/>
      <point x="65" y="762"/>
      <point x="134" y="681"/>
      <point x="211" y="615" type="curve" smooth="yes"/>
      <point x="423" y="433" type="line" smooth="yes"/>
      <point x="477.6" y="386.085"/>
      <point x="503.247" y="332.136"/>
      <point x="506.359" y="284.517" type="curve" smooth="yes"/>
      <point x="510.941" y="214.396"/>
      <point x="466.658" y="158"/>
      <point x="394" y="158" type="curve" smooth="yes"/>
      <point x="304" y="158"/>
      <point x="257" y="231"/>
      <point x="239" y="375" type="curve"/>
      <point x="63" y="316" type="line"/>
      <point x="88" y="137"/>
      <point x="194" y="-17"/>
    </contour>
  </outline>
</glyph>
<glyph name="v" format="1">
  <advance width="797"/>
  <unicode hex="0076"/>
  <outline>
    <contour>
      <point x="258" y="0" type="line"/>
      <point x="549" y="0" type="line"/>
      <point x="767" y="1184" type="line"/>
      <point x="537" y="1184" type="line"/>
      <point x="401" y="245" type="line"/>
      <point x="267" y="1184" type="line"/>
      <point x="30" y="1184" type="line"/>
    </contour>
  </outline>
</glyph>
<glyph name="w" format="1">
  <advance width="1191"/>
  <unicode hex="0077"/>
  <outline>
    <contour>
      <point x="221.0" y="0.0" type="line"/>
      <point x="472.0" y="0.0" type="line"/>
      <point x="596.0" y="853.0" type="line"/>
      <point x="720.0" y="0.0" type="line"/>
      <point x="973.0" y="0.0" type="line"/>
      <point x="1149.0" y="1184.0" type="line"/>
      <point x="943.0" y="1184.0" type="line"/>
      <point x="823.0" y="264.0" type="line"/>
      <point x="707.0" y="1184.0" type="line"/>
      <point x="483.0" y="1184.0" type="line"/>
      <point x="364.0" y="261.0" type="line"/>
      <point x="248.0" y="1184.0" type="line"/>
      <point x="42.0" y="1184.0" type="line"/>
    </contour>
  </outline>
</glyph>
<glyph name="x" format="1">
  <advance width="800"/>
  <unicode hex="0078"/>
  <outline>
    <contour>
      <point x="16.0" y="0.0" type="line"/>
      <point x="238.0" y="0.0" type="line"/>
      <point x="421.0" y="477.0" type="line"/>
      <point x="497.0" y="551.0" type="line"/>
      <point x="784.0" y="1184.0" type="line"/>
      <point x="553.0" y="1184.0" type="line"/>
      <point x="387.0" y="766.0" type="line"/>
      <point x="305.0" y="690.0" type="line"/>
    </contour>
    <contour>
      <point x="564.0" y="0.0" type="line"/>
      <point x="789.0" y="0.0" type="line"/>
      <point x="244.0" y="1184.0" type="line"/>
      <point x="18.0" y="1184.0" type="line"/>
    </contour>
  </outline>
</glyph>
<glyph name="y" format="1">
  <advance width="798"/>
  <unicode hex="0079"/>
  <outline>
    <contour>
      <point x="95.0" y="-296.0" type="line"/>
      <point x="119.0" y="-296.0" type="line" smooth="yes"/>
      <point x="337.0" y="-296.0"/>
      <point x="467.0" y="-238.0"/>
      <point x="507.0" y="-60.0" type="curve" smooth="yes"/>
      <point x="790.0" y="1184.0" type="line"/>
      <point x="550.0" y="1184.0" type="line"/>
      <point x="407.0" y="330.0" type="line"/>
      <point x="260.0" y="1184.0" type="line"/>
      <point x="20.0" y="1184.0" type="line"/>
      <point x="223.8" y="322.854" type="line"/>
      <point x="295.0" y="22.0" type="line" smooth="yes"/>
      <point x="323.0" y="-95.0"/>
      <point x="284.0" y="-118.0"/>
      <point x="95.0" y="-118.0" type="curve"/>
    </contour>
  </outline>
</glyph>
<glyph name="z" format="1">
  <advance width="690"/>
  <unicode hex="007A"/>
  <outline>
    <contour>
      <point x="56" y="0" type="line"/>
      <point x="645" y="0" type="line"/>
      <point x="645" y="178" type="line"/>
      <point x="310" y="178" type="line"/>
      <point x="663" y="1057" type="line"/>
      <point x="663" y="1184" type="line"/>
      <point x="104" y="1184" type="line"/>
      <point x="104" y="1007" type="line"/>
      <point x="409" y="1007" type="line"/>
      <point x="56" y="158" type="line"/>
    </contour>
  </outline>
</glyph>
<glyph name="braceleft" format="1">
  <advance width="651"/>
  <unicode hex="007B"/>
  <outline>
    <contour>
      <point x="592" y="-60" type="curve"/>
      <point x="592" y="118" type="line"/>
      <point x="411" y="118"/>
      <point x="414" y="288"/>
      <point x="414" y="473" type="curve" smooth="yes"/>
      <point x="414" y="650"/>
      <point x="356" y="779"/>
      <point x="237" y="829" type="curve"/>
      <point x="375" y="894"/>
      <point x="414" y="1088"/>
      <point x="414" y="1302" type="curve" smooth="yes"/>
      <point x="414" y="1474"/>
      <point x="423" y="1540"/>
      <point x="592" y="1540" type="curve"/>
      <point x="592" y="1717" type="line"/>
      <point x="276" y="1717"/>
      <point x="178" y="1617"/>
      <point x="178" y="1302" type="curve" smooth="yes"/>
      <point x="178" y="1155"/>
      <point x="195" y="947"/>
      <point x="60" y="947" type="curve"/>
      <point x="60" y="711" type="line"/>
      <point x="192" y="711"/>
      <point x="178" y="610"/>
      <point x="178" y="473" type="curve" smooth="yes"/>
      <point x="178" y="132"/>
      <point x="260" y="-60"/>
    </contour>
  </outline>
</glyph>
<glyph name="braceright" format="1">
  <advance width="685"/>
  <unicode hex="007D"/>
  <outline>
    <contour>
      <point x="96.0" y="-406.0" type="line"/>
      <point x="458.0" y="-406.0"/>
      <point x="483.0" y="-358.0"/>
      <point x="483.0" y="7.0" type="curve" smooth="yes"/>
      <point x="483.0" y="301.0" type="line" smooth="yes"/>
      <point x="483.0" y="525.0"/>
      <point x="502.0" y="554.0"/>
      <point x="602.0" y="554.0" type="curve"/>
      <point x="602.0" y="714.0" type="line"/>
      <point x="502.0" y="714.0"/>
      <point x="483.0" y="743.0"/>
      <point x="483.0" y="967.0" type="curve" smooth="yes"/>
      <point x="483.0" y="1261.0" type="line" smooth="yes"/>
      <point x="483.0" y="1626.0"/>
      <point x="458.0" y="1674.0"/>
      <point x="96.0" y="1674.0" type="curve"/>
      <point x="96.0" y="1499.0" type="line"/>
      <point x="233.0" y="1499.0"/>
      <point x="233.0" y="1474.0"/>
      <point x="233.0" y="1261.0" type="curve" smooth="yes"/>
      <point x="233.0" y="935.0" type="line" smooth="yes"/>
      <point x="233.0" y="730.0"/>
      <point x="291.0" y="653.0"/>
      <point x="374.0" y="634.0" type="curve" smooth="yes"/>
      <point x="291.0" y="615.0"/>
      <point x="233.0" y="538.0"/>
      <point x="233.0" y="333.0" type="curve" smooth="yes"/>
      <point x="233.0" y="7.0" type="line" smooth="yes"/>
      <point x="233.0" y="-206.0"/>
      <point x="233.0" y="-231.0"/>
      <point x="96.0" y="-231.0" type="curve"/>
    </contour>
  </outline>
</glyph>
<glyph name="asciitilde" format="1">
  <advance width="887"/>
  <unicode hex="007E"/>
  <outline>
    <contour>
      <point x="567.0" y="751.0" type="curve" smooth="yes"/>
      <point x="705.0" y="751.0"/>
      <point x="770.0" y="870.0"/>
      <point x="770.0" y="1007.0" type="curve"/>
      <point x="628.0" y="1007.0" type="line"/>
      <point x="628.0" y="968.0"/>
      <point x="615.0" y="943.0"/>
      <point x="581.0" y="943.0" type="curve" smooth="yes"/>
      <point x="487.0" y="943.0"/>
      <point x="426.0" y="1022.0"/>
      <point x="321.0" y="1022.0" type="curve" smooth="yes"/>
      <point x="185.0" y="1022.0"/>
      <point x="117.0" y="903.0"/>
      <point x="117.0" y="769.0" type="curve"/>
      <point x="260.0" y="769.0" type="line"/>
      <point x="260.0" y="808.0"/>
      <point x="270.0" y="832.0"/>
      <point x="304.0" y="832.0" type="curve" smooth="yes"/>
      <point x="396.0" y="832.0"/>
      <point x="461.0" y="751.0"/>
    </contour>
  </outline>
</glyph>
<glyph name="exclamdown" format="1">
  <advance width="354"/>
  <unicode hex="00A1"/>
  <outline>
    <contour>
      <point x="60.0" y="0.0" type="line"/>
      <point x="237.0" y="0.0" type="line"/>
      <point x="237.0" y="1066.0" type="line"/>
      <point x="118.0" y="1066.0" type="line"/>
    </contour>
    <contour>
      <point x="60.0" y="1184.0" type="line"/>
      <point x="296.0" y="1184.0" type="line"/>
      <point x="296.0" y="1421.0" type="line"/>
      <point x="60.0" y="1421.0" type="line"/>
    </contour>
  </outline>
</glyph>
<glyph name="cent" format="1">
  <advance width="797"/>
  <unicode hex="00A2"/>
  <outline>
    <contour>
      <point x="368.0" y="-151.0" type="line"/>
      <point x="440.0" y="-151.0" type="line"/>
      <point x="440.0" y="76.0" type="line"/>
      <point x="368.0" y="76.0" type="line"/>
    </contour>
    <contour>
      <point x="368.0" y="1117.0" type="line"/>
      <point x="440.0" y="1117.0" type="line"/>
      <point x="440.0" y="1333.0" type="line"/>
      <point x="368.0" y="1333.0" type="line"/>
    </contour>
    <component base="c"/>
  </outline>
</glyph>
<glyph name="currency" format="1">
  <advance width="947"/>
  <unicode hex="00A4"/>
  <outline>
    <contour>
      <point x="181.0" y="452.0" type="line"/>
      <point x="260.0" y="532.0" type="line"/>
      <point x="316.0" y="496.0"/>
      <point x="382.0" y="473.0"/>
      <point x="473.0" y="473.0" type="curve" smooth="yes"/>
      <point x="564.0" y="473.0"/>
      <point x="632.0" y="496.0"/>
      <point x="688.0" y="532.0" type="curve"/>
      <point x="767.0" y="452.0" type="line"/>
      <point x="850.0" y="536.0" type="line"/>
      <point x="769.0" y="615.0" type="line"/>
      <point x="805.0" y="672.0"/>
      <point x="829.0" y="743.0"/>
      <point x="829.0" y="830.0" type="curve" smooth="yes"/>
      <point x="829.0" y="916.0"/>
      <point x="805.0" y="986.0"/>
      <point x="769.0" y="1042.0" type="curve"/>
      <point x="850.0" y="1122.0" type="line"/>
      <point x="767.0" y="1205.0" type="line"/>
      <point x="688.0" y="1126.0" type="line"/>
      <point x="632.0" y="1162.0"/>
      <point x="564.0" y="1184.0"/>
      <point x="473.0" y="1184.0" type="curve" smooth="yes"/>
      <point x="382.0" y="1184.0"/>
      <point x="316.0" y="1162.0"/>
      <point x="260.0" y="1126.0" type="curve"/>
      <point x="181.0" y="1205.0" type="line"/>
      <point x="97.0" y="1122.0" type="line"/>
      <point x="177.0" y="1043.0" type="line"/>
      <point x="141.0" y="987.0"/>
      <point x="118.0" y="916.0"/>
      <point x="118.0" y="830.0" type="curve" smooth="yes"/>
      <point x="118.0" y="743.0"/>
      <point x="140.0" y="672.0"/>
      <point x="177.0" y="615.0" type="curve"/>
      <point x="97.0" y="536.0" type="line"/>
    </contour>
    <contour>
      <point x="473.0" y="631.0" type="curve" smooth="yes"/>
      <point x="357.0" y="631.0"/>
      <point x="296.0" y="715.0"/>
      <point x="296.0" y="830.0" type="curve" smooth="yes"/>
      <point x="296.0" y="945.0"/>
      <point x="357.0" y="1027.0"/>
      <point x="473.0" y="1027.0" type="curve" smooth="yes"/>
      <point x="589.0" y="1027.0"/>
      <point x="651.0" y="944.0"/>
      <point x="651.0" y="829.0" type="curve" smooth="yes"/>
      <point x="651.0" y="714.0"/>
      <point x="589.0" y="631.0"/>
    </contour>
  </outline>
</glyph>
<glyph name="yen" format="1">
  <advance width="947"/>
  <unicode hex="00A5"/>
  <outline>
    <component base="Y"/>
    <contour>
      <point x="791" y="237" type="line"/>
      <point x="791" y="392" type="line"/>
      <point x="534" y="392" type="line"/>
      <point x="534" y="512" type="line"/>
      <point x="791" y="512" type="line"/>
      <point x="791" y="665" type="line"/>
      <point x="200" y="665" type="line"/>
      <point x="200" y="512" type="line"/>
      <point x="457" y="512" type="line"/>
      <point x="457" y="392" type="line"/>
      <point x="200" y="392" type="line"/>
      <point x="200" y="237" type="line"/>
    </contour>
  </outline>
</glyph>
<glyph name="brokenbar" format="1">
  <advance width="364"/>
  <unicode hex="00A6"/>
  <outline>
    <contour>
      <point x="87" y="-13" type="line"/>
      <point x="275" y="-13" type="line"/>
      <point x="275" y="568" type="line"/>
      <point x="87" y="568" type="line"/>
    </contour>
    <contour>
      <point x="87" y="823" type="line"/>
      <point x="275" y="823" type="line"/>
      <point x="275" y="1404" type="line"/>
      <point x="87" y="1404" type="line"/>
    </contour>
  </outline>
</glyph>
<glyph name="section" format="1">
  <advance width="887"/>
  <unicode hex="00A7"/>
  <outline>
    <contour>
      <point x="444.0" y="-16.0" type="curve" smooth="yes"/>
      <point x="654.0" y="-16.0"/>
      <point x="800.0" y="90.0"/>
      <point x="800.0" y="297.0" type="curve" smooth="yes"/>
      <point x="800.0" y="416.0"/>
      <point x="728.0" y="490.0"/>
      <point x="653.0" y="551.0" type="curve"/>
      <point x="740.0" y="601.0"/>
      <point x="800.0" y="688.0"/>
      <point x="800.0" y="816.0" type="curve" smooth="yes"/>
      <point x="800.0" y="1057.0"/>
      <point x="563.0" y="1164.0"/>
      <point x="385.0" y="1262.0" type="curve"/>
      <point x="359.0" y="1281.0"/>
      <point x="326.0" y="1316.0"/>
      <point x="326.0" y="1362.0" type="curve" smooth="yes"/>
      <point x="326.0" y="1438.0"/>
      <point x="369.0" y="1480.0"/>
      <point x="444.0" y="1480.0" type="curve" smooth="yes"/>
      <point x="546.0" y="1480.0"/>
      <point x="594.0" y="1377.0"/>
      <point x="622.0" y="1302.0" type="curve"/>
      <point x="800.0" y="1362.0" type="line"/>
      <point x="761.0" y="1531.0"/>
      <point x="655.0" y="1674.0"/>
      <point x="444.0" y="1674.0" type="curve" smooth="yes"/>
      <point x="234.0" y="1674.0"/>
      <point x="89.0" y="1569.0"/>
      <point x="89.0" y="1362.0" type="curve" smooth="yes"/>
      <point x="89.0" y="1240.0"/>
      <point x="176.0" y="1183.0"/>
      <point x="260.0" y="1134.0" type="curve"/>
      <point x="156.0" y="1088.0"/>
      <point x="89.0" y="996.0"/>
      <point x="89.0" y="856.0" type="curve" smooth="yes"/>
      <point x="89.0" y="709.0"/>
      <point x="169.0" y="637.0"/>
      <point x="267.0" y="578.0" type="curve" smooth="yes"/>
      <point x="503.0" y="434.0" type="line" smooth="yes"/>
      <point x="538.0" y="413.0"/>
      <point x="562.0" y="358.0"/>
      <point x="562.0" y="297.0" type="curve" smooth="yes"/>
      <point x="562.0" y="221.0"/>
      <point x="519.0" y="179.0"/>
      <point x="444.0" y="179.0" type="curve" smooth="yes"/>
      <point x="345.0" y="179.0"/>
      <point x="294.0" y="281.0"/>
      <point x="267.0" y="356.0" type="curve"/>
      <point x="89.0" y="297.0" type="line"/>
      <point x="128.0" y="129.0"/>
      <point x="235.0" y="-16.0"/>
    </contour>
    <contour>
      <point x="473.0" y="698.0" type="curve"/>
      <point x="385.0" y="756.0" type="line"/>
      <point x="357.0" y="773.0"/>
      <point x="326.0" y="811.0"/>
      <point x="326.0" y="856.0" type="curve" smooth="yes"/>
      <point x="326.0" y="926.0"/>
      <point x="371.0" y="967.0"/>
      <point x="414.0" y="993.0" type="curve"/>
      <point x="461.0" y="956.0"/>
      <point x="562.0" y="894.0"/>
      <point x="562.0" y="816.0" type="curve" smooth="yes"/>
      <point x="562.0" y="751.0"/>
      <point x="516.0" y="718.0"/>
    </contour>
  </outline>
</glyph>
<glyph name="copyright" format="1">
  <advance width="1413"/>
  <unicode hex="00A9"/>
  <outline>
    <contour>
      <point x="711.0" y="201.0" type="curve" smooth="yes"/>
      <point x="897.0" y="201.0"/>
      <point x="974.0" y="338.0"/>
      <point x="974.0" y="520.0" type="curve" smooth="yes"/>
      <point x="974.0" y="535.0" type="line"/>
      <point x="809.0" y="535.0" type="line"/>
      <point x="809.0" y="442.0"/>
      <point x="803.0" y="337.0"/>
      <point x="711.0" y="337.0" type="curve" smooth="yes"/>
      <point x="584.0" y="337.0"/>
      <point x="606.0" y="533.0"/>
      <point x="606.0" y="667.0" type="curve" smooth="yes"/>
      <point x="606.0" y="810.0"/>
      <point x="586.0" y="958.0"/>
      <point x="718.0" y="958.0" type="curve" smooth="yes"/>
      <point x="800.0" y="958.0"/>
      <point x="807.0" y="861.0"/>
      <point x="807.0" y="777.0" type="curve"/>
      <point x="976.0" y="777.0" type="line"/>
      <point x="976.0" y="965.0"/>
      <point x="907.0" y="1091.0"/>
      <point x="716.0" y="1091.0" type="curve" smooth="yes"/>
      <point x="474.0" y="1091.0"/>
      <point x="439.0" y="909.0"/>
      <point x="439.0" y="668.0" type="curve" smooth="yes"/>
      <point x="439.0" y="412.0"/>
      <point x="455.0" y="201.0"/>
    </contour>
    <contour>
      <point x="707.0" y="123.0" type="curve" smooth="yes"/>
      <point x="420.0" y="123.0"/>
      <point x="224.0" y="355.0"/>
      <point x="224.0" y="644.0" type="curve" smooth="yes"/>
      <point x="224.0" y="935.0"/>
      <point x="416.0" y="1166.0"/>
      <point x="707.0" y="1166.0" type="curve" smooth="yes"/>
      <point x="996.0" y="1166.0"/>
      <point x="1189.0" y="936.0"/>
      <point x="1189.0" y="644.0" type="curve" smooth="yes"/>
      <point x="1189.0" y="355.0"/>
      <point x="995.0" y="123.0"/>
    </contour>
    <contour>
      <point x="707.0" y="-13.0" type="curve" smooth="yes"/>
      <point x="1082.0" y="-13.0"/>
      <point x="1349.0" y="271.0"/>
      <point x="1349.0" y="647.0" type="curve" smooth="yes"/>
      <point x="1349.0" y="1023.0"/>
      <point x="1083.0" y="1309.0"/>
      <point x="707.0" y="1309.0" type="curve" smooth="yes"/>
      <point x="331.0" y="1309.0"/>
      <point x="65.0" y="1024.0"/>
      <point x="65.0" y="647.0" type="curve" smooth="yes"/>
      <point x="65.0" y="272.0"/>
      <point x="331.0" y="-13.0"/>
    </contour>
  </outline>
</glyph>
<glyph name="ordfeminine" format="1">
  <advance width="778"/>
  <unicode hex="00AA"/>
  <outline>
    <contour>
      <point x="279" y="-9" type="curve" smooth="yes"/>
      <point x="362" y="-9"/>
      <point x="429" y="40"/>
      <point x="463" y="103" type="curve"/>
      <point x="463" y="0" type="line"/>
      <point x="627" y="0" type="line"/>
      <point x="627" y="482" type="line" smooth="yes"/>
      <point x="627" y="681"/>
      <point x="581" y="799"/>
      <point x="382" y="799" type="curve" smooth="yes"/>
      <point x="221" y="799"/>
      <point x="133" y="686"/>
      <point x="130" y="525" type="curve"/>
      <point x="295" y="525" type="line"/>
      <point x="295" y="598"/>
      <point x="311" y="665"/>
      <point x="379" y="665" type="curve" smooth="yes"/>
      <point x="438" y="665"/>
      <point x="448" y="602"/>
      <point x="448" y="536" type="curve" smooth="yes"/>
      <point x="448" y="449" type="line"/>
      <point x="297" y="403"/>
      <point x="100" y="360"/>
      <point x="100" y="170" type="curve" smooth="yes"/>
      <point x="100" y="67"/>
      <point x="176" y="-9"/>
    </contour>
    <contour>
      <point x="346" y="133" type="curve" smooth="yes"/>
      <point x="304" y="133"/>
      <point x="281" y="163"/>
      <point x="281" y="211" type="curve" smooth="yes"/>
      <point x="281" y="294"/>
      <point x="374" y="339"/>
      <point x="448" y="378" type="curve"/>
      <point x="448" y="203" type="line"/>
      <point x="431" y="168"/>
      <point x="392" y="133"/>
    </contour>
  </outline>
</glyph>
<glyph name="guillemotleft" format="1">
  <advance width="947"/>
  <unicode hex="00AB"/>
  <outline>
    <contour>
      <point x="393.0" y="60.0" type="line"/>
      <point x="393.0" y="355.0" type="line"/>
      <point x="237.0" y="593.0" type="line"/>
      <point x="393.0" y="829.0" type="line"/>
      <point x="393.0" y="1125.0" type="line"/>
      <point x="60.0" y="651.0" type="line"/>
      <point x="60.0" y="533.0" type="line"/>
    </contour>
    <contour>
      <point x="808.0" y="60.0" type="line"/>
      <point x="808.0" y="355.0" type="line"/>
      <point x="651.0" y="593.0" type="line"/>
      <point x="808.0" y="829.0" type="line"/>
      <point x="808.0" y="1125.0" type="line"/>
      <point x="473.0" y="651.0" type="line"/>
      <point x="473.0" y="533.0" type="line"/>
    </contour>
  </outline>
</glyph>
<glyph name="logicalnot" format="1">
  <advance width="709"/>
  <unicode hex="00AC"/>
  <outline>
    <contour>
      <point x="473.0" y="237.0" type="line"/>
      <point x="592.0" y="237.0" type="line"/>
      <point x="592.0" y="592.0" type="line"/>
      <point x="118.0" y="592.0" type="line"/>
      <point x="118.0" y="414.0" type="line"/>
      <point x="473.0" y="414.0" type="line"/>
    </contour>
  </outline>
</glyph>
<glyph name="uni00AD" format="1">
  <advance width="709"/>
  <unicode hex="00AD"/>
  <outline>
    <contour>
      <point x="118" y="682" type="line"/>
      <point x="592" y="682" type="line"/>
      <point x="592" y="860" type="line"/>
      <point x="118" y="860" type="line"/>
    </contour>
  </outline>
</glyph>
<glyph name="registered" format="1">
  <advance width="1824.0"/>
  <unicode hex="00AE"/>
  <outline>
    <contour>
      <point x="594" y="305" type="line"/>
      <point x="800" y="305" type="line"/>
      <point x="800" y="751" type="line"/>
      <point x="908" y="751" type="line"/>
      <point x="1076" y="305" type="line"/>
      <point x="1291" y="305" type="line"/>
      <point x="1097" y="793" type="line"/>
      <point x="1197" y="841"/>
      <point x="1267" y="913"/>
      <point x="1267" y="1050" type="curve" smooth="yes"/>
      <point x="1267" y="1259"/>
      <point x="1156" y="1366"/>
      <point x="911" y="1366" type="curve" smooth="yes"/>
      <point x="594" y="1366" type="line"/>
    </contour>
    <contour>
      <point x="800" y="861" type="line"/>
      <point x="800" y="1230" type="line"/>
      <point x="894" y="1230" type="line" smooth="yes"/>
      <point x="1014" y="1230"/>
      <point x="1056" y="1167"/>
      <point x="1056" y="1055" type="curve" smooth="yes"/>
      <point x="1056" y="907"/>
      <point x="1009" y="861"/>
      <point x="843" y="861" type="curve" smooth="yes"/>
    </contour>
    <contour>
      <point x="912.0" y="81.0" type="curve" smooth="yes"/>
      <point x="430.0" y="81.0"/>
      <point x="221.0" y="454.0"/>
      <point x="221.0" y="827.0" type="curve" smooth="yes"/>
      <point x="221.0" y="1202.0"/>
      <point x="430.0" y="1571.0"/>
      <point x="912.0" y="1571.0" type="curve" smooth="yes"/>
      <point x="1390.0" y="1571.0"/>
      <point x="1600.0" y="1202.0"/>
      <point x="1600.0" y="827.0" type="curve" smooth="yes"/>
      <point x="1600.0" y="454.0"/>
      <point x="1390.0" y="81.0"/>
    </contour>
    <contour>
      <point x="913.0" y="-28.0" type="curve" smooth="yes"/>
      <point x="1493.0" y="-28.0"/>
      <point x="1726.0" y="415.0"/>
      <point x="1726.0" y="828.0" type="curve" smooth="yes"/>
      <point x="1726.0" y="1241.0"/>
      <point x="1491.0" y="1684.0"/>
      <point x="913.0" y="1684.0" type="curve" smooth="yes"/>
      <point x="333.0" y="1684.0"/>
      <point x="98.0" y="1241.0"/>
      <point x="98.0" y="828.0" type="curve" smooth="yes"/>
      <point x="98.0" y="417.0"/>
      <point x="333.0" y="-28.0"/>
    </contour>
  </outline>
</glyph>
<glyph name="macron" format="1">
  <advance width="591"/>
  <unicode hex="00AF"/>
  <outline>
    <contour>
      <point x="114.0" y="1301.0" type="line"/>
      <point x="515.0" y="1301.0" type="line"/>
      <point x="515.0" y="1442.0" type="line"/>
      <point x="114.0" y="1442.0" type="line"/>
    </contour>
  </outline>
</glyph>
<glyph name="degree" format="1">
  <advance width="947"/>
  <unicode hex="00B0"/>
  <outline>
    <contour>
      <point x="473.0" y="1121.0" type="curve" smooth="yes"/>
      <point x="357.0" y="1121.0"/>
      <point x="296.0" y="1205.0"/>
      <point x="296.0" y="1320.0" type="curve" smooth="yes"/>
      <point x="296.0" y="1435.0"/>
      <point x="357.0" y="1517.0"/>
      <point x="473.0" y="1517.0" type="curve" smooth="yes"/>
      <point x="589.0" y="1517.0"/>
      <point x="651.0" y="1435.0"/>
      <point x="651.0" y="1320.0" type="curve" smooth="yes"/>
      <point x="651.0" y="1205.0"/>
      <point x="589.0" y="1121.0"/>
    </contour>
    <contour>
      <point x="473.0" y="964.0" type="curve" smooth="yes"/>
      <point x="696.0" y="964.0"/>
      <point x="829.0" y="1101.0"/>
      <point x="829.0" y="1320.0" type="curve" smooth="yes"/>
      <point x="829.0" y="1538.0"/>
      <point x="696.0" y="1674.0"/>
      <point x="473.0" y="1674.0" type="curve" smooth="yes"/>
      <point x="251.0" y="1674.0"/>
      <point x="118.0" y="1539.0"/>
      <point x="118.0" y="1320.0" type="curve" smooth="yes"/>
      <point x="118.0" y="1101.0"/>
      <point x="249.0" y="964.0"/>
    </contour>
  </outline>
</glyph>
<glyph name="plusminus" format="1">
  <advance width="769"/>
  <unicode hex="00B1"/>
  <outline>
    <contour>
      <point x="296.0" y="355.0" type="line"/>
      <point x="473.0" y="355.0" type="line"/>
      <point x="473.0" y="533.0" type="line"/>
      <point x="651.0" y="533.0" type="line"/>
      <point x="651.0" y="711.0" type="line"/>
      <point x="473.0" y="711.0" type="line"/>
      <point x="473.0" y="888.0" type="line"/>
      <point x="296.0" y="888.0" type="line"/>
      <point x="296.0" y="711.0" type="line"/>
      <point x="118.0" y="711.0" type="line"/>
      <point x="118.0" y="533.0" type="line"/>
      <point x="296.0" y="533.0" type="line"/>
    </contour>
    <contour>
      <point x="118.0" y="0.0" type="line"/>
      <point x="651.0" y="0.0" type="line"/>
      <point x="651.0" y="178.0" type="line"/>
      <point x="118.0" y="178.0" type="line"/>
    </contour>
  </outline>
</glyph>
<glyph name="uni00B2" format="1">
  <advance width="643"/>
  <unicode hex="00B2"/>
  <outline>
    <contour>
      <point x="87.0" y="821.0" type="line"/>
      <point x="560.0" y="821.0" type="line"/>
      <point x="560.0" y="939.0" type="line"/>
      <point x="264.0" y="939.0" type="line"/>
      <point x="359.0" y="1066.0"/>
      <point x="560.0" y="1224.0"/>
      <point x="560.0" y="1413.0" type="curve" smooth="yes"/>
      <point x="560.0" y="1562.0"/>
      <point x="475.0" y="1650.0"/>
      <point x="323.0" y="1650.0" type="curve" smooth="yes"/>
      <point x="171.0" y="1650.0"/>
      <point x="87.0" y="1562.0"/>
      <point x="87.0" y="1413.0" type="curve"/>
      <point x="264.0" y="1413.0" type="line"/>
      <point x="264.0" y="1473.0"/>
      <point x="263.0" y="1531.0"/>
      <point x="323.0" y="1531.0" type="curve" smooth="yes"/>
      <point x="383.0" y="1531.0"/>
      <point x="382.0" y="1473.0"/>
      <point x="382.0" y="1413.0" type="curve" smooth="yes"/>
      <point x="382.0" y="1312.0"/>
      <point x="314.0" y="1242.0"/>
      <point x="264.0" y="1176.0" type="curve" smooth="yes"/>
      <point x="87.0" y="939.0" type="line"/>
    </contour>
  </outline>
</glyph>
<glyph name="acute" format="1">
  <advance width="591"/>
  <unicode hex="00B4"/>
  <outline>
    <contour>
      <point x="118" y="1302" type="line"/>
      <point x="237" y="1302" type="line"/>
      <point x="473" y="1658" type="line"/>
      <point x="237" y="1658" type="line"/>
    </contour>
  </outline>
</glyph>
<glyph name="mu" format="1">
  <advance width="912"/>
  <unicode hex="00B5"/>
  <outline>
    <contour>
      <point x="105.0" y="-234.0" type="line"/>
      <point x="342.0" y="-233.0" type="line"/>
      <point x="342.0" y="0.0" type="line"/>
      <point x="473.0" y="2.0"/>
      <point x="541.0" y="57.0"/>
      <point x="580.0" y="127.0" type="curve"/>
      <point x="580.0" y="0.0" type="line"/>
      <point x="816.0" y="0.0" type="line"/>
      <point x="816.0" y="1184.0" type="line"/>
      <point x="580.0" y="1184.0" type="line"/>
      <point x="580.0" y="247.0" type="line"/>
      <point x="541.0" y="215.0"/>
      <point x="494.0" y="164.0"/>
      <point x="424.0" y="164.0" type="curve" smooth="yes"/>
      <point x="376.0" y="164.0"/>
      <point x="342.0" y="198.0"/>
      <point x="342.0" y="247.0" type="curve" smooth="yes"/>
      <point x="342.0" y="1184.0" type="line"/>
      <point x="105.0" y="1184.0" type="line"/>
    </contour>
  </outline>
</glyph>
<glyph name="paragraph" format="1">
  <advance width="1011"/>
  <unicode hex="00B6"/>
  <outline>
    <contour>
      <point x="406" y="-196" type="line"/>
      <point x="574" y="-196" type="line"/>
      <point x="574" y="1549" type="line"/>
      <point x="717" y="1549" type="line"/>
      <point x="717" y="-196" type="line"/>
      <point x="885" y="-196" type="line"/>
      <point x="885" y="1658" type="line"/>
      <point x="445" y="1658" type="line" smooth="yes"/>
      <point x="216" y="1658"/>
      <point x="68" y="1566"/>
      <point x="68" y="1351" type="curve" smooth="yes"/>
      <point x="68" y="1154"/>
      <point x="209" y="1048"/>
      <point x="406" y="1048" type="curve"/>
    </contour>
  </outline>
</glyph>
<glyph name="periodcentered" format="1">
  <advance width="354"/>
  <unicode hex="00B7"/>
  <outline>
    <contour>
      <point x="60" y="653" type="line"/>
      <point x="296" y="653" type="line"/>
      <point x="296" y="889" type="line"/>
      <point x="60" y="889" type="line"/>
    </contour>
  </outline>
</glyph>
<glyph name="cedilla" format="1">
  <advance width="532"/>
  <unicode hex="00B8"/>
  <outline>
    <contour>
      <point x="60" y="-473" type="line"/>
      <point x="60" y="-473"/>
      <point x="473" y="-463"/>
      <point x="473" y="-296" type="curve" smooth="yes"/>
      <point x="473" y="-190"/>
      <point x="324" y="-142"/>
      <point x="237" y="-118" type="curve"/>
      <point x="237" y="0" type="line"/>
      <point x="118" y="0" type="line"/>
      <point x="118" y="-178" type="line"/>
      <point x="167" y="-196"/>
      <point x="296" y="-234"/>
      <point x="296" y="-296" type="curve" smooth="yes"/>
      <point x="296" y="-375.127"/>
      <point x="144.8" y="-355"/>
      <point x="60" y="-355" type="curve"/>
    </contour>
  </outline>
</glyph>
<glyph name="uni00B9" format="1">
  <advance width="473"/>
  <unicode hex="00B9"/>
  <outline>
    <contour>
      <point x="178.0" y="823.0" type="line"/>
      <point x="355.0" y="823.0" type="line"/>
      <point x="355.0" y="1652.0" type="line"/>
      <point x="266.0" y="1652.0" type="line"/>
      <point x="204.0" y="1575.0"/>
      <point x="155.0" y="1542.0"/>
      <point x="60.0" y="1495.0" type="curve"/>
      <point x="60.0" y="1356.0" type="line"/>
      <point x="178.0" y="1406.0" type="line"/>
    </contour>
  </outline>
</glyph>
<glyph name="ordmasculine" format="1">
  <advance width="830"/>
  <unicode hex="00BA"/>
  <outline>
    <contour>
      <point x="412.0" y="172.0" type="curve" smooth="yes"/>
      <point x="292.0" y="172.0"/>
      <point x="289.0" y="290.0"/>
      <point x="289.0" y="417.0" type="curve" smooth="yes"/>
      <point x="289.0" y="636.0" type="line" smooth="yes"/>
      <point x="289.0" y="763.0"/>
      <point x="292.0" y="880.0"/>
      <point x="412.0" y="880.0" type="curve" smooth="yes"/>
      <point x="535.0" y="880.0"/>
      <point x="531.0" y="765.0"/>
      <point x="531.0" y="636.0" type="curve" smooth="yes"/>
      <point x="531.0" y="417.0" type="line" smooth="yes"/>
      <point x="531.0" y="289.0"/>
      <point x="533.0" y="172.0"/>
    </contour>
    <contour>
      <point x="416.0" y="-13.0" type="curve" smooth="yes"/>
      <point x="647.0" y="-13.0"/>
      <point x="740.0" y="149.0"/>
      <point x="740.0" y="380.0" type="curve" smooth="yes"/>
      <point x="740.0" y="674.0" type="line" smooth="yes"/>
      <point x="740.0" y="905.0"/>
      <point x="647.0" y="1066.0"/>
      <point x="416.0" y="1066.0" type="curve" smooth="yes"/>
      <point x="173.0" y="1066.0"/>
      <point x="92.0" y="916.0"/>
      <point x="92.0" y="674.0" type="curve" smooth="yes"/>
      <point x="92.0" y="380.0" type="line" smooth="yes"/>
      <point x="92.0" y="138.0"/>
      <point x="173.0" y="-13.0"/>
    </contour>
  </outline>
</glyph>
<glyph name="guillemotright" format="1">
  <advance width="1006"/>
  <unicode hex="00BB"/>
  <outline>
    <contour>
      <point x="119.0" y="60.0" type="line"/>
      <point x="474.0" y="533.0" type="line"/>
      <point x="474.0" y="651.0" type="line"/>
      <point x="119.0" y="1125.0" type="line"/>
      <point x="119.0" y="829.0" type="line"/>
      <point x="296.0" y="593.0" type="line"/>
      <point x="119.0" y="355.0" type="line"/>
    </contour>
    <contour>
      <point x="534.0" y="60.0" type="line"/>
      <point x="887.0" y="533.0" type="line"/>
      <point x="887.0" y="651.0" type="line"/>
      <point x="534.0" y="1125.0" type="line"/>
      <point x="534.0" y="829.0" type="line"/>
      <point x="710.0" y="593.0" type="line"/>
      <point x="534.0" y="355.0" type="line"/>
    </contour>
  </outline>
</glyph>
<glyph name="onequarter" format="1">
  <advance width="1559"/>
  <unicode hex="00BC"/>
  <outline>
    <contour>
      <point x="1203" y="-1" type="line"/>
      <point x="1381" y="-1" type="line"/>
      <point x="1381" y="236" type="line"/>
      <point x="1499" y="236" type="line"/>
      <point x="1499" y="354" type="line"/>
      <point x="1381" y="354" type="line"/>
      <point x="1381" y="887" type="line"/>
      <point x="1222" y="887" type="line"/>
      <point x="908" y="354" type="line"/>
      <point x="908" y="236" type="line"/>
      <point x="1203" y="236" type="line"/>
    </contour>
    <contour>
      <point x="182" y="689" type="line"/>
      <point x="359" y="689" type="line"/>
      <point x="359" y="1517" type="line"/>
      <point x="301" y="1517" type="line"/>
      <point x="239" y="1440"/>
      <point x="159" y="1387"/>
      <point x="64" y="1340" type="curve"/>
      <point x="64" y="1221" type="line"/>
      <point x="182" y="1221" type="line"/>
    </contour>
    <contour>
      <point x="379" y="0" type="line"/>
      <point x="615" y="0" type="line"/>
      <point x="1148" y="1658" type="line"/>
      <point x="911" y="1658" type="line"/>
    </contour>
    <contour>
      <point x="1085" y="354" type="line"/>
      <point x="1203" y="591" type="line"/>
      <point x="1203" y="354" type="line"/>
    </contour>
  </outline>
</glyph>
<glyph name="onehalf" format="1">
  <advance width="1584"/>
  <unicode hex="00BD"/>
  <outline>
    <contour>
      <point x="1045" y="3" type="line"/>
      <point x="1519" y="3" type="line"/>
      <point x="1519" y="121" type="line"/>
      <point x="1223" y="121" type="line"/>
      <point x="1318" y="248"/>
      <point x="1519" y="406"/>
      <point x="1519" y="595" type="curve" smooth="yes"/>
      <point x="1519" y="744"/>
      <point x="1434" y="832"/>
      <point x="1282" y="832" type="curve" smooth="yes"/>
      <point x="1130" y="832"/>
      <point x="1045" y="744"/>
      <point x="1045" y="595" type="curve"/>
      <point x="1223" y="595" type="line"/>
      <point x="1223" y="655"/>
      <point x="1222" y="713"/>
      <point x="1282" y="713" type="curve" smooth="yes"/>
      <point x="1342" y="713"/>
      <point x="1342" y="655"/>
      <point x="1342" y="595" type="curve" smooth="yes"/>
      <point x="1342" y="494"/>
      <point x="1273" y="424"/>
      <point x="1223" y="358" type="curve" smooth="yes"/>
      <point x="1045" y="121" type="line"/>
    </contour>
    <contour>
      <point x="180" y="689" type="line"/>
      <point x="357" y="689" type="line"/>
      <point x="357" y="1517" type="line"/>
      <point x="298" y="1517" type="line"/>
      <point x="236" y="1440"/>
      <point x="156" y="1387"/>
      <point x="61" y="1340" type="curve"/>
      <point x="61" y="1221" type="line"/>
      <point x="180" y="1221" type="line"/>
    </contour>
    <contour>
      <point x="402" y="0" type="line"/>
      <point x="638" y="0" type="line"/>
      <point x="1171" y="1658" type="line"/>
      <point x="934" y="1658" type="line"/>
    </contour>
  </outline>
</glyph>
<glyph name="threequarters" format="1">
  <advance width="1667"/>
  <unicode hex="00BE"/>
  <outline>
    <contour>
      <point x="303.0" y="707.0" type="curve" smooth="yes"/>
      <point x="455.0" y="707.0"/>
      <point x="539.0" y="795.0"/>
      <point x="539.0" y="944.0" type="curve" smooth="yes"/>
      <point x="539.0" y="1061.0"/>
      <point x="467.0" y="1114.0"/>
      <point x="361.0" y="1121.0" type="curve"/>
      <point x="467.0" y="1125.0"/>
      <point x="539.0" y="1183.0"/>
      <point x="539.0" y="1298.0" type="curve" smooth="yes"/>
      <point x="539.0" y="1447.0"/>
      <point x="455.0" y="1536.0"/>
      <point x="303.0" y="1536.0" type="curve" smooth="yes"/>
      <point x="151.0" y="1536.0"/>
      <point x="66.0" y="1447.0"/>
      <point x="66.0" y="1298.0" type="curve"/>
      <point x="243.0" y="1298.0" type="line"/>
      <point x="243.0" y="1358.0"/>
      <point x="243.0" y="1417.0"/>
      <point x="303.0" y="1417.0" type="curve" smooth="yes"/>
      <point x="363.0" y="1417.0"/>
      <point x="361.0" y="1358.0"/>
      <point x="361.0" y="1298.0" type="curve" smooth="yes"/>
      <point x="361.0" y="1210.0"/>
      <point x="334.0" y="1180.0"/>
      <point x="243.0" y="1180.0" type="curve"/>
      <point x="243.0" y="1062.0" type="line"/>
      <point x="333.0" y="1062.0"/>
      <point x="361.0" y="1031.0"/>
      <point x="361.0" y="944.0" type="curve" smooth="yes"/>
      <point x="361.0" y="884.0"/>
      <point x="363.0" y="825.0"/>
      <point x="303.0" y="825.0" type="curve" smooth="yes"/>
      <point x="243.0" y="825.0"/>
      <point x="243.0" y="884.0"/>
      <point x="243.0" y="944.0" type="curve"/>
      <point x="66.0" y="944.0" type="line"/>
      <point x="66.0" y="795.0"/>
      <point x="151.0" y="707.0"/>
    </contour>
    <contour>
      <point x="1312.0" y="2.0" type="line"/>
      <point x="1490.0" y="2.0" type="line"/>
      <point x="1490.0" y="238.0" type="line"/>
      <point x="1608.0" y="238.0" type="line"/>
      <point x="1608.0" y="357.0" type="line"/>
      <point x="1490.0" y="357.0" type="line"/>
      <point x="1490.0" y="889.0" type="line"/>
      <point x="1331.0" y="889.0" type="line"/>
      <point x="1017.0" y="357.0" type="line"/>
      <point x="1017.0" y="238.0" type="line"/>
      <point x="1312.0" y="238.0" type="line"/>
    </contour>
    <contour>
      <point x="481.0" y="0.0" type="line"/>
      <point x="717.0" y="0.0" type="line"/>
      <point x="1250.0" y="1658.0" type="line"/>
      <point x="1012.0" y="1658.0" type="line"/>
    </contour>
    <contour>
      <point x="1194.0" y="357.0" type="line"/>
      <point x="1312.0" y="594.0" type="line"/>
      <point x="1312.0" y="357.0" type="line"/>
    </contour>
  </outline>
</glyph>
<glyph name="AE" format="1">
  <advance width="1302"/>
  <unicode hex="00C6"/>
  <outline>
    <contour>
      <point x="-116.0" y="0.0" type="line"/>
      <point x="119.0" y="0.0" type="line"/>
      <point x="296.0" y="414.0" type="line"/>
      <point x="592.0" y="414.0" type="line"/>
      <point x="592.0" y="0.0" type="line"/>
      <point x="1243.0" y="0.0" type="line"/>
      <point x="1243.0" y="178.0" type="line"/>
      <point x="829.0" y="178.0" type="line"/>
      <point x="829.0" y="769.0" type="line"/>
      <point x="1125.0" y="769.0" type="line"/>
      <point x="1125.0" y="947.0" type="line"/>
      <point x="829.0" y="947.0" type="line"/>
      <point x="829.0" y="1480.0" type="line"/>
      <point x="1243.0" y="1480.0" type="line"/>
      <point x="1243.0" y="1658.0" type="line"/>
      <point x="591.0" y="1658.0" type="line"/>
    </contour>
    <contour>
      <point x="363.0" y="592.0" type="line"/>
      <point x="592.0" y="1200.0" type="line"/>
      <point x="592.0" y="592.0" type="line"/>
    </contour>
  </outline>
</glyph>
<glyph name="Eth" format="1">
  <advance width="1047"/>
  <unicode hex="00D0"/>
  <outline>
    <component base="D"/>
    <contour>
      <point x="31" y="788" type="line"/>
      <point x="489" y="788" type="line"/>
      <point x="489" y="929" type="line"/>
      <point x="31" y="929" type="line"/>
    </contour>
  </outline>
</glyph>
<glyph name="multiply" format="1">
  <advance width="709"/>
  <unicode hex="00D7"/>
  <outline>
    <contour>
      <point x="178.0" y="296.0" type="line"/>
      <point x="355.0" y="473.0" type="line"/>
      <point x="533.0" y="296.0" type="line"/>
      <point x="651.0" y="414.0" type="line"/>
      <point x="473.0" y="592.0" type="line"/>
      <point x="651.0" y="769.0" type="line"/>
      <point x="533.0" y="888.0" type="line"/>
      <point x="355.0" y="711.0" type="line"/>
      <point x="178.0" y="888.0" type="line"/>
      <point x="60.0" y="769.0" type="line"/>
      <point x="237.0" y="592.0" type="line"/>
      <point x="60.0" y="414.0" type="line"/>
    </contour>
  </outline>
</glyph>
<glyph name="Oslash" format="1">
  <advance width="1091"/>
  <unicode hex="00D8"/>
  <outline>
    <contour>
      <point x="337" y="-144" type="line"/>
      <point x="377" y="6" type="line"/>
      <point x="426" y="-9"/>
      <point x="482" y="-17"/>
      <point x="546" y="-17" type="curve" smooth="yes"/>
      <point x="883" y="-17"/>
      <point x="1003" y="200"/>
      <point x="1003" y="533" type="curve" smooth="yes"/>
      <point x="1003" y="1134" type="line" smooth="yes"/>
      <point x="1003" y="1361"/>
      <point x="946" y="1531"/>
      <point x="803" y="1615" type="curve"/>
      <point x="845" y="1776" type="line"/>
      <point x="759" y="1798" type="line"/>
      <point x="721" y="1652" type="line"/>
      <point x="671" y="1668"/>
      <point x="613" y="1674"/>
      <point x="546" y="1674" type="curve" smooth="yes"/>
      <point x="207" y="1674"/>
      <point x="89" y="1471"/>
      <point x="89" y="1134" type="curve" smooth="yes"/>
      <point x="89" y="533" type="line" smooth="yes"/>
      <point x="89" y="298"/>
      <point x="146" y="123"/>
      <point x="295" y="39" type="curve"/>
      <point x="253" y="-118" type="line"/>
    </contour>
    <contour>
      <point x="546" y="178" type="curve" smooth="yes"/>
      <point x="498" y="178"/>
      <point x="458" y="186"/>
      <point x="428" y="203" type="curve"/>
      <point x="739" y="1373" type="line"/>
      <point x="759" y="1326"/>
      <point x="766" y="1265"/>
      <point x="766" y="1193" type="curve" smooth="yes"/>
      <point x="766" y="473" type="line" smooth="yes"/>
      <point x="766" y="295"/>
      <point x="724" y="178"/>
    </contour>
    <contour>
      <point x="358" y="279" type="line"/>
      <point x="334" y="329"/>
      <point x="326" y="394"/>
      <point x="326" y="473" type="curve" smooth="yes"/>
      <point x="326" y="1193" type="line" smooth="yes"/>
      <point x="326" y="1371"/>
      <point x="368" y="1480"/>
      <point x="546" y="1480" type="curve" smooth="yes"/>
      <point x="597" y="1480"/>
      <point x="637" y="1470"/>
      <point x="668" y="1453" type="curve"/>
    </contour>
  </outline>
</glyph>
<glyph name="Thorn" format="1">
  <advance width="880"/>
  <unicode hex="00DE"/>
  <outline>
    <contour>
      <point x="67" y="0" type="line"/>
      <point x="302" y="0" type="line"/>
      <point x="302" y="337" type="line"/>
      <point x="423" y="337" type="line" smooth="yes"/>
      <point x="715" y="337"/>
      <point x="861" y="494"/>
      <point x="861" y="820" type="curve" smooth="yes"/>
      <point x="861" y="1120"/>
      <point x="739" y="1305"/>
      <point x="466" y="1305" type="curve" smooth="yes"/>
      <point x="300" y="1305" type="line"/>
      <point x="300" y="1658" type="line"/>
      <point x="67" y="1658" type="line"/>
    </contour>
    <contour>
      <point x="300" y="537" type="line"/>
      <point x="300" y="1099" type="line"/>
      <point x="371" y="1099" type="line" smooth="yes"/>
      <point x="542" y="1099"/>
      <point x="619" y="1027"/>
      <point x="619" y="822" type="curve" smooth="yes"/>
      <point x="619" y="595"/>
      <point x="520" y="537"/>
      <point x="341" y="537" type="curve" smooth="yes"/>
    </contour>
  </outline>
</glyph>
<glyph name="germandbls" format="1">
  <advance width="1065"/>
  <unicode hex="00DF"/>
  <outline>
    <contour>
      <point x="473.0" y="-17.0" type="line"/>
      <point x="799.0" y="-17.0"/>
      <point x="947.0" y="149.0"/>
      <point x="947.0" y="473.0" type="curve" smooth="yes"/>
      <point x="947.0" y="680.0"/>
      <point x="848.0" y="824.0"/>
      <point x="686.0" y="868.0" type="curve"/>
      <point x="818.0" y="941.0"/>
      <point x="888.0" y="1049.0"/>
      <point x="888.0" y="1243.0" type="curve" smooth="yes"/>
      <point x="888.0" y="1518.0"/>
      <point x="753.0" y="1674.0"/>
      <point x="473.0" y="1674.0" type="curve" smooth="yes"/>
      <point x="235.0" y="1674.0"/>
      <point x="118.0" y="1498.0"/>
      <point x="118.0" y="1253.0" type="curve" smooth="yes"/>
      <point x="118.0" y="0.0" type="line"/>
      <point x="355.0" y="0.0" type="line"/>
      <point x="355.0" y="1257.0" type="line" smooth="yes"/>
      <point x="355.0" y="1384.0"/>
      <point x="378.0" y="1480.0"/>
      <point x="503.0" y="1480.0" type="curve" smooth="yes"/>
      <point x="635.0" y="1480.0"/>
      <point x="657.0" y="1376.0"/>
      <point x="657.0" y="1243.0" type="curve" smooth="yes"/>
      <point x="657.0" y="1097.0"/>
      <point x="616.0" y="947.0"/>
      <point x="473.0" y="947.0" type="curve"/>
      <point x="473.0" y="751.0" type="line"/>
      <point x="634.0" y="751.0"/>
      <point x="711.0" y="642.0"/>
      <point x="711.0" y="473.0" type="curve" smooth="yes"/>
      <point x="711.0" y="273.0"/>
      <point x="670.0" y="178.0"/>
      <point x="473.0" y="178.0" type="curve"/>
    </contour>
  </outline>
</glyph>
<glyph name="ae" format="1">
  <advance width="1354"/>
  <unicode hex="00E6"/>
  <outline>
    <contour>
      <point x="326" y="-17" type="curve" smooth="yes"/>
      <point x="493" y="-30"/>
      <point x="590" y="86"/>
      <point x="651" y="225" type="curve"/>
      <point x="670" y="85"/>
      <point x="768" y="-17"/>
      <point x="917" y="-17" type="curve" smooth="yes"/>
      <point x="1154" y="-17"/>
      <point x="1261" y="127"/>
      <point x="1261" y="368" type="curve" smooth="yes"/>
      <point x="1261" y="414" type="line"/>
      <point x="1025" y="414" type="line"/>
      <point x="1025" y="368" type="line" smooth="yes"/>
      <point x="1025" y="270"/>
      <point x="1013" y="171"/>
      <point x="918" y="171" type="curve" smooth="yes"/>
      <point x="784" y="171"/>
      <point x="800" y="395"/>
      <point x="800" y="533" type="curve"/>
      <point x="800" y="572" type="line"/>
      <point x="931" y="595" type="line" smooth="yes"/>
      <point x="1080" y="621"/>
      <point x="1253" y="652"/>
      <point x="1253" y="828" type="curve" smooth="yes"/>
      <point x="1253" y="1056"/>
      <point x="1143" y="1200"/>
      <point x="918" y="1200" type="curve" smooth="yes"/>
      <point x="802" y="1200"/>
      <point x="723" y="1136"/>
      <point x="681" y="1060" type="curve"/>
      <point x="652" y="1149"/>
      <point x="561" y="1200"/>
      <point x="445" y="1200" type="curve" smooth="yes"/>
      <point x="221" y="1200"/>
      <point x="93" y="1052"/>
      <point x="90" y="829" type="curve"/>
      <point x="326" y="829" type="line"/>
      <point x="326" y="933"/>
      <point x="348" y="1018"/>
      <point x="445" y="1018" type="curve" smooth="yes"/>
      <point x="544" y="1018"/>
      <point x="563" y="934"/>
      <point x="563" y="829" type="curve"/>
      <point x="563" y="670" type="line"/>
      <point x="406" y="630" type="line" smooth="yes"/>
      <point x="228" y="585"/>
      <point x="90.0" y="487.04290247"/>
      <point x="90" y="261" type="curve" smooth="yes"/>
      <point x="90" y="123"/>
      <point x="189" y="-6"/>
    </contour>
    <contour>
      <point x="425" y="168" type="curve" smooth="yes"/>
      <point x="369" y="168"/>
      <point x="326" y="226"/>
      <point x="326" y="315" type="curve" smooth="yes"/>
      <point x="326.0" y="424.503198266"/>
      <point x="402.186988137" y="480.486611477"/>
      <point x="491.608360671" y="513.926917664" type="curve" smooth="yes"/>
      <point x="514.879125034" y="522.6293281"/>
      <point x="539.046166658" y="529.805043101"/>
      <point x="563.0" y="536.0" type="curve"/>
      <point x="563" y="431" type="line" smooth="yes"/>
      <point x="563" y="261"/>
      <point x="497" y="168"/>
    </contour>
    <contour>
      <point x="800" y="699" type="line"/>
      <point x="800" y="818" type="line" smooth="yes"/>
      <point x="800" y="922"/>
      <point x="826.26171875" y="1007.0"/>
      <point x="918.0" y="1007.0" type="curve" smooth="yes"/>
      <point x="1006.0" y="1007.0"/>
      <point x="1036" y="937"/>
      <point x="1036" y="850" type="curve" smooth="yes"/>
      <point x="1036" y="748"/>
      <point x="983" y="731"/>
      <point x="897" y="716" type="curve"/>
    </contour>
  </outline>
</glyph>
<glyph name="eth" format="1">
  <advance width="1065"/>
  <unicode hex="00F0"/>
  <outline>
    <contour>
      <point x="533" y="-17" type="curve" smooth="yes"/>
      <point x="824" y="-17"/>
      <point x="947" y="234"/>
      <point x="947" y="533" type="curve" smooth="yes"/>
      <point x="947" y="888" type="line" smooth="yes"/>
      <point x="947" y="1093"/>
      <point x="926" y="1256"/>
      <point x="862" y="1387" type="curve"/>
      <point x="1007" y="1421" type="line"/>
      <point x="1007" y="1540" type="line"/>
      <point x="796" y="1490" type="line"/>
      <point x="670" y="1636"/>
      <point x="452" y="1674"/>
      <point x="178" y="1674" type="curve"/>
      <point x="178" y="1480" type="line"/>
      <point x="320" y="1480"/>
      <point x="438" y="1473"/>
      <point x="533" y="1431" type="curve"/>
      <point x="237" y="1362" type="line"/>
      <point x="237" y="1243" type="line"/>
      <point x="646" y="1338" type="line"/>
      <point x="692" y="1270"/>
      <point x="711" y="1183"/>
      <point x="711" y="1066" type="curve"/>
      <point x="684" y="1145"/>
      <point x="584" y="1200"/>
      <point x="473" y="1200" type="curve" smooth="yes"/>
      <point x="191" y="1200"/>
      <point x="119" y="883"/>
      <point x="119" y="592" type="curve" smooth="yes"/>
      <point x="119" y="254"/>
      <point x="196" y="-17"/>
    </contour>
    <contour>
      <point x="533" y="178" type="curve" smooth="yes"/>
      <point x="353" y="178"/>
      <point x="355" y="455"/>
      <point x="355" y="651" type="curve" smooth="yes"/>
      <point x="355" y="888"/>
      <point x="415" y="1007"/>
      <point x="533" y="1007" type="curve" smooth="yes"/>
      <point x="623" y="1007"/>
      <point x="675" y="958"/>
      <point x="711" y="905" type="curve"/>
      <point x="711" y="473" type="line" smooth="yes"/>
      <point x="711" y="329"/>
      <point x="674" y="178"/>
    </contour>
  </outline>
</glyph>
<glyph name="divide" format="1">
  <advance width="591"/>
  <unicode hex="00F7"/>
  <outline>
    <contour>
      <point x="178.0" y="215.0" type="line"/>
      <point x="414.0" y="215.0" type="line"/>
      <point x="414.0" y="452.0" type="line"/>
      <point x="178.0" y="452.0" type="line"/>
    </contour>
    <contour>
      <point x="0.0" y="533.0" type="line"/>
      <point x="592.0" y="533.0" type="line"/>
      <point x="592.0" y="711.0" type="line"/>
      <point x="0.0" y="711.0" type="line"/>
    </contour>
    <contour>
      <point x="178.0" y="813.0" type="line"/>
      <point x="414.0" y="813.0" type="line"/>
      <point x="414.0" y="1050.0" type="line"/>
      <point x="178.0" y="1050.0" type="line"/>
    </contour>
  </outline>
</glyph>
<glyph name="oslash" format="1">
  <advance width="881"/>
  <unicode hex="00F8"/>
  <outline>
    <contour>
      <point x="202" y="-205" type="line"/>
      <point x="762" y="1353" type="line"/>
      <point x="681" y="1379" type="line"/>
      <point x="133" y="-182" type="line"/>
    </contour>
    <component base="o"/>
  </outline>
</glyph>
<glyph name="thorn" format="1">
  <advance width="976"/>
  <unicode hex="00FE"/>
  <outline>
    <contour>
      <point x="118.0" y="-380.0" type="line"/>
      <point x="355.0" y="-380.0" type="line"/>
      <point x="355.0" y="107.0" type="line"/>
      <point x="410.0" y="50.0"/>
      <point x="484.0" y="-17.0"/>
      <point x="592.0" y="-17.0" type="curve" smooth="yes"/>
      <point x="834.0" y="-17.0"/>
      <point x="888.0" y="302.0"/>
      <point x="888.0" y="549.0" type="curve" smooth="yes"/>
      <point x="888.0" y="856.0"/>
      <point x="886.0" y="1200.0"/>
      <point x="596.0" y="1200.0" type="curve" smooth="yes"/>
      <point x="480.0" y="1200.0"/>
      <point x="419.0" y="1134.0"/>
      <point x="355.0" y="1066.0" type="curve"/>
      <point x="355.0" y="1657.0" type="line"/>
      <point x="118.0" y="1657.0" type="line"/>
    </contour>
    <contour>
      <point x="533.0" y="178.0" type="curve" smooth="yes"/>
      <point x="472.0" y="178.0"/>
      <point x="408.0" y="194.0"/>
      <point x="355.0" y="215.0" type="curve"/>
      <point x="355.0" y="959.0" type="line"/>
      <point x="398.0" y="985.0"/>
      <point x="467.0" y="1007.0"/>
      <point x="533.0" y="1007.0" type="curve" smooth="yes"/>
      <point x="640.0" y="1007.0"/>
      <point x="653.0" y="882.0"/>
      <point x="653.0" y="761.0" type="curve" smooth="yes"/>
      <point x="653.0" y="505.0" type="line" smooth="yes"/>
      <point x="653.0" y="350.0"/>
      <point x="639.0" y="178.0"/>
    </contour>
  </outline>
</glyph>
<glyph name="cdotaccent" format="1">
  <advance width="832"/>
  <unicode hex="010B"/>
  <outline>
    <component base="c"/>
    <contour>
      <point x="323" y="1295" type="line"/>
      <point x="559" y="1295" type="line"/>
      <point x="559" y="1532" type="line"/>
      <point x="323" y="1532" type="line"/>
    </contour>
  </outline>
</glyph>
<glyph name="dcroat" format="1">
  <advance width="976"/>
  <unicode hex="0111"/>
  <outline>
    <contour>
      <point x="385" y="-17" type="curve" smooth="yes"/>
      <point x="492" y="-17"/>
      <point x="567" y="50"/>
      <point x="622" y="107" type="curve"/>
      <point x="622" y="0" type="line"/>
      <point x="858" y="0" type="line"/>
      <point x="858" y="1387" type="line"/>
      <point x="977" y="1387" type="line"/>
      <point x="977" y="1515" type="line"/>
      <point x="858" y="1515" type="line"/>
      <point x="858" y="1657" type="line"/>
      <point x="622" y="1657" type="line"/>
      <point x="622" y="1515" type="line"/>
      <point x="381" y="1515" type="line"/>
      <point x="381" y="1387" type="line"/>
      <point x="622" y="1387" type="line"/>
      <point x="622" y="1066" type="line"/>
      <point x="560" y="1132"/>
      <point x="493" y="1200"/>
      <point x="381" y="1200" type="curve" smooth="yes"/>
      <point x="85" y="1200"/>
      <point x="89" y="844"/>
      <point x="89" y="534" type="curve" smooth="yes"/>
      <point x="89" y="295"/>
      <point x="147" y="-17"/>
    </contour>
    <contour>
      <point x="444" y="178" type="curve" smooth="yes"/>
      <point x="301" y="178"/>
      <point x="326" y="490"/>
      <point x="326" y="652" type="curve" smooth="yes"/>
      <point x="326" y="794"/>
      <point x="306" y="1007"/>
      <point x="444" y="1007" type="curve" smooth="yes"/>
      <point x="510" y="1007"/>
      <point x="579" y="985"/>
      <point x="622" y="959" type="curve"/>
      <point x="622" y="215" type="line"/>
      <point x="569" y="194"/>
      <point x="505" y="178"/>
    </contour>
  </outline>
</glyph>
<glyph name="Gdotaccent" format="1">
  <advance width="1108"/>
  <unicode hex="0120"/>
  <outline>
    <contour>
      <point x="444.0" y="1769.0" type="line"/>
      <point x="680.0" y="1769.0" type="line"/>
      <point x="680.0" y="2005.0" type="line"/>
      <point x="444.0" y="2005.0" type="line"/>
    </contour>
    <component base="G"/>
  </outline>
</glyph>
<glyph name="gdotaccent" format="1">
  <advance width="894"/>
  <unicode hex="0121"/>
  <outline>
    <contour>
      <point x="342.0" y="1295.0" type="line"/>
      <point x="580.0" y="1295.0" type="line"/>
      <point x="580.0" y="1532.0" type="line"/>
      <point x="342.0" y="1532.0" type="line"/>
    </contour>
    <component base="g"/>
  </outline>
</glyph>
<glyph name="gcommaaccent" format="1">
  <advance width="899"/>
  <unicode hex="0123"/>
  <outline>
    <contour>
      <point x="504.0" y="-354.0" type="curve" smooth="yes"/>
      <point x="721.0" y="-354.0"/>
      <point x="919.0" y="-281.0"/>
      <point x="919.0" y="-60.0" type="curve" smooth="yes"/>
      <point x="919.0" y="272.0"/>
      <point x="293.0" y="122.0"/>
      <point x="293.0" y="279.0" type="curve" smooth="yes"/>
      <point x="293.0" y="307.0"/>
      <point x="315.0" y="327.0"/>
      <point x="326.0" y="347.0" type="curve"/>
      <point x="370.0" y="347.0" type="line"/>
      <point x="393.0" y="343.0"/>
      <point x="419.0" y="340.0"/>
      <point x="445.0" y="340.0" type="curve" smooth="yes"/>
      <point x="686.0" y="340.0"/>
      <point x="801.0" y="527.0"/>
      <point x="801.0" y="769.0" type="curve" smooth="yes"/>
      <point x="801.0" y="839.0"/>
      <point x="786.0" y="901.0"/>
      <point x="770.0" y="947.0" type="curve"/>
      <point x="803.0" y="980.0"/>
      <point x="851.0" y="1007.0"/>
      <point x="919.0" y="1007.0" type="curve"/>
      <point x="919.0" y="1200.0" type="line"/>
      <point x="807.0" y="1200.0"/>
      <point x="740.0" y="1133.0"/>
      <point x="701.0" y="1061.0" type="curve"/>
      <point x="646.0" y="1145.0"/>
      <point x="581.0" y="1200.0"/>
      <point x="445.0" y="1200.0" type="curve" smooth="yes"/>
      <point x="210.0" y="1200.0"/>
      <point x="90.0" y="1011.0"/>
      <point x="90.0" y="769.0" type="curve" smooth="yes"/>
      <point x="90.0" y="621.0"/>
      <point x="135.0" y="501.0"/>
      <point x="208.0" y="414.0" type="curve"/>
      <point x="167.0" y="361.0"/>
      <point x="90.0" y="275.0"/>
      <point x="90.0" y="186.0" type="curve" smooth="yes"/>
      <point x="90.0" y="130.0"/>
      <point x="153.0" y="98.0"/>
      <point x="208.0" y="83.0" type="curve"/>
      <point x="115.0" y="37.0"/>
      <point x="30.0" y="-48.0"/>
      <point x="30.0" y="-181.0" type="curve" smooth="yes"/>
      <point x="30.0" y="-353.0"/>
      <point x="327.0" y="-354.0"/>
    </contour>
    <contour>
      <point x="504.0" y="-180.0" type="curve" smooth="yes"/>
      <point x="431.0" y="-180.0"/>
      <point x="239.0" y="-196.0"/>
      <point x="239.0" y="-125.0" type="curve" smooth="yes"/>
      <point x="239.0" y="-50.0"/>
      <point x="282.0" y="21.0"/>
      <point x="326.0" y="53.0" type="curve"/>
      <point x="522.0" y="29.0" type="line" smooth="yes"/>
      <point x="638.0" y="15.0"/>
      <point x="700.0" y="-15.0"/>
      <point x="708.0" y="-61.0" type="curve"/>
      <point x="711.0" y="-71.0"/>
      <point x="712.0" y="-82.0"/>
      <point x="712.0" y="-92.0" type="curve" smooth="yes"/>
      <point x="712.0" y="-175.0"/>
      <point x="588.0" y="-180.0"/>
    </contour>
    <contour>
      <point x="343.0" y="1274.0" type="curve"/>
      <point x="580.0" y="1274.0" type="line"/>
      <point x="580.0" y="1510.0" type="line"/>
      <point x="461.0" y="1510.0" type="line"/>
      <point x="461.0" y="1593.0"/>
      <point x="494.0" y="1629.0"/>
      <point x="580.0" y="1629.0" type="curve"/>
      <point x="521.0" y="1748.0" type="line"/>
      <point x="306.0" y="1748.0"/>
      <point x="343.0" y="1497.0"/>
    </contour>
    <contour>
      <point x="445.0" y="518.0" type="curve" smooth="yes"/>
      <point x="325.0" y="518.0"/>
      <point x="297.0" y="648.0"/>
      <point x="297.0" y="769.0" type="curve" smooth="yes"/>
      <point x="297.0" y="891.0"/>
      <point x="323.0" y="1036.0"/>
      <point x="445.0" y="1036.0" type="curve" smooth="yes"/>
      <point x="565.0" y="1036.0"/>
      <point x="593.0" y="891.0"/>
      <point x="593.0" y="769.0" type="curve" smooth="yes"/>
      <point x="593.0" y="648.0"/>
      <point x="566.0" y="518.0"/>
    </contour>
  </outline>
</glyph>
<glyph name="Hbar" format="1">
  <advance width="1154"/>
  <unicode hex="0126"/>
  <outline>
    <contour>
      <point x="26.0" y="1260.0" type="line"/>
      <point x="1128.0" y="1260.0" type="line"/>
      <point x="1128.0" y="1388.0" type="line"/>
      <point x="26.0" y="1388.0" type="line"/>
    </contour>
    <component base="H"/>
  </outline>
</glyph>
<glyph name="hbar" format="1">
  <advance width="929"/>
  <unicode hex="0127"/>
  <outline>
    <component base="h"/>
    <contour>
      <point x="-12" y="1411" type="line"/>
      <point x="603" y="1411" type="line"/>
      <point x="603" y="1542" type="line"/>
      <point x="-12" y="1542" type="line"/>
    </contour>
  </outline>
</glyph>
<glyph name="Idotaccent" format="1">
  <advance width="500"/>
  <unicode hex="0130"/>
  <outline>
    <component base="I"/>
    <contour>
      <point x="129" y="1769" type="line"/>
      <point x="366" y="1769" type="line"/>
      <point x="366" y="2005" type="line"/>
      <point x="129" y="2005" type="line"/>
    </contour>
  </outline>
</glyph>
<glyph name="kgreenlandic" format="1">
  <advance width="887"/>
  <unicode hex="0138"/>
  <outline>
    <contour>
      <point x="118.0" y="0.0" type="line"/>
      <point x="355.0" y="0.0" type="line"/>
      <point x="355.0" y="405.0" type="line"/>
      <point x="464.0" y="572.0" type="line"/>
      <point x="651.0" y="0.0" type="line"/>
      <point x="888.0" y="0.0" type="line"/>
      <point x="623.0" y="734.0" type="line"/>
      <point x="888.0" y="1184.0" type="line"/>
      <point x="651.0" y="1184.0" type="line"/>
      <point x="355.0" y="681.0" type="line"/>
      <point x="355.0" y="1185.0" type="line"/>
      <point x="118.0" y="1185.0" type="line"/>
    </contour>
  </outline>
</glyph>
<glyph name="Lslash" format="1">
  <advance width="821"/>
  <unicode hex="0141"/>
  <outline>
    <contour>
      <point x="586" y="1019" type="line"/>
      <point x="586" y="1210" type="line"/>
      <point x="-15" y="875" type="line"/>
      <point x="-15" y="684" type="line"/>
    </contour>
    <component base="L"/>
  </outline>
</glyph>
<glyph name="lslash" format="1">
  <advance width="553"/>
  <unicode hex="0142"/>
  <outline>
    <contour>
      <point x="29.0" y="682.0" type="line"/>
      <point x="532.0" y="916.0" type="line"/>
      <point x="532.0" y="1097.0" type="line"/>
      <point x="29.0" y="865.0" type="line"/>
    </contour>
    <component base="l" xOffset="31"/>
  </outline>
</glyph>
<glyph name="Eng" format="1">
  <advance width="1106"/>
  <unicode hex="014A"/>
  <outline>
    <component base="N"/>
    <contour>
      <point x="540" y="-389" type="line"/>
      <point x="622" y="-389" type="line" smooth="yes"/>
      <point x="894" y="-389"/>
      <point x="959" y="-254"/>
      <point x="959" y="0" type="curve"/>
      <point x="751" y="160" type="line"/>
      <point x="751" y="26" type="line" smooth="yes"/>
      <point x="751" y="-158"/>
      <point x="751" y="-219"/>
      <point x="540" y="-219" type="curve"/>
    </contour>
  </outline>
</glyph>
<glyph name="eng" format="1">
  <advance width="794"/>
  <unicode hex="014B"/>
  <outline>
    <contour>
      <point x="340.0" y="-386.0" type="line"/>
      <point x="411.0" y="-386.0" type="line" smooth="yes"/>
      <point x="654.0" y="-386.0"/>
      <point x="819.0" y="-255.0"/>
      <point x="819.0" y="-12.0" type="curve" smooth="yes"/>
      <point x="819.0" y="0.0" type="line"/>
      <point x="582.0" y="0.0" type="line"/>
      <point x="582.0" y="-10.0" type="line" smooth="yes"/>
      <point x="582.0" y="-146.0"/>
      <point x="544.0" y="-208.0"/>
      <point x="340.0" y="-208.0" type="curve"/>
    </contour>
    <component base="n"/>
  </outline>
</glyph>
<glyph name="oe" format="1">
  <advance width="1420"/>
  <unicode hex="0153"/>
  <outline>
    <contour>
      <point x="473" y="-17" type="curve" smooth="yes"/>
      <point x="595" y="-17"/>
      <point x="671" y="39"/>
      <point x="711" y="118" type="curve"/>
      <point x="751" y="39"/>
      <point x="825" y="-17"/>
      <point x="947" y="-17" type="curve" smooth="yes"/>
      <point x="1205" y="-17"/>
      <point x="1302" y="141"/>
      <point x="1302" y="414" type="curve"/>
      <point x="1066" y="414" type="line"/>
      <point x="1066" y="294"/>
      <point x="1067" y="178"/>
      <point x="947" y="178" type="curve" smooth="yes"/>
      <point x="814" y="178"/>
      <point x="829" y="396"/>
      <point x="829" y="533" type="curve" smooth="yes"/>
      <point x="829" y="592" type="line"/>
      <point x="1302" y="592" type="line"/>
      <point x="1302" y="620" type="line" smooth="yes"/>
      <point x="1302" y="940"/>
      <point x="1256" y="1200"/>
      <point x="948" y="1200" type="curve" smooth="yes"/>
      <point x="827" y="1200"/>
      <point x="750" y="1145"/>
      <point x="711" y="1066" type="curve"/>
      <point x="669" y="1144"/>
      <point x="595" y="1200"/>
      <point x="473" y="1200" type="curve" smooth="yes"/>
      <point x="206" y="1200"/>
      <point x="118" y="1031"/>
      <point x="118" y="769" type="curve" smooth="yes"/>
      <point x="118" y="414" type="line" smooth="yes"/>
      <point x="118" y="152"/>
      <point x="206" y="-17"/>
    </contour>
    <contour>
      <point x="473" y="178" type="curve" smooth="yes"/>
      <point x="355" y="178"/>
      <point x="355" y="296"/>
      <point x="355" y="414" type="curve" smooth="yes"/>
      <point x="355" y="769" type="line" smooth="yes"/>
      <point x="355" y="887"/>
      <point x="355" y="1007"/>
      <point x="473" y="1007" type="curve" smooth="yes"/>
      <point x="591" y="1007"/>
      <point x="592" y="887"/>
      <point x="592" y="769" type="curve" smooth="yes"/>
      <point x="592" y="414" type="line" smooth="yes"/>
      <point x="592" y="296"/>
      <point x="591" y="178"/>
    </contour>
    <contour>
      <point x="829" y="711" type="line"/>
      <point x="829" y="833"/>
      <point x="826" y="1007"/>
      <point x="948" y="1007" type="curve" smooth="yes"/>
      <point x="1069" y="1007"/>
      <point x="1066" y="835"/>
      <point x="1066" y="711" type="curve"/>
    </contour>
  </outline>
</glyph>
<glyph name="Tbar" format="1">
  <advance width="826"/>
  <unicode hex="0166"/>
  <outline>
    <contour>
      <point x="83.0" y="793.0" type="line"/>
      <point x="742.0" y="793.0" type="line"/>
      <point x="742.0" y="933.0" type="line"/>
      <point x="83.0" y="933.0" type="line"/>
    </contour>
    <component base="T"/>
  </outline>
</glyph>
<glyph name="tbar" format="1">
  <advance width="500"/>
  <unicode hex="0167"/>
  <outline>
    <contour>
      <point x="63.0" y="760.0" type="line"/>
      <point x="391.0" y="760.0" type="line"/>
      <point x="391.0" y="809.0" type="line"/>
      <point x="63.0" y="809.0" type="line"/>
    </contour>
    <component base="t"/>
  </outline>
</glyph>
<glyph name="Zdotaccent" format="1">
  <advance width="879"/>
  <unicode hex="017B"/>
  <outline>
    <contour>
      <point x="324.0" y="1769.0" type="line"/>
      <point x="560.0" y="1769.0" type="line"/>
      <point x="560.0" y="2005.0" type="line"/>
      <point x="324.0" y="2005.0" type="line"/>
    </contour>
    <component base="Z"/>
  </outline>
</glyph>
<glyph name="florin" format="1">
  <advance width="651"/>
  <unicode hex="0192"/>
  <outline>
    <contour>
      <point x="146.0" y="-237.0" type="curve" smooth="yes"/>
      <point x="374.0" y="-237.0"/>
      <point x="414.0" y="-108.0"/>
      <point x="414.0" y="118.0" type="curve" smooth="yes"/>
      <point x="414.0" y="1007.0" type="line"/>
      <point x="585.0" y="1007.0" type="line"/>
      <point x="585.0" y="1184.0" type="line"/>
      <point x="414.0" y="1184.0" type="line"/>
      <point x="414.0" y="1273.0" type="line" smooth="yes"/>
      <point x="414.0" y="1358.0"/>
      <point x="428.0" y="1421.0"/>
      <point x="513.0" y="1421.0" type="curve" smooth="yes"/>
      <point x="536.0" y="1421.0"/>
      <point x="568.0" y="1413.0"/>
      <point x="592.0" y="1411.0" type="curve"/>
      <point x="592.0" y="1587.0" type="line"/>
      <point x="532.0" y="1594.0"/>
      <point x="504.0" y="1598.0"/>
      <point x="446.0" y="1598.0" type="curve" smooth="yes"/>
      <point x="219.0" y="1598.0"/>
      <point x="178.0" y="1467.0"/>
      <point x="178.0" y="1243.0" type="curve" smooth="yes"/>
      <point x="178.0" y="1184.0" type="line"/>
      <point x="51.0" y="1184.0" type="line"/>
      <point x="51.0" y="1007.0" type="line"/>
      <point x="178.0" y="1007.0" type="line"/>
      <point x="178.0" y="89.0" type="line" smooth="yes"/>
      <point x="178.0" y="4.0"/>
      <point x="165.0" y="-60.0"/>
      <point x="80.0" y="-60.0" type="curve" smooth="yes"/>
      <point x="58.0" y="-60.0"/>
      <point x="22.0" y="-54.0"/>
      <point x="0.0" y="-50.0" type="curve"/>
      <point x="0.0" y="-226.0" type="line"/>
      <point x="60.0" y="-233.0"/>
      <point x="88.0" y="-237.0"/>
    </contour>
  </outline>
</glyph>
<glyph name="uni0237" format="1">
  <advance width="532"/>
  <unicode hex="0237"/>
  <outline>
    <contour>
      <point x="118.0" y="-296.0" type="curve" smooth="yes"/>
      <point x="300.0" y="-296.0"/>
      <point x="414.0" y="-190.0"/>
      <point x="414.0" y="-6.0" type="curve" smooth="yes"/>
      <point x="414.0" y="1184.0" type="line"/>
      <point x="178.0" y="1184.0" type="line"/>
      <point x="178.0" y="19.0" type="line" smooth="yes"/>
      <point x="178.0" y="-64.0"/>
      <point x="146.0" y="-118.0"/>
      <point x="60.0" y="-118.0" type="curve" smooth="yes"/>
      <point x="43.0" y="-118.0"/>
      <point x="14.0" y="-115.0"/>
      <point x="0.0" y="-112.0" type="curve"/>
      <point x="0.0" y="-281.0" type="line"/>
      <point x="31.0" y="-293.0"/>
      <point x="78.0" y="-296.0"/>
    </contour>
  </outline>
</glyph>
<glyph name="circumflex" format="1">
  <advance width="709"/>
  <unicode hex="02C6"/>
  <outline>
    <contour>
      <point x="60.0" y="1302.0" type="line"/>
      <point x="237.0" y="1302.0" type="line"/>
      <point x="355.0" y="1540.0" type="line"/>
      <point x="473.0" y="1302.0" type="line"/>
      <point x="651.0" y="1302.0" type="line"/>
      <point x="473.0" y="1658.0" type="line"/>
      <point x="237.0" y="1658.0" type="line"/>
    </contour>
  </outline>
</glyph>
<glyph name="breve" format="1">
  <advance width="709"/>
  <unicode hex="02D8"/>
  <outline>
    <contour>
      <point x="355.0" y="1342.0" type="curve" smooth="yes"/>
      <point x="587.0" y="1342.0"/>
      <point x="631.0" y="1484.0"/>
      <point x="631.0" y="1658.0" type="curve"/>
      <point x="493.0" y="1658.0" type="line"/>
      <point x="493.0" y="1527.0"/>
      <point x="460.0" y="1474.0"/>
      <point x="355.0" y="1474.0" type="curve" smooth="yes"/>
      <point x="250.0" y="1474.0"/>
      <point x="217.0" y="1526.0"/>
      <point x="217.0" y="1658.0" type="curve"/>
      <point x="80.0" y="1658.0" type="line"/>
      <point x="80.0" y="1485.0"/>
      <point x="126.0" y="1342.0"/>
    </contour>
  </outline>
</glyph>
<glyph name="dotaccent" format="1">
  <advance width="354"/>
  <unicode hex="02D9"/>
  <outline>
    <contour>
      <point x="60.0" y="1338.0" type="line"/>
      <point x="296.0" y="1338.0" type="line"/>
      <point x="296.0" y="1574.0" type="line"/>
      <point x="60.0" y="1574.0" type="line"/>
    </contour>
  </outline>
</glyph>
<glyph name="ogonek" format="1">
  <advance width="496"/>
  <unicode hex="02DB"/>
  <outline>
    <contour>
      <point x="330.0" y="-475.0" type="curve"/>
      <point x="372.0" y="-356.0" type="line"/>
      <point x="292.242" y="-356.0"/>
      <point x="135.0" y="-387.0"/>
      <point x="135.0" y="-293.0" type="curve" smooth="yes"/>
      <point x="135.0" y="-188.0"/>
      <point x="256.0" y="-65.0"/>
      <point x="313.0" y="8.0" type="curve"/>
      <point x="194.0" y="8.0" type="line"/>
      <point x="86.0" y="-23.0"/>
      <point x="-42.0" y="-158.0"/>
      <point x="-42.0" y="-297.0" type="curve" smooth="yes"/>
      <point x="-42.0" y="-469.0"/>
      <point x="113.0" y="-475.0"/>
    </contour>
  </outline>
</glyph>
<glyph name="tilde" format="1">
  <advance width="887"/>
  <unicode hex="02DC"/>
  <outline>
    <contour>
      <point x="586" y="1343" type="curve" smooth="yes"/>
      <point x="722" y="1343"/>
      <point x="760" y="1443"/>
      <point x="760" y="1578" type="curve"/>
      <point x="628" y="1578" type="line"/>
      <point x="628" y="1514"/>
      <point x="617" y="1494"/>
      <point x="586" y="1494" type="curve" smooth="yes"/>
      <point x="533" y="1494"/>
      <point x="408" y="1594"/>
      <point x="308" y="1594" type="curve" smooth="yes"/>
      <point x="172" y="1594"/>
      <point x="127" y="1496"/>
      <point x="127" y="1362" type="curve"/>
      <point x="260" y="1362" type="line"/>
      <point x="260" y="1422"/>
      <point x="275" y="1445"/>
      <point x="308" y="1445" type="curve" smooth="yes"/>
      <point x="374" y="1445"/>
      <point x="486" y="1343"/>
    </contour>
  </outline>
</glyph>
<glyph name="hungarumlaut" format="1">
  <advance width="591"/>
  <unicode hex="02DD"/>
  <outline>
    <contour>
      <point x="202.0" y="1302.0" type="line"/>
      <point x="320.0" y="1302.0" type="line"/>
      <point x="473.0" y="1658.0" type="line"/>
      <point x="283.0" y="1658.0" type="line"/>
    </contour>
    <contour>
      <point x="473.0" y="1302.0" type="line"/>
      <point x="592.0" y="1302.0" type="line"/>
      <point x="829.0" y="1658.0" type="line"/>
      <point x="592.0" y="1658.0" type="line"/>
    </contour>
  </outline>
</glyph>
<glyph name="uni0302" format="1">
  <advance width="709"/>
  <unicode hex="0302"/>
  <outline>
    <contour>
      <point x="60.0" y="1302.0" type="line"/>
      <point x="237.0" y="1302.0" type="line"/>
      <point x="355.0" y="1540.0" type="line"/>
      <point x="473.0" y="1302.0" type="line"/>
      <point x="651.0" y="1302.0" type="line"/>
      <point x="473.0" y="1658.0" type="line"/>
      <point x="237.0" y="1658.0" type="line"/>
    </contour>
  </outline>
</glyph>
<glyph name="uni0308" format="1">
  <advance width="828"/>
  <unicode hex="0308"/>
  <outline>
    <contour>
      <point x="118" y="1421" type="line"/>
      <point x="355" y="1421" type="line"/>
      <point x="355" y="1658" type="line"/>
      <point x="118" y="1658" type="line"/>
    </contour>
    <contour>
      <point x="473" y="1421" type="line"/>
      <point x="711" y="1421" type="line"/>
      <point x="711" y="1658" type="line"/>
      <point x="473" y="1658" type="line"/>
    </contour>
  </outline>
</glyph>
<glyph name="uni030A" format="1">
  <advance width="591"/>
  <unicode hex="030A"/>
  <outline>
    <contour>
      <point x="296.0" y="1421.0" type="curve" smooth="yes"/>
      <point x="221.0" y="1421.0"/>
      <point x="178.0" y="1467.0"/>
      <point x="178.0" y="1540.0" type="curve" smooth="yes"/>
      <point x="178.0" y="1613.0"/>
      <point x="221.0" y="1658.0"/>
      <point x="296.0" y="1658.0" type="curve" smooth="yes"/>
      <point x="370.0" y="1658.0"/>
      <point x="414.0" y="1613.0"/>
      <point x="414.0" y="1540.0" type="curve" smooth="yes"/>
      <point x="414.0" y="1467.0"/>
      <point x="370.0" y="1421.0"/>
    </contour>
    <contour>
      <point x="296.0" y="1302.0" type="curve" smooth="yes"/>
      <point x="440.0" y="1302.0"/>
      <point x="533.0" y="1398.0"/>
      <point x="533.0" y="1540.0" type="curve" smooth="yes"/>
      <point x="533.0" y="1682.0"/>
      <point x="441.0" y="1776.0"/>
      <point x="296.0" y="1776.0" type="curve" smooth="yes"/>
      <point x="152.0" y="1776.0"/>
      <point x="60.0" y="1682.0"/>
      <point x="60.0" y="1540.0" type="curve" smooth="yes"/>
      <point x="60.0" y="1398.0"/>
      <point x="151.0" y="1302.0"/>
    </contour>
  </outline>
</glyph>
<glyph name="uni030F" format="1">
  <advance width="591"/>
  <unicode hex="030F"/>
  <outline>
    <contour>
      <point x="244.0" y="1302.0" type="line"/>
      <point x="362.0" y="1302.0" type="line"/>
      <point x="244.0" y="1658.0" type="line"/>
      <point x="7.0" y="1658.0" type="line"/>
    </contour>
    <contour>
      <point x="516.0" y="1302.0" type="line"/>
      <point x="635.0" y="1302.0" type="line"/>
      <point x="553.0" y="1658.0" type="line"/>
      <point x="362.0" y="1658.0" type="line"/>
    </contour>
  </outline>
</glyph>
<glyph name="uni0326" format="1">
  <advance width="304"/>
  <unicode hex="0326"/>
  <outline>
    <contour>
      <point x="94.0" y="-547.0" type="line"/>
      <point x="243.0" y="-547.0"/>
      <point x="268.0" y="-446.0"/>
      <point x="269.0" y="-297.0" type="curve" smooth="yes"/>
      <point x="271.0" y="-73.0" type="line"/>
      <point x="34.0" y="-73.0" type="line"/>
      <point x="34.0" y="-310.0" type="line"/>
      <point x="152.0" y="-310.0" type="line"/>
      <point x="152.0" y="-393.0"/>
      <point x="120.0" y="-428.0"/>
      <point x="34.0" y="-428.0" type="curve"/>
    </contour>
  </outline>
</glyph>
<glyph name="Delta" format="1">
  <advance width="991"/>
  <unicode hex="0394"/>
  <outline>
    <contour>
      <point x="436" y="949" type="line"/>
      <point x="497" y="1313" type="line"/>
      <point x="560" y="949" type="line"/>
      <point x="711" y="139" type="line"/>
      <point x="283" y="139" type="line"/>
    </contour>
    <contour>
      <point x="22" y="0" type="line"/>
      <point x="969" y="0" type="line"/>
      <point x="604" y="1658" type="line"/>
      <point x="387" y="1658" type="line"/>
    </contour>
  </outline>
</glyph>
<glyph name="afii10051" format="1">
  <advance width="924"/>
  <unicode hex="0402"/>
  <outline>
    <contour>
      <point x="343.0" y="-386.0" type="line"/>
      <point x="414.0" y="-386.0" type="line" smooth="yes"/>
      <point x="657.0" y="-386.0"/>
      <point x="822.0" y="-255.0"/>
      <point x="822.0" y="-12.0" type="curve" smooth="yes"/>
      <point x="822.0" y="0.0" type="line"/>
      <point x="586.0" y="0.0" type="line"/>
      <point x="586.0" y="-10.0" type="line" smooth="yes"/>
      <point x="586.0" y="-146.0"/>
      <point x="547.0" y="-208.0"/>
      <point x="343.0" y="-208.0" type="curve"/>
    </contour>
    <component base="afii10060"/>
  </outline>
</glyph>
<glyph name="afii10058" format="1">
  <advance width="1638"/>
  <unicode hex="0409"/>
  <outline>
    <component base="cyrillic_uc_right_bowl" xOffset="610"/>
    <component base="uc_horiz_bar" xScale="0.647789" xOffset="359" yOffset="1477"/>
    <component base="uc_main_stem" yScale="0.726012" xOffset="130" yOffset="454"/>
    <component base="uc_main_stem" xOffset="646"/>
    <contour>
      <point x="49" y="0" type="line"/>
      <point x="106" y="0" type="line" smooth="yes"/>
      <point x="402" y="0"/>
      <point x="498" y="129"/>
      <point x="498" y="454" type="curve"/>
      <point x="248" y="454" type="line"/>
      <point x="248" y="252"/>
      <point x="218" y="178"/>
      <point x="49" y="178" type="curve"/>
    </contour>
  </outline>
</glyph>
<glyph name="afii10145" format="1">
  <advance width="1017"/>
  <unicode hex="040F"/>
  <outline>
    <component base="uc_main_stem"/>
    <component base="uc_main_stem" xOffset="629"/>
    <contour>
      <point x="255" y="0" type="line"/>
      <point x="881" y="0" type="line"/>
      <point x="881" y="178" type="line"/>
      <point x="255" y="178" type="line"/>
    </contour>
  </outline>
</glyph>
<glyph name="afii10019" format="1">
  <advance width="1076"/>
  <unicode hex="0412"/>
  <outline>
    <contour>
      <point x="252.0" y="0.0" type="line"/>
      <point x="582.0" y="0.0" type="line" smooth="yes"/>
      <point x="918.0" y="0.0"/>
      <point x="1001.0" y="205.0"/>
      <point x="1001.0" y="482.0" type="curve" smooth="yes"/>
      <point x="1001.0" y="740.0"/>
      <point x="929.0" y="837.0"/>
      <point x="751.0" y="878.0" type="curve"/>
      <point x="918.0" y="914.0"/>
      <point x="959.0" y="1050.0"/>
      <point x="959.0" y="1237.0" type="curve" smooth="yes"/>
      <point x="959.0" y="1537.0"/>
      <point x="834.0" y="1658.0"/>
      <point x="491.0" y="1658.0" type="curve" smooth="yes"/>
      <point x="251.0" y="1658.0" type="line"/>
      <point x="251.0" y="1474.0" type="line"/>
      <point x="464.0" y="1474.0" type="line" smooth="yes"/>
      <point x="692.0" y="1474.0"/>
      <point x="738.0" y="1421.0"/>
      <point x="738.0" y="1241.0" type="curve" smooth="yes"/>
      <point x="738.0" y="1015.0"/>
      <point x="677.0" y="956.0"/>
      <point x="497.0" y="956.0" type="curve" smooth="yes"/>
      <point x="253.0" y="956.0" type="line"/>
      <point x="253.0" y="766.0" type="line"/>
      <point x="498.0" y="766.0" type="line" smooth="yes"/>
      <point x="695.0" y="766.0"/>
      <point x="758.0" y="710.0"/>
      <point x="758.0" y="484.0" type="curve" smooth="yes"/>
      <point x="758.0" y="227.0"/>
      <point x="691.0" y="178.0"/>
      <point x="479.0" y="178.0" type="curve" smooth="yes"/>
      <point x="252.0" y="178.0" type="line"/>
    </contour>
    <component base="uc_main_stem" xOffset="8"/>
  </outline>
</glyph>
<glyph name="afii10020" format="1">
  <advance width="773"/>
  <unicode hex="0413"/>
  <outline>
    <component base="uc_main_stem" xOffset="8"/>
    <contour>
      <point x="203" y="1474" type="line"/>
      <point x="766" y="1474" type="line"/>
      <point x="766" y="1658" type="line"/>
      <point x="203" y="1658" type="line"/>
    </contour>
  </outline>
</glyph>
<glyph name="afii10021" format="1">
  <advance width="1295"/>
  <unicode hex="0414"/>
  <outline>
    <contour>
      <point x="-3.0" y="-283.0" type="line"/>
      <point x="210.0" y="-283.0" type="line"/>
      <point x="210.0" y="0.0" type="line"/>
      <point x="1052.0" y="0.0" type="line"/>
      <point x="1052.0" y="-283.0" type="line"/>
      <point x="1265.0" y="-283.0" type="line"/>
      <point x="1265.0" y="178.0" type="line"/>
      <point x="-3.0" y="178.0" type="line"/>
    </contour>
    <component base="afii10029" xOffset="51"/>
  </outline>
</glyph>
<glyph name="afii10024" format="1">
  <advance width="1310"/>
  <unicode hex="0416"/>
  <outline>
    <component base="uc_main_stem" xScale="0.924616" xOffset="430"/>
    <contour>
      <point x="0" y="0" type="line"/>
      <point x="219" y="0" type="line"/>
      <point x="539" y="672" type="line"/>
      <point x="655" y="725" type="line"/>
      <point x="655" y="741" type="line"/>
      <point x="255" y="1658" type="line"/>
      <point x="39" y="1658" type="line"/>
      <point x="419" y="835" type="line"/>
    </contour>
    <contour>
      <point x="1091" y="0" type="line"/>
      <point x="1310" y="0" type="line"/>
      <point x="891" y="835" type="line"/>
      <point x="1271" y="1658" type="line"/>
      <point x="1055" y="1658" type="line"/>
      <point x="655" y="741" type="line"/>
      <point x="655" y="725" type="line"/>
      <point x="771" y="672" type="line"/>
    </contour>
  </outline>
</glyph>
<glyph name="afii10026" format="1">
  <advance width="1085"/>
  <unicode hex="0418"/>
  <outline>
    <contour>
      <point x="126.0" y="0.0" type="line"/>
      <point x="294.0" y="0.0" type="line"/>
      <point x="751.0" y="1090.0" type="line"/>
      <point x="751.0" y="0.0" type="line"/>
      <point x="959.0" y="0.0" type="line"/>
      <point x="959.0" y="1658.0" type="line"/>
      <point x="797.0" y="1658.0" type="line"/>
      <point x="336.0" y="561.0" type="line"/>
      <point x="336.0" y="1658.0" type="line"/>
      <point x="126.0" y="1658.0" type="line"/>
    </contour>
  </outline>
</glyph>
<glyph name="afii10029" format="1">
  <advance width="1196"/>
  <unicode hex="041B"/>
  <outline>
    <component base="uc_main_stem" xOffset="702"/>
    <contour>
      <point x="45" y="-11" type="line"/>
      <point x="465" y="40"/>
      <point x="509" y="268"/>
      <point x="509" y="1039" type="curve" smooth="yes"/>
      <point x="509" y="1474" type="line"/>
      <point x="896" y="1474" type="line"/>
      <point x="896" y="1658" type="line"/>
      <point x="272" y="1658" type="line"/>
      <point x="272" y="1099" type="line" smooth="yes"/>
      <point x="272" y="368"/>
      <point x="259" y="188"/>
      <point x="45" y="178" type="curve"/>
    </contour>
  </outline>
</glyph>
<glyph name="afii10033" format="1">
  <advance width="1093"/>
  <unicode hex="041F"/>
  <outline>
    <contour>
      <point x="246.0" y="1480.0" type="line"/>
      <point x="947.0" y="1480.0" type="line"/>
      <point x="947.0" y="1658.0" type="line"/>
      <point x="246.0" y="1658.0" type="line"/>
    </contour>
    <component base="uc_main_stem"/>
    <component base="uc_main_stem" xOffset="705"/>
  </outline>
</glyph>
<glyph name="afii10037" format="1">
  <advance width="925"/>
  <unicode hex="0423"/>
  <outline>
    <contour>
      <point x="254.0" y="0.0" type="line"/>
      <point x="479.0" y="0.0" type="line"/>
      <point x="605.0" y="534.0" type="line"/>
      <point x="905.0" y="1658.0" type="line"/>
      <point x="674.0" y="1658.0" type="line"/>
      <point x="477.0" y="856.0" type="line"/>
      <point x="262.0" y="1658.0" type="line"/>
      <point x="35.0" y="1658.0" type="line"/>
      <point x="357.0" y="501.0" type="line"/>
    </contour>
  </outline>
</glyph>
<glyph name="afii10038" format="1">
  <advance width="1200"/>
  <unicode hex="0424"/>
  <outline>
    <contour>
      <point x="600.0" y="279.0" type="curve"/>
      <point x="600.0" y="429.0" type="line"/>
      <point x="335.0" y="409.0"/>
      <point x="277.0" y="470.0"/>
      <point x="277.0" y="736.0" type="curve" smooth="yes"/>
      <point x="277.0" y="957.0" type="line" smooth="yes"/>
      <point x="277.0" y="1223.0"/>
      <point x="335.0" y="1284.0"/>
      <point x="600.0" y="1264.0" type="curve"/>
      <point x="600.0" y="1414.0" type="line"/>
      <point x="321.0" y="1434.0"/>
      <point x="50.0" y="1323.0"/>
      <point x="50.0" y="957.0" type="curve" smooth="yes"/>
      <point x="50.0" y="736.0" type="line" smooth="yes"/>
      <point x="50.0" y="367.0"/>
      <point x="321.0" y="259.0"/>
    </contour>
    <contour>
      <point x="600.0" y="279.0" type="line"/>
      <point x="879.0" y="259.0"/>
      <point x="1150.0" y="370.0"/>
      <point x="1150.0" y="736.0" type="curve" smooth="yes"/>
      <point x="1150.0" y="957.0" type="line" smooth="yes"/>
      <point x="1150.0" y="1326.0"/>
      <point x="879.0" y="1434.0"/>
      <point x="600.0" y="1414.0" type="curve"/>
      <point x="600.0" y="1264.0" type="line"/>
      <point x="865.0" y="1284.0"/>
      <point x="923.0" y="1223.0"/>
      <point x="923.0" y="957.0" type="curve" smooth="yes"/>
      <point x="923.0" y="736.0" type="line" smooth="yes"/>
      <point x="923.0" y="470.0"/>
      <point x="865.0" y="409.0"/>
      <point x="600.0" y="429.0" type="curve"/>
    </contour>
    <component base="uc_main_stem" xOffset="360"/>
  </outline>
</glyph>
<glyph name="afii10040" format="1">
  <advance width="1090"/>
  <unicode hex="0426"/>
  <outline>
    <contour>
      <point x="982.0" y="-283.0" type="line"/>
      <point x="1195.0" y="-283.0" type="line"/>
      <point x="1195.0" y="178.0" type="line"/>
      <point x="245.0" y="178.0" type="line"/>
      <point x="245.0" y="0.0" type="line"/>
      <point x="982.0" y="0.0" type="line"/>
    </contour>
    <component base="uc_main_stem"/>
    <component base="uc_main_stem" xOffset="702"/>
  </outline>
</glyph>
<glyph name="afii10041" format="1">
  <advance width="1112.0"/>
  <unicode hex="0427"/>
  <outline>
    <contour>
      <point x="491.0" y="735.0" type="curve" smooth="yes"/>
      <point x="583.0" y="735.0"/>
      <point x="691.0" y="751.0"/>
      <point x="815.0" y="783.0" type="curve"/>
      <point x="815.0" y="938.0" type="line"/>
      <point x="700.0" y="910.0"/>
      <point x="610.0" y="897.0"/>
      <point x="541.0" y="897.0" type="curve" smooth="yes"/>
      <point x="372.0" y="897.0"/>
      <point x="323.0" y="977.0"/>
      <point x="323.0" y="1125.0" type="curve" smooth="yes"/>
      <point x="323.0" y="1658.0" type="line"/>
      <point x="98.0" y="1658.0" type="line"/>
      <point x="98.0" y="1124.0" type="line" smooth="yes"/>
      <point x="98.0" y="866.0"/>
      <point x="229.0" y="735.0"/>
    </contour>
    <component base="uc_main_stem" xOffset="618"/>
  </outline>
</glyph>
<glyph name="afii10043" format="1">
  <advance width="1713.0"/>
  <unicode hex="0429"/>
  <outline>
    <contour>
      <point x="1490" y="-306" type="line"/>
      <point x="1683" y="-306" type="line"/>
      <point x="1683.0" y="178.0" type="line"/>
      <point x="260.0" y="178.0" type="line"/>
      <point x="260.0" y="0.0" type="line"/>
      <point x="1470.0" y="0.0" type="line"/>
    </contour>
    <component base="uc_main_stem" xOffset="8"/>
    <component base="uc_main_stem" xOffset="1059"/>
    <component base="uc_main_stem" xOffset="540"/>
  </outline>
</glyph>
<glyph name="afii10044" format="1">
  <advance width="957"/>
  <unicode hex="042A"/>
  <outline>
    <contour>
      <point x="-46.0" y="1469.0" type="line"/>
      <point x="234.0" y="1469.0" type="line"/>
      <point x="234.0" y="1658.0" type="line"/>
      <point x="-46.0" y="1658.0" type="line"/>
    </contour>
    <component base="cyrillic_uc_right_bowl" xOffset="40"/>
    <component base="uc_main_stem" xOffset="40"/>
  </outline>
</glyph>
<glyph name="afii10047" format="1">
  <advance width="1060.0"/>
  <unicode hex="042D"/>
  <outline>
    <contour>
      <point x="513.0" y="8.0" type="curve" smooth="yes"/>
      <point x="869.0" y="8.0"/>
      <point x="964.0" y="229.0"/>
      <point x="964.0" y="573.0" type="curve" smooth="yes"/>
      <point x="964.0" y="1141.0" type="line" smooth="yes"/>
      <point x="964.0" y="1456.0"/>
      <point x="869.0" y="1699.0"/>
      <point x="513.0" y="1699.0" type="curve" smooth="yes"/>
      <point x="181.0" y="1699.0"/>
      <point x="88.0" y="1492.0"/>
      <point x="88.0" y="1185.0" type="curve" smooth="yes"/>
      <point x="88" y="1112" type="line"/>
      <point x="325" y="1112" type="line"/>
      <point x="325.0" y="1181.0" type="line" smooth="yes"/>
      <point x="325.0" y="1373.0"/>
      <point x="329.0" y="1504.0"/>
      <point x="511.0" y="1504.0" type="curve" smooth="yes"/>
      <point x="658.0" y="1504.0"/>
      <point x="712.0" y="1431.0"/>
      <point x="712.0" y="1181.0" type="curve" smooth="yes"/>
      <point x="712.0" y="537.0" type="line" smooth="yes"/>
      <point x="712.0" y="335.0"/>
      <point x="699.0" y="202.0"/>
      <point x="511.0" y="202.0" type="curve" smooth="yes"/>
      <point x="320.0" y="202.0"/>
      <point x="325.0" y="330.0"/>
      <point x="325.0" y="505.0" type="curve" smooth="yes"/>
      <point x="325" y="571" type="line"/>
      <point x="88" y="571" type="line"/>
      <point x="88.0" y="487.0" type="line" smooth="yes"/>
      <point x="88.0" y="185.0"/>
      <point x="198.0" y="8.0"/>
    </contour>
    <contour>
      <point x="437.0" y="786.0" type="line"/>
      <point x="902.0" y="786.0" type="line"/>
      <point x="902.0" y="949.0" type="line"/>
      <point x="437.0" y="949.0" type="line"/>
    </contour>
  </outline>
</glyph>
<glyph name="afii10048" format="1">
  <advance width="1464"/>
  <unicode hex="042E"/>
  <outline>
    <contour>
      <point x="945.0" y="178.0" type="curve" smooth="yes"/>
      <point x="777.0" y="178.0"/>
      <point x="737.0" y="295.0"/>
      <point x="737.0" y="473.0" type="curve" smooth="yes"/>
      <point x="737.0" y="1193.0" type="line" smooth="yes"/>
      <point x="737.0" y="1371.0"/>
      <point x="777.0" y="1480.0"/>
      <point x="945.0" y="1480.0" type="curve" smooth="yes"/>
      <point x="1113.0" y="1480.0"/>
      <point x="1153.0" y="1371.0"/>
      <point x="1153.0" y="1193.0" type="curve" smooth="yes"/>
      <point x="1153.0" y="473.0" type="line" smooth="yes"/>
      <point x="1153.0" y="295.0"/>
      <point x="1113.0" y="178.0"/>
    </contour>
    <contour>
      <point x="945.0" y="-17.0" type="curve" smooth="yes"/>
      <point x="1263.0" y="-17.0"/>
      <point x="1377.0" y="200.0"/>
      <point x="1377.0" y="533.0" type="curve" smooth="yes"/>
      <point x="1377.0" y="1134.0" type="line" smooth="yes"/>
      <point x="1377.0" y="1467.0"/>
      <point x="1263.0" y="1674.0"/>
      <point x="945.0" y="1674.0" type="curve" smooth="yes"/>
      <point x="625.0" y="1674.0"/>
      <point x="513.0" y="1471.0"/>
      <point x="513.0" y="1134.0" type="curve" smooth="yes"/>
      <point x="513.0" y="533.0" type="line" smooth="yes"/>
      <point x="513.0" y="196.0"/>
      <point x="625.0" y="-17.0"/>
    </contour>
    <contour>
      <point x="244.0" y="762.0" type="line"/>
      <point x="630.0" y="762.0" type="line"/>
      <point x="630.0" y="950.0" type="line"/>
      <point x="244.0" y="950.0" type="line"/>
    </contour>
    <component base="uc_main_stem"/>
  </outline>
</glyph>
<glyph name="afii10049" format="1">
  <advance width="1065"/>
  <unicode hex="042F"/>
  <outline>
    <component base="uc_main_stem" xOffset="592"/>
    <contour>
      <point x="524" y="769" type="curve" smooth="yes"/>
      <point x="837" y="769" type="line"/>
      <point x="837" y="947" type="line"/>
      <point x="604" y="947" type="line" smooth="yes"/>
      <point x="369" y="947"/>
      <point x="346" y="1003"/>
      <point x="346" y="1233" type="curve" smooth="yes"/>
      <point x="346" y="1431"/>
      <point x="408" y="1480"/>
      <point x="608" y="1480" type="curve" smooth="yes"/>
      <point x="837" y="1480" type="line"/>
      <point x="837" y="1658" type="line"/>
      <point x="524" y="1658" type="line" smooth="yes"/>
      <point x="256" y="1658"/>
      <point x="110" y="1503"/>
      <point x="110" y="1232" type="curve" smooth="yes"/>
      <point x="110" y="936"/>
      <point x="228" y="769"/>
    </contour>
    <contour>
      <point x="82" y="0" type="line"/>
      <point x="321" y="0" type="line"/>
      <point x="540" y="858" type="line"/>
      <point x="344" y="923" type="line"/>
    </contour>
  </outline>
</glyph>
<glyph name="afii10066" format="1">
  <advance width="881"/>
  <unicode hex="0431"/>
  <outline>
    <contour>
      <point x="421.0" y="-17.0" type="curve" smooth="yes"/>
      <point x="636.0" y="-17.0"/>
      <point x="793.0" y="64.0"/>
      <point x="793.0" y="434.0" type="curve" smooth="yes"/>
      <point x="793.0" y="664.0" type="line" smooth="yes"/>
      <point x="793.0" y="981.0"/>
      <point x="666.0" y="1082.0"/>
      <point x="527.0" y="1082.0" type="curve" smooth="yes"/>
      <point x="389.0" y="1082.0"/>
      <point x="239.0" y="983.0"/>
      <point x="190.0" y="897.0" type="curve"/>
      <point x="190.0" y="762.0" type="line"/>
      <point x="319.0" y="882.0"/>
      <point x="407.0" y="920.0"/>
      <point x="465.0" y="920.0" type="curve" smooth="yes"/>
      <point x="530.0" y="920.0"/>
      <point x="556.0" y="866.0"/>
      <point x="556.0" y="738.0" type="curve" smooth="yes"/>
      <point x="556.0" y="360.0" type="line" smooth="yes"/>
      <point x="556.0" y="216.0"/>
      <point x="523.0" y="158.0"/>
      <point x="443.0" y="158.0" type="curve" smooth="yes"/>
      <point x="347.0" y="158.0"/>
      <point x="324.0" y="222.0"/>
      <point x="324.0" y="391.0" type="curve"/>
      <point x="88.0" y="399.0" type="line"/>
      <point x="88.0" y="127.0"/>
      <point x="207.0" y="-17.0"/>
    </contour>
    <contour>
      <point x="324.0" y="391.0" type="line"/>
      <point x="324.0" y="1018.0" type="line" smooth="yes"/>
      <point x="324.0" y="1342.0"/>
      <point x="466.0" y="1428.0"/>
      <point x="711.0" y="1551.0" type="curve"/>
      <point x="622.0" y="1721.0" type="line"/>
      <point x="233.0" y="1508.0"/>
      <point x="88.0" y="1416.0"/>
      <point x="88.0" y="950.0" type="curve" smooth="yes"/>
      <point x="88.0" y="399.0" type="line"/>
    </contour>
  </outline>
</glyph>
<glyph name="afii10067" format="1">
  <advance width="863"/>
  <unicode hex="0432"/>
  <outline>
    <contour>
      <point x="233.0" y="0.0" type="line"/>
      <point x="462.0" y="0.0" type="line" smooth="yes"/>
      <point x="728.0" y="0.0"/>
      <point x="805.0" y="138.0"/>
      <point x="805.0" y="345.0" type="curve" smooth="yes"/>
      <point x="805.0" y="480.0"/>
      <point x="768.0" y="620.0"/>
      <point x="620.0" y="647.0" type="curve"/>
      <point x="749.0" y="685.0"/>
      <point x="777.0" y="783.0"/>
      <point x="775.0" y="901.0" type="curve" smooth="yes"/>
      <point x="772.0" y="1050.0"/>
      <point x="696.0" y="1184.0"/>
      <point x="452.0" y="1184.0" type="curve" smooth="yes"/>
      <point x="232.0" y="1184.0" type="line"/>
      <point x="232.0" y="1012.0" type="line"/>
      <point x="416.0" y="1012.0" type="line" smooth="yes"/>
      <point x="507.0" y="1012.0"/>
      <point x="569.0" y="983.0"/>
      <point x="569.0" y="872.0" type="curve" smooth="yes"/>
      <point x="569.0" y="749.0"/>
      <point x="520.0" y="713.0"/>
      <point x="437.0" y="713.0" type="curve" smooth="yes"/>
      <point x="233.0" y="713.0" type="line"/>
      <point x="233.0" y="543.0" type="line"/>
      <point x="416.0" y="543.0" type="line" smooth="yes"/>
      <point x="505.0" y="543.0"/>
      <point x="573.0" y="537.0"/>
      <point x="573.0" y="353.0" type="curve" smooth="yes"/>
      <point x="573.0" y="196.0"/>
      <point x="490.0" y="178.0"/>
      <point x="406.0" y="178.0" type="curve" smooth="yes"/>
      <point x="233.0" y="178.0" type="line"/>
    </contour>
    <component base="lc_xheight_stem" xScale="0.976115" xOffset="-5"/>
  </outline>
</glyph>
<glyph name="afii10068" format="1">
  <advance width="598"/>
  <unicode hex="0433"/>
  <outline>
    <contour>
      <point x="242.0" y="1016.0" type="line"/>
      <point x="604.0" y="1016.0" type="line"/>
      <point x="604.0" y="1184.0" type="line"/>
      <point x="242.0" y="1184.0" type="line"/>
    </contour>
    <component base="lc_xheight_stem"/>
  </outline>
</glyph>
<glyph name="afii10069" format="1">
  <advance width="1029"/>
  <unicode hex="0434"/>
  <outline>
    <contour>
      <point x="17.0" y="-286.0" type="line"/>
      <point x="189.0" y="-286.0" type="line"/>
      <point x="209.0" y="0.0" type="line"/>
      <point x="777.0" y="0.0" type="line"/>
      <point x="797.0" y="-286.0" type="line"/>
      <point x="969.0" y="-286.0" type="line"/>
      <point x="969.0" y="157.0" type="line"/>
      <point x="17.0" y="157.0" type="line"/>
    </contour>
    <contour>
      <point x="90.0" y="70.0" type="curve"/>
      <point x="306.0" y="70.0" type="line"/>
      <point x="348.0" y="135.0"/>
      <point x="467.0" y="437.0"/>
      <point x="467.0" y="1010.0" type="curve" smooth="yes"/>
      <point x="467.0" y="1184.0" type="line"/>
      <point x="264.0" y="1184.0" type="line"/>
      <point x="264.0" y="1009.0" type="line" smooth="yes"/>
      <point x="264.0" y="449.0"/>
      <point x="140.0" y="150.0"/>
    </contour>
    <contour>
      <point x="340.0" y="1014.0" type="line"/>
      <point x="737.0" y="1014.0" type="line"/>
      <point x="737.0" y="1184.0" type="line"/>
      <point x="340.0" y="1184.0" type="line"/>
    </contour>
    <component base="lc_xheight_stem" xScale="0.964347" xOffset="511"/>
  </outline>
</glyph>
<glyph name="afii10072" format="1">
  <advance width="1209"/>
  <unicode hex="0436"/>
  <outline>
    <contour>
      <point x="8.0" y="0.0" type="line"/>
      <point x="237.0" y="0.0" type="line"/>
      <point x="478.0" y="557.0" type="line"/>
      <point x="732.0" y="557.0" type="line"/>
      <point x="972.0" y="0.0" type="line"/>
      <point x="1201.0" y="0.0" type="line"/>
      <point x="913.0" y="593.0" type="line"/>
      <point x="1182.0" y="1184.0" type="line"/>
      <point x="947.0" y="1184.0" type="line"/>
      <point x="731.0" y="665.0" type="line"/>
      <point x="479.0" y="665.0" type="line"/>
      <point x="262.0" y="1184.0" type="line"/>
      <point x="26.0" y="1184.0" type="line"/>
      <point x="297.0" y="593.0" type="line"/>
    </contour>
    <component base="lc_xheight_stem" xScale="0.931412" xOffset="385"/>
  </outline>
</glyph>
<glyph name="afii10073" format="1">
  <advance width="772"/>
  <unicode hex="0437"/>
  <outline>
    <contour>
      <point x="390.0" y="-20.0" type="curve" smooth="yes"/>
      <point x="604.0" y="-20.0"/>
      <point x="706.0" y="100.0"/>
      <point x="706.0" y="324.0" type="curve" smooth="yes"/>
      <point x="706.0" y="578.0"/>
      <point x="591.0" y="597.0"/>
      <point x="505.0" y="614.0" type="curve"/>
      <point x="588.0" y="620.0"/>
      <point x="705.0" y="673.0"/>
      <point x="705.0" y="885.0" type="curve" smooth="yes"/>
      <point x="705.0" y="1043.0"/>
      <point x="623.0" y="1200.0"/>
      <point x="400.0" y="1200.0" type="curve" smooth="yes"/>
      <point x="194.0" y="1200.0"/>
      <point x="69.0" y="1110.0"/>
      <point x="69.0" y="836.0" type="curve"/>
      <point x="270.0" y="836.0" type="line"/>
      <point x="270.0" y="993.0"/>
      <point x="314.0" y="1026.0"/>
      <point x="390.0" y="1026.0" type="curve" smooth="yes"/>
      <point x="455.0" y="1026.0"/>
      <point x="500.0" y="986.0"/>
      <point x="500.0" y="872.0" type="curve" smooth="yes"/>
      <point x="500.0" y="741.0"/>
      <point x="454.0" y="693.0"/>
      <point x="304.0" y="693.0" type="curve"/>
      <point x="304.0" y="527.0" type="line"/>
      <point x="428.0" y="527.0"/>
      <point x="499.0" y="512.0"/>
      <point x="499.0" y="358.0" type="curve" smooth="yes"/>
      <point x="499.0" y="270.0"/>
      <point x="489.0" y="153.0"/>
      <point x="385.0" y="153.0" type="curve" smooth="yes"/>
      <point x="307.0" y="153.0"/>
      <point x="270.0" y="208.0"/>
      <point x="270.0" y="371.0" type="curve"/>
      <point x="69.0" y="371.0" type="line"/>
      <point x="69.0" y="101.0"/>
      <point x="167.0" y="-20.0"/>
    </contour>
  </outline>
</glyph>
<glyph name="afii10074" format="1">
  <advance width="940"/>
  <unicode hex="0438"/>
  <outline>
    <component base="lc_xheight_stem" xScale="0.798566" xOffset="548"/>
    <component base="lc_xheight_stem" xScale="0.820958" xOffset="13"/>
    <contour>
      <point x="304" y="0" type="line"/>
      <point x="738" y="976" type="line"/>
      <point x="642" y="1184" type="line"/>
      <point x="216" y="218" type="line"/>
    </contour>
  </outline>
</glyph>
<glyph name="afii10076" format="1">
  <advance width="862"/>
  <unicode hex="043A"/>
  <outline>
    <component base="lc_xheight_stem" xOffset="-8"/>
    <contour>
      <point x="611" y="0" type="line"/>
      <point x="858" y="0" type="line"/>
      <point x="592" y="657" type="line"/>
      <point x="856" y="1184" type="line"/>
      <point x="613" y="1184" type="line"/>
      <point x="230" y="420" type="line"/>
      <point x="230" y="248" type="line"/>
      <point x="402" y="544" type="line"/>
    </contour>
  </outline>
</glyph>
<glyph name="afii10077" format="1">
  <advance width="1010"/>
  <unicode hex="043B"/>
  <outline>
    <component base="lc_xheight_stem" xOffset="542"/>
    <component base="uc_horiz_bar" xScale="0.544411" xOffset="325" yOffset="1004"/>
    <contour>
      <point x="63" y="-10" type="line" smooth="yes"/>
      <point x="364" y="-10"/>
      <point x="425" y="127"/>
      <point x="449" y="673" type="curve" smooth="yes"/>
      <point x="471" y="1184" type="line"/>
      <point x="258" y="1184" type="line"/>
      <point x="233" y="673" type="line" smooth="yes"/>
      <point x="214" y="287"/>
      <point x="204" y="168"/>
      <point x="38" y="168" type="curve"/>
      <point x="38" y="-10" type="line"/>
    </contour>
  </outline>
</glyph>
<glyph name="afii10078" format="1">
  <advance width="1065"/>
  <unicode hex="043C"/>
  <outline>
    <contour>
      <point x="104.0" y="0.0" type="line"/>
      <point x="291.0" y="0.0" type="line"/>
      <point x="291.0" y="678.0" type="line"/>
      <point x="484.0" y="85.0" type="line"/>
      <point x="578.0" y="85.0" type="line"/>
      <point x="774.0" y="681.0" type="line"/>
      <point x="774.0" y="0.0" type="line"/>
      <point x="961.0" y="0.0" type="line"/>
      <point x="950.0" y="1183.0" type="line"/>
      <point x="772.0" y="1183.0" type="line"/>
      <point x="531.0" y="426.0" type="line"/>
      <point x="289.0" y="1183.0" type="line"/>
      <point x="117.0" y="1183.0" type="line"/>
    </contour>
  </outline>
</glyph>
<glyph name="afii10079" format="1">
  <advance width="950"/>
  <unicode hex="043D"/>
  <outline>
    <contour>
      <point x="242.0" y="519.0" type="line"/>
      <point x="724.0" y="519.0" type="line"/>
      <point x="724.0" y="692.0" type="line"/>
      <point x="242.0" y="692.0" type="line"/>
    </contour>
    <component base="lc_xheight_stem" xOffset="486"/>
    <component base="lc_xheight_stem" xOffset="-8"/>
  </outline>
</glyph>
<glyph name="afii10081" format="1">
  <advance width="921"/>
  <unicode hex="043F"/>
  <outline>
    <component base="lc_xheight_stem" xOffset="457"/>
    <component base="lc_xheight_stem" xOffset="-8"/>
    <contour>
      <point x="231" y="1005" type="line"/>
      <point x="693" y="1005" type="line"/>
      <point x="693" y="1184" type="line"/>
      <point x="231" y="1184" type="line"/>
    </contour>
  </outline>
</glyph>
<glyph name="afii10088" format="1">
  <advance width="996"/>
  <unicode hex="0446"/>
  <outline>
    <contour>
      <point x="810.0" y="-260.0" type="line"/>
      <point x="1001.0" y="-260.0" type="line"/>
      <point x="1001.0" y="178.0" type="line"/>
      <point x="229.0" y="178.0" type="line"/>
      <point x="229.0" y="0.0" type="line"/>
      <point x="810.0" y="0.0" type="line"/>
    </contour>
    <component base="lc_xheight_stem" xOffset="-8"/>
    <component base="lc_xheight_stem" xOffset="499"/>
  </outline>
</glyph>
<glyph name="afii10089" format="1">
  <advance width="899"/>
  <unicode hex="0447"/>
  <outline>
    <component base="lc_xheight_stem" xOffset="435"/>
    <contour>
      <point x="398" y="493" type="curve" smooth="yes"/>
      <point x="464" y="493"/>
      <point x="533" y="501"/>
      <point x="601" y="510" type="curve"/>
      <point x="601" y="676" type="line"/>
      <point x="541" y="665"/>
      <point x="493" y="661"/>
      <point x="455" y="661" type="curve" smooth="yes"/>
      <point x="329" y="661"/>
      <point x="306" y="713"/>
      <point x="306" y="791" type="curve" smooth="yes"/>
      <point x="306" y="1183" type="line"/>
      <point x="70" y="1183" type="line"/>
      <point x="70" y="794" type="line" smooth="yes"/>
      <point x="70" y="551"/>
      <point x="218" y="493"/>
    </contour>
  </outline>
</glyph>
<glyph name="afii10090" format="1">
  <advance width="1303"/>
  <unicode hex="0448"/>
  <outline>
    <contour>
      <point x="227.0" y="0.0" type="line"/>
      <point x="1086.0" y="0.0" type="line"/>
      <point x="1086.0" y="168.0" type="line"/>
      <point x="227.0" y="168.0" type="line"/>
    </contour>
    <component base="lc_xheight_stem" xScale="0.966195" xOffset="-4"/>
    <component base="lc_xheight_stem" xScale="0.966195" xOffset="851"/>
    <component base="lc_xheight_stem" xScale="0.966195" xOffset="418"/>
  </outline>
</glyph>
<glyph name="afii10091" format="1">
  <advance width="1330"/>
  <unicode hex="0449"/>
  <outline>
    <contour>
      <point x="1114.0" y="-285.0" type="line"/>
      <point x="1317.0" y="-285.0" type="line"/>
      <point x="1317.0" y="168.0" type="line"/>
      <point x="229.0" y="168.0" type="line"/>
      <point x="229.0" y="0.0" type="line"/>
      <point x="1114.0" y="0.0" type="line"/>
    </contour>
    <component base="lc_xheight_stem" xScale="0.966195" xOffset="-4"/>
    <component base="lc_xheight_stem" xScale="0.966195" xOffset="418"/>
    <component base="lc_xheight_stem" xScale="0.966195" xOffset="851"/>
  </outline>
</glyph>
<glyph name="afii10092" format="1">
  <advance width="969"/>
  <unicode hex="044A"/>
  <outline>
    <contour>
      <point x="18.0" y="1010.0" type="line"/>
      <point x="330.0" y="1010.0" type="line"/>
      <point x="330.0" y="1184.0" type="line"/>
      <point x="18.0" y="1184.0" type="line"/>
    </contour>
    <component base="cyrillic_lc_right_bowl" xOffset="15"/>
    <component base="lc_xheight_stem" xOffset="90"/>
  </outline>
</glyph>
<glyph name="afii10095" format="1">
  <advance width="852"/>
  <unicode hex="044D"/>
  <outline>
    <contour>
      <point x="412" y="-17" type="curve" smooth="yes"/>
      <point x="706" y="-17"/>
      <point x="764" y="166"/>
      <point x="764" y="454" type="curve" smooth="yes"/>
      <point x="764" y="728" type="line" smooth="yes"/>
      <point x="764" y="1016"/>
      <point x="707" y="1200"/>
      <point x="412" y="1200" type="curve" smooth="yes"/>
      <point x="159" y="1200"/>
      <point x="83" y="1065"/>
      <point x="83" y="823" type="curve" smooth="yes"/>
      <point x="83" y="776" type="line"/>
      <point x="296" y="776" type="line"/>
      <point x="296" y="839" type="line" smooth="yes"/>
      <point x="296" y="943"/>
      <point x="306" y="1025"/>
      <point x="407" y="1025" type="curve" smooth="yes"/>
      <point x="498" y="1025"/>
      <point x="528" y="982"/>
      <point x="528" y="788" type="curve" smooth="yes"/>
      <point x="528" y="404" type="line" smooth="yes"/>
      <point x="528" y="218"/>
      <point x="510" y="157"/>
      <point x="408" y="157" type="curve" smooth="yes"/>
      <point x="319" y="157"/>
      <point x="296" y="212"/>
      <point x="296" y="353" type="curve" smooth="yes"/>
      <point x="296" y="388" type="line"/>
      <point x="83" y="388" type="line"/>
      <point x="83" y="354" type="line" smooth="yes"/>
      <point x="83" y="105"/>
      <point x="152" y="-17"/>
    </contour>
    <contour>
      <point x="303" y="525" type="line"/>
      <point x="648" y="525" type="line"/>
      <point x="648" y="656" type="line"/>
      <point x="303" y="656" type="line"/>
    </contour>
  </outline>
</glyph>
<glyph name="afii10096" format="1">
  <advance width="1192"/>
  <unicode hex="044E"/>
  <outline>
    <contour>
      <point x="564.0" y="517.0" type="line"/>
      <point x="564.0" y="672.0" type="line"/>
      <point x="223.0" y="672.0" type="line"/>
      <point x="223.0" y="517.0" type="line"/>
    </contour>
    <component base="lc_xheight_stem" xScale="0.920441" xOffset="1.388"/>
    <component base="o" xScale="0.897445" xOffset="389"/>
  </outline>
</glyph>
<glyph name="afii10097" format="1">
  <advance width="889"/>
  <unicode hex="044F"/>
  <outline>
    <component base="cyrillic_lc_right_bowl" xScale="-1" yScale="-0.968056" xOffset="979" yOffset="1184"/>
    <component base="lc_xheight_stem" xOffset="425"/>
    <contour>
      <point x="95" y="0" type="line"/>
      <point x="332" y="0" type="line"/>
      <point x="440" y="553" type="line"/>
      <point x="242" y="604" type="line"/>
    </contour>
  </outline>
</glyph>
<glyph name="afii10099" format="1">
  <advance width="932"/>
  <unicode hex="0452"/>
  <outline>
    <contour>
      <point x="374.0" y="-311.0" type="line"/>
      <point x="446.0" y="-311.0" type="line" smooth="yes"/>
      <point x="777.0" y="-311.0"/>
      <point x="829.0" y="-220.0"/>
      <point x="829.0" y="210.0" type="curve"/>
      <point x="594.0" y="210.0" type="line"/>
      <point x="594.0" y="-95.0"/>
      <point x="593.0" y="-144.0"/>
      <point x="397.0" y="-144.0" type="curve" smooth="yes"/>
      <point x="374.0" y="-144.0" type="line"/>
    </contour>
    <contour>
      <point x="-42.0" y="1390.0" type="line"/>
      <point x="641.0" y="1390.0" type="line"/>
      <point x="641.0" y="1530.0" type="line"/>
      <point x="-42.0" y="1530.0" type="line"/>
    </contour>
    <component base="lc_ascender_stem" xOffset="1"/>
    <component base="lc_xheight_curve_stem" yScale="0.83119" xOffset="11" yOffset="210"/>
  </outline>
</glyph>
<glyph name="afii10106" format="1">
  <advance width="1366"/>
  <unicode hex="0459"/>
  <outline>
    <component base="cyrillic_lc_right_bowl" xOffset="400"/>
    <component base="lc_xheight_stem" xOffset="516"/>
    <component base="uc_horiz_bar" xScale="0.544411" xOffset="319" yOffset="1004"/>
    <contour>
      <point x="236" y="673" type="line" smooth="yes"/>
      <point x="214" y="298"/>
      <point x="198" y="178"/>
      <point x="32" y="178" type="curve"/>
      <point x="32" y="0" type="line"/>
      <point x="56" y="0" type="line" smooth="yes"/>
      <point x="316" y="0"/>
      <point x="407" y="122"/>
      <point x="435" y="638" type="curve" smooth="yes"/>
      <point x="465" y="1184" type="line"/>
      <point x="266" y="1184" type="line"/>
    </contour>
  </outline>
</glyph>
<glyph name="afii10193" format="1">
  <advance width="927"/>
  <unicode hex="045F"/>
  <outline>
    <component base="lc_xheight_stem" xOffset="463"/>
    <component base="lc_xheight_stem" xOffset="-8"/>
    <component base="uc_horiz_bar" xScale="0.565157" yScale="0.988889" xOffset="236"/>
    <contour>
      <point x="379" y="85" type="line"/>
      <point x="401" y="-264" type="line"/>
      <point x="533" y="-264" type="line"/>
      <point x="553" y="85" type="line"/>
    </contour>
  </outline>
</glyph>
<glyph name="endash" format="1">
  <advance width="1024"/>
  <unicode hex="2013"/>
  <outline>
    <contour>
      <point x="0.0" y="414.0" type="line"/>
      <point x="355.0" y="414.0" type="line"/>
      <point x="355.0" y="592.0" type="line"/>
      <point x="0.0" y="592.0" type="line"/>
    </contour>
  </outline>
</glyph>
<glyph name="emdash" format="1">
  <advance width="2048"/>
  <unicode hex="2014"/>
  <outline>
    <contour>
      <point x="0.0" y="562.0" type="line"/>
      <point x="2046.0" y="562.0" type="line"/>
      <point x="2046.0" y="732.0" type="line"/>
      <point x="0.0" y="732.0" type="line"/>
    </contour>
  </outline>
</glyph>
<glyph name="afii00208" format="1">
  <advance width="4096"/>
  <unicode hex="2015"/>
  <outline>
    <contour>
      <point x="0.0" y="414.0" type="line"/>
      <point x="0.0" y="592.0" type="line"/>
      <point x="4097.0" y="592.0" type="line"/>
      <point x="4097.0" y="414.0" type="line"/>
    </contour>
  </outline>
</glyph>
<glyph name="quoteleft" format="1">
  <advance width="828"/>
  <unicode hex="2018"/>
  <outline>
    <contour>
      <point x="103" y="1170" type="line"/>
      <point x="359" y="1170" type="line"/>
      <point x="359" y="1407" type="line"/>
      <point x="244" y="1407" type="line"/>
      <point x="244" y="1570"/>
      <point x="272" y="1641"/>
      <point x="358" y="1641" type="curve"/>
      <point x="319" y="1729" type="line"/>
      <point x="159" y="1729"/>
      <point x="103" y="1597"/>
      <point x="103" y="1375" type="curve" smooth="yes"/>
    </contour>
  </outline>
</glyph>
<glyph name="quoteright" format="1">
  <advance width="828"/>
  <unicode hex="2019"/>
  <outline>
    <contour>
      <point x="349.0" y="1658.0" type="line"/>
      <point x="92.0" y="1658.0" type="line"/>
      <point x="92.0" y="1421.0" type="line"/>
      <point x="207.0" y="1421.0" type="line"/>
      <point x="207.0" y="1258.0"/>
      <point x="179.0" y="1187.0"/>
      <point x="93.0" y="1187.0" type="curve"/>
      <point x="133.0" y="1099.0" type="line"/>
      <point x="293.0" y="1099.0"/>
      <point x="349.0" y="1231.0"/>
      <point x="349.0" y="1453.0" type="curve" smooth="yes"/>
    </contour>
  </outline>
</glyph>
<glyph name="quotesinglbase" format="1">
  <advance width="473"/>
  <unicode hex="201A"/>
  <outline>
    <contour>
      <point x="178" y="-237" type="line"/>
      <point x="327" y="-237"/>
      <point x="347" y="-136"/>
      <point x="352" y="13" type="curve" smooth="yes"/>
      <point x="354" y="74"/>
      <point x="355" y="148"/>
      <point x="355" y="237" type="curve"/>
      <point x="118" y="237" type="line"/>
      <point x="118" y="0" type="line"/>
      <point x="237" y="0" type="line"/>
      <point x="237" y="-83"/>
      <point x="204" y="-118"/>
      <point x="118" y="-118" type="curve"/>
    </contour>
  </outline>
</glyph>
<glyph name="quotedblleft" format="1">
  <advance width="828"/>
  <unicode hex="201C"/>
  <outline>
    <contour>
      <point x="103.0" y="1099.0" type="line"/>
      <point x="359.0" y="1099.0" type="line"/>
      <point x="359.0" y="1336.0" type="line"/>
      <point x="244.0" y="1336.0" type="line"/>
      <point x="244.0" y="1499.0"/>
      <point x="272.0" y="1570.0"/>
      <point x="358.0" y="1570.0" type="curve"/>
      <point x="319.0" y="1658.0" type="line"/>
      <point x="159.0" y="1658.0"/>
      <point x="103.0" y="1526.0"/>
      <point x="103.0" y="1304.0" type="curve" smooth="yes"/>
    </contour>
    <contour>
      <point x="479.0" y="1099.0" type="line"/>
      <point x="736.0" y="1099.0" type="line"/>
      <point x="736.0" y="1336.0" type="line"/>
      <point x="621.0" y="1336.0" type="line"/>
      <point x="621.0" y="1499.0"/>
      <point x="649.0" y="1570.0"/>
      <point x="735.0" y="1570.0" type="curve"/>
      <point x="695.0" y="1658.0" type="line"/>
      <point x="535.0" y="1658.0"/>
      <point x="479.0" y="1526.0"/>
      <point x="479.0" y="1304.0" type="curve" smooth="yes"/>
    </contour>
  </outline>
</glyph>
<glyph name="dagger" format="1">
  <advance width="785"/>
  <unicode hex="2020"/>
  <outline>
    <contour>
      <point x="278.0" y="0.0" type="line"/>
      <point x="509.0" y="0.0" type="line"/>
      <point x="509.0" y="1098.0" type="line"/>
      <point x="695.0" y="1098.0" type="line"/>
      <point x="695.0" y="1282.0" type="line"/>
      <point x="509.0" y="1282.0" type="line"/>
      <point x="509.0" y="1651.0" type="line"/>
      <point x="278.0" y="1651.0" type="line"/>
      <point x="278.0" y="1282.0" type="line"/>
      <point x="93.0" y="1282.0" type="line"/>
      <point x="93.0" y="1098.0" type="line"/>
      <point x="278.0" y="1098.0" type="line"/>
    </contour>
  </outline>
</glyph>
<glyph name="daggerdbl" format="1">
  <advance width="785"/>
  <unicode hex="2021"/>
  <outline>
    <contour>
      <point x="281.0" y="0.0" type="line"/>
      <point x="506.0" y="0.0" type="line"/>
      <point x="506.0" y="517.0" type="line"/>
      <point x="715.0" y="517.0" type="line"/>
      <point x="715.0" y="675.0" type="line"/>
      <point x="506.0" y="675.0" type="line"/>
      <point x="506.0" y="1026.0" type="line"/>
      <point x="715.0" y="1026.0" type="line"/>
      <point x="715.0" y="1184.0" type="line"/>
      <point x="506.0" y="1184.0" type="line"/>
      <point x="506.0" y="1652.0" type="line"/>
      <point x="281.0" y="1652.0" type="line"/>
      <point x="281.0" y="1184.0" type="line"/>
      <point x="73.0" y="1184.0" type="line"/>
      <point x="73.0" y="1026.0" type="line"/>
      <point x="281.0" y="1026.0" type="line"/>
      <point x="281.0" y="675.0" type="line"/>
      <point x="73.0" y="675.0" type="line"/>
      <point x="73.0" y="517.0" type="line"/>
      <point x="281.0" y="517.0" type="line"/>
    </contour>
  </outline>
</glyph>
<glyph name="bullet" format="1">
  <advance width="775"/>
  <unicode hex="2022"/>
  <outline>
    <contour>
      <point x="387.0" y="570.0" type="curve" smooth="yes"/>
      <point x="543.0" y="570.0"/>
      <point x="633.0" y="669.0"/>
      <point x="633.0" y="824.0" type="curve" smooth="yes"/>
      <point x="633.0" y="978.0"/>
      <point x="543.0" y="1078.0"/>
      <point x="387.0" y="1078.0" type="curve" smooth="yes"/>
      <point x="231.0" y="1078.0"/>
      <point x="142.0" y="979.0"/>
      <point x="142.0" y="824.0" type="curve" smooth="yes"/>
      <point x="142.0" y="670.0"/>
      <point x="231.0" y="570.0"/>
    </contour>
  </outline>
</glyph>
<glyph name="perthousand" format="1">
  <advance width="2694"/>
  <unicode hex="2030"/>
  <outline>
    <contour>
      <point x="2283" y="168" type="curve" smooth="yes"/>
      <point x="2178" y="168"/>
      <point x="2160" y="273"/>
      <point x="2160" y="382" type="curve" smooth="yes"/>
      <point x="2160" y="504" type="line" smooth="yes"/>
      <point x="2160" y="615"/>
      <point x="2172" y="711"/>
      <point x="2283" y="711" type="curve" smooth="yes"/>
      <point x="2393" y="711"/>
      <point x="2407" y="619"/>
      <point x="2407" y="506" type="curve" smooth="yes"/>
      <point x="2407" y="384" type="line" smooth="yes"/>
      <point x="2407" y="275"/>
      <point x="2391" y="168"/>
    </contour>
    <contour>
      <point x="2283" y="-10" type="curve" smooth="yes"/>
      <point x="2523" y="-10"/>
      <point x="2622" y="134"/>
      <point x="2622" y="384" type="curve" smooth="yes"/>
      <point x="2622" y="506" type="line" smooth="yes"/>
      <point x="2622" y="757"/>
      <point x="2527" y="891"/>
      <point x="2283" y="891" type="curve" smooth="yes"/>
      <point x="2037" y="891"/>
      <point x="1944" y="748"/>
      <point x="1944" y="494" type="curve" smooth="yes"/>
      <point x="1944" y="391" type="line" smooth="yes"/>
      <point x="1944" y="143"/>
      <point x="2044" y="-10"/>
    </contour>
    <component base="percent"/>
  </outline>
</glyph>
<glyph name="guilsinglleft" format="1">
  <advance width="538"/>
  <unicode hex="2039"/>
  <outline>
    <contour>
      <point x="473.0" y="60.0" type="line"/>
      <point x="473.0" y="355.0" type="line"/>
      <point x="237.0" y="593.0" type="line"/>
      <point x="473.0" y="829.0" type="line"/>
      <point x="473.0" y="1125.0" type="line"/>
      <point x="60.0" y="651.0" type="line"/>
      <point x="60.0" y="533.0" type="line"/>
    </contour>
  </outline>
</glyph>
<glyph name="guilsinglright" format="1">
  <advance width="587"/>
  <unicode hex="203A"/>
  <outline>
    <contour>
      <point x="114.0" y="179.0" type="line"/>
      <point x="527.0" y="652.0" type="line"/>
      <point x="527.0" y="770.0" type="line"/>
      <point x="114.0" y="1244.0" type="line"/>
      <point x="114.0" y="948.0" type="line"/>
      <point x="350.0" y="712.0" type="line"/>
      <point x="114.0" y="474.0" type="line"/>
    </contour>
  </outline>
</glyph>
<glyph name="fraction" format="1">
  <advance width="496"/>
  <unicode hex="2044"/>
  <outline>
    <contour>
      <point x="17.0" y="354.0" type="line"/>
      <point x="220.0" y="354.0" type="line"/>
      <point x="481.0" y="1759.0" type="line"/>
      <point x="279.0" y="1759.0" type="line"/>
    </contour>
  </outline>
</glyph>
<glyph name="uni2074" format="1">
  <advance width="709"/>
  <unicode hex="2074"/>
  <outline>
    <contour>
      <point x="355.0" y="533.0" type="line"/>
      <point x="533.0" y="533.0" type="line"/>
      <point x="533.0" y="769.0" type="line"/>
      <point x="651.0" y="769.0" type="line"/>
      <point x="651.0" y="888.0" type="line"/>
      <point x="533.0" y="888.0" type="line"/>
      <point x="533.0" y="1421.0" type="line"/>
      <point x="374.0" y="1421.0" type="line"/>
      <point x="60.0" y="888.0" type="line"/>
      <point x="60.0" y="769.0" type="line"/>
      <point x="355.0" y="769.0" type="line"/>
    </contour>
    <contour>
      <point x="237.0" y="888.0" type="line"/>
      <point x="355.0" y="1125.0" type="line"/>
      <point x="355.0" y="888.0" type="line"/>
    </contour>
  </outline>
</glyph>
<glyph name="Euro" format="1">
  <advance width="1023"/>
  <unicode hex="20AC"/>
  <outline>
    <contour>
      <point x="-21.0" y="614.0" type="line"/>
      <point x="539.0" y="614.0" type="line"/>
      <point x="539.0" y="743.0" type="line"/>
      <point x="307.0" y="743.0" type="line"/>
      <point x="307.0" y="933.0" type="line"/>
      <point x="539.0" y="933.0" type="line"/>
      <point x="539.0" y="1063.0" type="line"/>
      <point x="-21.0" y="1063.0" type="line"/>
      <point x="-21.0" y="933.0" type="line"/>
      <point x="162.0" y="933.0" type="line"/>
      <point x="162.0" y="743.0" type="line"/>
      <point x="-21.0" y="743.0" type="line"/>
    </contour>
    <component base="C"/>
  </outline>
</glyph>
<glyph name="trademark" format="1">
  <advance width="1503"/>
  <unicode hex="2122"/>
  <outline>
    <contour>
      <point x="678" y="889" type="line"/>
      <point x="800" y="889" type="line"/>
      <point x="800" y="1342" type="line"/>
      <point x="960" y="889" type="line"/>
      <point x="1026" y="889" type="line"/>
      <point x="1179" y="1342" type="line"/>
      <point x="1179" y="889" type="line"/>
      <point x="1301" y="889" type="line"/>
      <point x="1301" y="1658" type="line"/>
      <point x="1173" y="1658" type="line"/>
      <point x="988" y="1138" type="line"/>
      <point x="820" y="1658" type="line"/>
      <point x="678" y="1658" type="line"/>
    </contour>
    <contour>
      <point x="296" y="889" type="line"/>
      <point x="452" y="889" type="line"/>
      <point x="452" y="1535" type="line"/>
      <point x="588" y="1535" type="line"/>
      <point x="588" y="1658" type="line"/>
      <point x="151" y="1658" type="line"/>
      <point x="151" y="1535" type="line"/>
      <point x="296" y="1535" type="line"/>
    </contour>
  </outline>
</glyph>
<glyph name="product" format="1">
  <advance width="1124"/>
  <unicode hex="220F"/>
  <outline>
    <contour>
      <point x="118.0" y="0.0" type="line"/>
      <point x="355.0" y="0.0" type="line"/>
      <point x="355.0" y="1480.0" type="line"/>
      <point x="769.0" y="1480.0" type="line"/>
      <point x="769.0" y="0.0" type="line"/>
      <point x="1007.0" y="0.0" type="line"/>
      <point x="1007.0" y="1658.0" type="line"/>
      <point x="118.0" y="1658.0" type="line"/>
    </contour>
  </outline>
</glyph>
<glyph name="summation" format="1">
  <advance width="839"/>
  <unicode hex="2211"/>
  <outline>
    <contour>
      <point x="51" y="-390" type="line"/>
      <point x="739" y="-390" type="line"/>
      <point x="739" y="-212" type="line"/>
      <point x="323" y="-212" type="line"/>
      <point x="601" y="639" type="line"/>
      <point x="330" y="1474" type="line"/>
      <point x="734" y="1474" type="line"/>
      <point x="734" y="1658" type="line"/>
      <point x="51" y="1658" type="line"/>
      <point x="377" y="639" type="line"/>
    </contour>
  </outline>
</glyph>
<glyph name="minus" format="1">
  <advance width="709"/>
  <unicode hex="2212"/>
  <outline>
    <contour>
      <point x="0.0" y="507.0" type="line"/>
      <point x="694.0" y="507.0" type="line"/>
      <point x="694.0" y="646.0" type="line"/>
      <point x="0.0" y="646.0" type="line"/>
    </contour>
  </outline>
</glyph>
<glyph name="uni2215" format="1">
  <advance width="496"/>
  <unicode hex="2215"/>
  <outline>
    <contour>
      <point x="17" y="354" type="line"/>
      <point x="220" y="354" type="line"/>
      <point x="481" y="1759" type="line"/>
      <point x="279" y="1759" type="line"/>
    </contour>
  </outline>
</glyph>
<glyph name="infinity" format="1">
  <advance width="1305"/>
  <unicode hex="221E"/>
  <outline>
    <contour>
      <point x="351.0" y="213.0" type="curve" smooth="yes"/>
      <point x="500.0" y="213.0"/>
      <point x="592.0" y="289.0"/>
      <point x="671.0" y="378.0" type="curve"/>
      <point x="742.0" y="295.0"/>
      <point x="823.0" y="226.0"/>
      <point x="963.0" y="230.0" type="curve" smooth="yes"/>
      <point x="1153.0" y="236.0"/>
      <point x="1261.0" y="353.0"/>
      <point x="1261.0" y="541.0" type="curve"/>
      <point x="1261.0" y="729.0"/>
      <point x="1153.0" y="846.0"/>
      <point x="963.0" y="852.0" type="curve" smooth="yes"/>
      <point x="823.0" y="856.0"/>
      <point x="742.0" y="787.0"/>
      <point x="671.0" y="704.0" type="curve"/>
      <point x="592.0" y="793.0"/>
      <point x="500.0" y="869.0"/>
      <point x="351.0" y="869.0" type="curve" smooth="yes"/>
      <point x="144.0" y="869.0"/>
      <point x="44.0" y="729.0"/>
      <point x="44.0" y="541.0" type="curve"/>
      <point x="44.0" y="353.0"/>
      <point x="144.0" y="213.0"/>
    </contour>
    <contour>
      <point x="346.0" y="415.0" type="curve" smooth="yes"/>
      <point x="275.0" y="410.0"/>
      <point x="219.0" y="468.0"/>
      <point x="219.0" y="541.0" type="curve"/>
      <point x="219.0" y="614.0"/>
      <point x="275.0" y="672.0"/>
      <point x="346.0" y="667.0" type="curve" smooth="yes"/>
      <point x="393.0" y="664.0"/>
      <point x="447.0" y="639.0"/>
      <point x="531.0" y="541.0" type="curve"/>
      <point x="447.0" y="443.0"/>
      <point x="393.0" y="418.0"/>
    </contour>
    <contour>
      <point x="972.0" y="434.0" type="curve" smooth="yes"/>
      <point x="936.0" y="435.0"/>
      <point x="898.0" y="450.0"/>
      <point x="817.0" y="541.0" type="curve"/>
      <point x="898.0" y="633.0"/>
      <point x="936.0" y="647.0"/>
      <point x="972.0" y="648.0" type="curve" smooth="yes"/>
      <point x="1032.0" y="649.0"/>
      <point x="1087.0" y="610.0"/>
      <point x="1087.0" y="541.0" type="curve"/>
      <point x="1087.0" y="472.0"/>
      <point x="1032.0" y="433.0"/>
    </contour>
  </outline>
</glyph>
<glyph name="integral" format="1">
  <advance width="651"/>
  <unicode hex="222B"/>
  <outline>
    <contour>
      <point x="169.0" y="-237.0" type="curve" smooth="yes"/>
      <point x="397.0" y="-237.0"/>
      <point x="437.0" y="-108.0"/>
      <point x="437.0" y="118.0" type="curve" smooth="yes"/>
      <point x="437.0" y="1273.0" type="line" smooth="yes"/>
      <point x="437.0" y="1358.0"/>
      <point x="451.0" y="1421.0"/>
      <point x="536.0" y="1421.0" type="curve" smooth="yes"/>
      <point x="559.0" y="1421.0"/>
      <point x="591.0" y="1413.0"/>
      <point x="615.0" y="1411.0" type="curve"/>
      <point x="615.0" y="1587.0" type="line"/>
      <point x="555.0" y="1594.0"/>
      <point x="527.0" y="1598.0"/>
      <point x="469.0" y="1598.0" type="curve" smooth="yes"/>
      <point x="242.0" y="1598.0"/>
      <point x="201.0" y="1467.0"/>
      <point x="201.0" y="1243.0" type="curve" smooth="yes"/>
      <point x="201.0" y="89.0" type="line" smooth="yes"/>
      <point x="201.0" y="4.0"/>
      <point x="188.0" y="-60.0"/>
      <point x="103.0" y="-60.0" type="curve" smooth="yes"/>
      <point x="81.0" y="-60.0"/>
      <point x="45.0" y="-54.0"/>
      <point x="23.0" y="-50.0" type="curve"/>
      <point x="23.0" y="-226.0" type="line"/>
      <point x="83.0" y="-233.0"/>
      <point x="111.0" y="-237.0"/>
    </contour>
  </outline>
</glyph>
<glyph name="uniFB01" format="1">
  <advance width="1096"/>
  <unicode hex="FB01"/>
  <outline>
    <contour>
      <point x="161.0" y="0.0" type="line"/>
      <point x="398.0" y="0.0" type="line"/>
      <point x="398.0" y="1007.0" type="line"/>
      <point x="742.0" y="1007.0" type="line"/>
      <point x="742.0" y="0.0" type="line"/>
      <point x="978.0" y="0.0" type="line"/>
      <point x="978.0" y="1184.0" type="line"/>
      <point x="398.0" y="1184.0" type="line"/>
      <point x="398.0" y="1273.0" type="line" smooth="yes"/>
      <point x="398.0" y="1358.0"/>
      <point x="411.0" y="1421.0"/>
      <point x="496.0" y="1421.0" type="curve" smooth="yes"/>
      <point x="519.0" y="1421.0"/>
      <point x="551.0" y="1413.0"/>
      <point x="575.0" y="1411.0" type="curve"/>
      <point x="575.0" y="1587.0" type="line"/>
      <point x="515.0" y="1594.0"/>
      <point x="487.0" y="1598.0"/>
      <point x="429.0" y="1598.0" type="curve" smooth="yes"/>
      <point x="199.0" y="1598.0"/>
      <point x="161.0" y="1459.0"/>
      <point x="161.0" y="1230.0" type="curve" smooth="yes"/>
      <point x="161.0" y="1184.0" type="line"/>
      <point x="42.0" y="1184.0" type="line"/>
      <point x="42.0" y="1007.0" type="line"/>
      <point x="161.0" y="1007.0" type="line"/>
    </contour>
    <contour>
      <point x="742.0" y="1362.0" type="line"/>
      <point x="978.0" y="1362.0" type="line"/>
      <point x="978.0" y="1598.0" type="line"/>
      <point x="742.0" y="1598.0" type="line"/>
    </contour>
  </outline>
</glyph>
<glyph name="uniFB02" format="1">
  <advance width="1073"/>
  <unicode hex="FB02"/>
  <outline>
    <contour>
      <point x="161.0" y="0.0" type="line"/>
      <point x="398.0" y="0.0" type="line"/>
      <point x="398.0" y="1007.0" type="line"/>
      <point x="575.0" y="1007.0" type="line"/>
      <point x="575.0" y="1184.0" type="line"/>
      <point x="398.0" y="1184.0" type="line"/>
      <point x="398.0" y="1273.0" type="line" smooth="yes"/>
      <point x="398.0" y="1358.0"/>
      <point x="411.0" y="1421.0"/>
      <point x="496.0" y="1421.0" type="curve" smooth="yes"/>
      <point x="564.0" y="1421.0"/>
      <point x="644.0" y="1415.0"/>
      <point x="727.0" y="1408.0" type="curve"/>
      <point x="727.0" y="0.0" type="line"/>
      <point x="964.0" y="0.0" type="line"/>
      <point x="964.0" y="1555.0" type="line"/>
      <point x="748.0" y="1583.0"/>
      <point x="639.0" y="1598.0"/>
      <point x="429.0" y="1598.0" type="curve" smooth="yes"/>
      <point x="199.0" y="1598.0"/>
      <point x="161.0" y="1459.0"/>
      <point x="161.0" y="1230.0" type="curve" smooth="yes"/>
      <point x="161.0" y="1184.0" type="line"/>
      <point x="42.0" y="1184.0" type="line"/>
      <point x="42.0" y="1007.0" type="line"/>
      <point x="161.0" y="1007.0" type="line"/>
    </contour>
  </outline>
</glyph>
<glyph name="cyrillic_lc_right_bowl" format="1">
  <advance width="1047"/>
  <outline>
    <contour>
      <point x="313" y="0" type="line"/>
      <point x="431" y="0" type="line" smooth="yes"/>
      <point x="780" y="0"/>
      <point x="912" y="76"/>
      <point x="912" y="349" type="curve" smooth="yes"/>
      <point x="912" y="651"/>
      <point x="770" y="692"/>
      <point x="419" y="692" type="curve" smooth="yes"/>
      <point x="313" y="692" type="line"/>
      <point x="313" y="554" type="line"/>
      <point x="426" y="554" type="line" smooth="yes"/>
      <point x="645" y="554"/>
      <point x="700" y="513"/>
      <point x="700" y="350" type="curve" smooth="yes"/>
      <point x="700" y="167"/>
      <point x="631" y="138"/>
      <point x="431" y="138" type="curve" smooth="yes"/>
      <point x="313" y="138" type="line"/>
    </contour>
  </outline>
</glyph>
<glyph name="cyrillic_uc_right_bowl" format="1">
  <advance width="1047"/>
  <outline>
    <contour>
      <point x="244" y="0" type="line"/>
      <point x="426" y="0" type="line" smooth="yes"/>
      <point x="789" y="0"/>
      <point x="959" y="136"/>
      <point x="959" y="488" type="curve" smooth="yes"/>
      <point x="959" y="877"/>
      <point x="780" y="969"/>
      <point x="413" y="969" type="curve" smooth="yes"/>
      <point x="244" y="969" type="line"/>
      <point x="244" y="791" type="line"/>
      <point x="421" y="791" type="line" smooth="yes"/>
      <point x="652" y="791"/>
      <point x="724" y="712"/>
      <point x="724" y="490" type="curve" smooth="yes"/>
      <point x="724" y="215"/>
      <point x="626" y="178"/>
      <point x="426" y="178" type="curve" smooth="yes"/>
      <point x="244" y="178" type="line"/>
    </contour>
  </outline>
</glyph>
<glyph name="foundryicon" format="1">
  <advance width="1397"/>
  <outline>
    <contour>
      <point x="269.0" y="256.0" type="line"/>
      <point x="694.0" y="558.0" type="line"/>
      <point x="1128.0" y="256.0" type="line"/>
      <point x="971.0" y="757.0" type="line"/>
      <point x="1397.0" y="1080.0" type="line"/>
      <point x="868.0" y="1080.0" type="line"/>
      <point x="694.0" y="1582.0" type="line"/>
      <point x="529.0" y="1080.0" type="line"/>
      <point x="0.0" y="1080.0" type="line"/>
      <point x="424.0" y="757.0" type="line"/>
    </contour>
  </outline>
</glyph>
<glyph name="lc_ascender_stem" format="1">
  <advance width="917"/>
  <outline>
    <contour>
      <point x="108.0" y="0.0" type="line"/>
      <point x="344.0" y="0.0" type="line"/>
      <point x="344.0" y="1658.0" type="line"/>
      <point x="108.0" y="1658.0" type="line"/>
    </contour>
  </outline>
</glyph>
